<?xml version="1.0" encoding="utf-8"?>
<!-- Generator: Adobe Illustrator 28.0.0, SVG Export Plug-In . SVG Version: 6.00 Build 0)  -->
<svg version="1.1" xmlns="http://www.w3.org/2000/svg" xmlns:xlink="http://www.w3.org/1999/xlink" x="0px" y="0px"
	 viewBox="0 0 256 256" style="enable-background:new 0 0 256 256;" xml:space="preserve">
<style type="text/css">
	.st0{fill:#FDF521;stroke:#000000;stroke-width:2.816;stroke-miterlimit:51.2;}
	.st1{fill-rule:evenodd;clip-rule:evenodd;fill:#FFFFFF;}
	.st2{fill-rule:evenodd;clip-rule:evenodd;fill:#F7F7F7;}
	.st3{fill-rule:evenodd;clip-rule:evenodd;fill:#EFEFEF;}
	.st4{fill-rule:evenodd;clip-rule:evenodd;fill:#E6E6E6;}
	.st5{fill-rule:evenodd;clip-rule:evenodd;fill:#D6D6D6;}
	.st6{fill-rule:evenodd;clip-rule:evenodd;fill:#CECECE;}
	.st7{fill-rule:evenodd;clip-rule:evenodd;fill:#C5C5C5;}
	.st8{fill-rule:evenodd;clip-rule:evenodd;fill:#BDBDBD;}
	.st9{fill-rule:evenodd;clip-rule:evenodd;fill:#B5B5B5;}
	.st10{fill-rule:evenodd;clip-rule:evenodd;fill:#ADADAD;}
	.st11{fill-rule:evenodd;clip-rule:evenodd;fill:#A5A5A5;}
	.st12{fill-rule:evenodd;clip-rule:evenodd;fill:#9C9C9C;}
	.st13{fill-rule:evenodd;clip-rule:evenodd;fill:#949494;}
	.st14{fill-rule:evenodd;clip-rule:evenodd;fill:#8C8C8C;}
	.st15{fill-rule:evenodd;clip-rule:evenodd;fill:#848484;}
	.st16{fill-rule:evenodd;clip-rule:evenodd;fill:#7B7B7B;}
	.st17{fill-rule:evenodd;clip-rule:evenodd;fill:#737373;}
	.st18{fill-rule:evenodd;clip-rule:evenodd;fill:#636363;}
	.st19{fill-rule:evenodd;clip-rule:evenodd;fill:#5A5A5A;}
	.st20{fill-rule:evenodd;clip-rule:evenodd;fill:#525252;}
	.st21{fill-rule:evenodd;clip-rule:evenodd;fill:#4A4A4A;}
	.st22{fill-rule:evenodd;clip-rule:evenodd;fill:#424242;}
	.st23{fill-rule:evenodd;clip-rule:evenodd;fill:#3A3A3A;}
	.st24{fill-rule:evenodd;clip-rule:evenodd;fill:#313131;}
	.st25{fill-rule:evenodd;clip-rule:evenodd;fill:#292929;}
	.st26{fill-rule:evenodd;clip-rule:evenodd;fill:#212121;}
	.st27{fill-rule:evenodd;clip-rule:evenodd;fill:#191919;}
</style>
<g id="Слой_1">
	<g id="SVGRepo_bgCarrier">
	</g>
	<g id="SVGRepo_tracerCarrier">
	</g>
	<g id="SVGRepo_iconCarrier">
		<path class="st0" d="M150.9,41.6L241,185.7c11.2,18-1.7,41.3-22.9,41.3H37.9c-21.2,0-34.2-23.3-22.9-41.3l90.1-144.1
			C115.7,24.7,140.3,24.7,150.9,41.6z"/>
	</g>
</g>
<g id="Слой_2">
	<g>
		<path class="st1" d="M76,165.9L76,165.9c0-0.1,0.2-0.1,0.5-0.1c0.3,0,0.5,0,0.5,0.1v0.1l0,0h-0.5H76"/>
		<path class="st1" d="M77.2,165.9L77.2,165.9c0-0.1,0.2-0.1,0.4-0.1c0.2,0,0.4,0,0.4,0.1v0.1l0,0h-0.1c-0.1,0-0.2,0-0.2,0
			c0,0-0.2,0-0.3,0H77.2"/>
		<path class="st1" d="M113.4,129.7h0.2c0.1,0,0.2,0,0.3,0c0,0,0.1,0,0.2,0h0.1l0,0v0.1c0,0-0.2,0.1-0.4,0.1
			C113.6,129.8,113.4,129.8,113.4,129.7L113.4,129.7"/>
	</g>
	<g>
		<path class="st2" d="M63.6,208.4h8.2c4.5,0,8.2,0,8.3,0c0,0,1,0,2.2,0h2.1l0,0l0.2,0c0.1,0,0.2,0,0.2,0c0,0,0.1,0,0.1,0H85l0,0
			l0,0.1c0,0.1,0,0.5,0.1,1l0.1,0.9l0,0v0.4c0,0.3,0,0.4-0.8,0.4c-0.4,0-0.8,0-0.9,0h-0.1l0,0h-3.9c-2.2,0-4,0-4,0c0,0-2.6,0-5.7,0
			h-5.6l0,0h-0.1c-0.1,0-0.2,0-0.4,0c-0.3,0-0.3-0.1-0.2-1.2C63.5,209.2,63.5,208.6,63.6,208.4L63.6,208.4"/>
		<path class="st2" d="M172.2,211.1l-0.3-0.1c-0.1,0-0.5-0.1-0.8-0.2s-0.7-0.2-0.9-0.2l-0.3-0.1l0,0l-0.1-0.1c0,0-0.1-0.1-0.1-0.1
			h-0.1l0,0l-0.1-0.1c0,0-0.1-0.1-0.1-0.1h-0.1l0,0l-0.3-0.1l-0.3-0.1l0,0v-0.1c0,0,0-0.1-0.1-0.1h-0.1l0,0l-0.5-0.4l-0.5-0.4l0,0
			v-0.1c0,0,0-0.1-0.1-0.1h-0.1l0,0v-0.1c0,0,0-0.1-0.1-0.1h-0.1l0,0l-0.2-0.4l-0.2-0.4l0,0l-0.1-0.4l-0.1-0.4l0,0h1.1
			c0.6,0,1.1,0,1.1,0c0,0,0.4,0,0.7,0h0.6l0,0l0.4-0.1l0.4-0.1l0,0l0.1-0.1l0.1-0.1l0,0h0.1c0.1,0,0.2-0.1,0.4-0.2s0.3-0.4,0.3-0.5
			l0.1-0.3l0,0h0.1c0,0,0.1-0.3,0.1-0.7c0-0.4-0.1-0.8-0.2-0.9l-0.2-0.2l0,0l-0.1-0.1l-0.1-0.1l0,0v-0.1c0,0-0.1-0.1-0.2-0.2
			c-0.1-0.1-0.4-0.2-0.6-0.2l-0.4-0.1l0,0h-2.2h-2.2h-0.1v-0.1c0,0,0-0.3,0-0.6V202l0,0l0-0.2c0-0.1,0-0.5,0-1l0-0.8h0.8h0.8l0,0
			h0.2c0.1,0,0.2,0,0.3,0c0,0,0.1,0,0.2,0h0.1l0,0h0.6c0.3,0,0.7,0,0.7,0c0.1,0,0.3,0,0.5-0.1l0.4-0.1l0,0h0.1c0,0,0.2,0,0.3,0
			s0.3-0.1,0.4-0.1l0.1-0.1l0,0l0.2-0.1l0.2-0.1l0,0l0.1-0.2l0.1-0.2l0,0l0.1-0.1c0,0,0.1-0.1,0.1-0.1v-0.1l0,0h0.1
			c0,0,0.1-0.3,0.1-0.7s-0.1-0.7-0.1-0.8L172,197l0,0l-0.1-0.2l-0.1-0.2l0,0l-0.3-0.2l-0.3-0.2l0,0l-0.2-0.1c-0.1,0-0.2-0.1-0.3-0.1
			l-0.1,0l0,0l-0.3-0.1c-0.2,0-0.4-0.1-0.4-0.1l-0.1,0l0,0h-0.5h-0.5l0,0h-0.6h-0.6l0,0H167h-0.5l0,0h-0.2c-0.1,0-0.2,0-0.3-0.1
			c-0.1,0-0.2,0-0.2,0l-0.1,0.1l0,0v-0.5v-0.5l0,0v-0.1c0,0,0-0.3,0-0.6v-0.5l0,0v-0.6v-0.6l0,0h0.1c0,0,0.4,0,0.7,0h0.6l0,0h1.1
			h1.1l0,0h0.2c0.1,0,0.3,0,0.3,0c0.1,0,0.3,0,0.5-0.1l0.4-0.1l0,0h0.1c0,0,0.1,0,0.2,0c0.1,0,0.2,0,0.2,0c0,0,0.2-0.2,0.4-0.4
			l0.3-0.4l0,0h0.1c0,0,0.1-0.1,0.2-0.3c0.1-0.1,0.2-0.6,0.2-0.9c0-0.4,0-0.6-0.1-0.6h-0.1l0,0l-0.1-0.1l-0.1-0.1l0,0l-0.1-0.2
			l-0.1-0.2l0,0l-0.2-0.1l-0.2-0.1l0,0l-0.1-0.1c0,0-0.1-0.1-0.1-0.1H171l0,0l-0.2-0.1c-0.1,0-0.2-0.1-0.3-0.1l-0.1,0l0,0l-1-0.1
			c-0.5,0-1-0.1-1.1-0.1l-0.1,0v0.1h-0.1v-0.1h-0.3c-0.2,0-0.3,0-0.4,0c0,0-0.4,0-0.9,0h-0.8l0,0V188v-0.3l0,0h0.1
			c0,0,0.1-0.2,0.1-0.4s0.1-0.8,0.3-1.2l0.3-0.8l0,0l0.3-0.3l0.3-0.3l0,0l0.1-0.1c0.1,0,0.4-0.2,0.8-0.4c0.4-0.2,0.9-0.4,1.1-0.5
			l0.4-0.1l0,0l0.7-0.1c0.4,0,1.4-0.1,2.4-0.1c1,0,2.2,0.1,2.7,0.2s1.3,0.4,1.6,0.5c0.4,0.2,0.7,0.3,0.8,0.4l0.1,0.1l0,0l0.4,0.6
			c0.2,0.3,0.5,0.9,0.6,1.2c0.1,0.3,0.2,0.9,0.2,1.4c0,0.4,0.1,0.9,0.1,1v0.2l0,0l0,0.1c0,0.1,0,0.3,0.1,0.6l0.1,0.5l0,0v0.6
			c0,0.3,0,0.7,0,0.7c0,0,0,3,0,6.5v6.4l0,0l-0.1,0c0,0-0.1,0.4-0.1,0.8c0,0.4-0.2,1-0.4,1.4c-0.2,0.4-0.3,0.8-0.4,1l-0.1,0.3l0,0
			l-0.1,0.1l-0.1,0.1l0,0l-0.3,0.2c-0.1,0.1-0.3,0.2-0.3,0.2c0,0,0,0,0,0.1c0,0,0,0.1,0,0.1v0.1l0,0h-0.1c0,0-0.1,0-0.1,0.1v0.1l0,0
			l-0.1,0.1c-0.1,0-0.1,0.1-0.1,0.1s0,0,0,0.1v0.1l0,0h-0.1c0,0-0.1,0-0.1,0.1v0.1l0,0l-0.4,0.3l-0.4,0.3l0,0l-0.9,0.4l-0.9,0.4l0,0
			l-0.9,0.1l-0.9,0.1l0,0h-0.3H172.2"/>
		<path class="st2" d="M64.3,203.1L64.3,203.1c0.1,0,0.2-0.4,0.3-0.9s0.2-0.9,0.2-0.9v-0.1l0,0l0.2-0.3c0.1-0.2,0.4-0.9,0.8-1.7
			l0.6-1.4l0,0h0.1c0,0,0.1,0,0.1-0.1v-0.1l0,0l0.1-0.2l0.1-0.2l0,0H67c0,0,0.1,0,0.1-0.1v-0.1l0,0l0.2-0.3l0.2-0.3l0,0l0.1-0.2
			l0.1-0.2l0,0h0.1c0,0,0.1,0,0.1-0.1V196l0,0l0.1-0.2l0.1-0.2l0,0h0.1c0,0,0.1,0,0.1-0.1v-0.1l0,0l0.1-0.2l0.1-0.2l0,0h0.1
			c0,0,0.1,0,0.1-0.1v-0.1l0,0l0.3-0.4l0.3-0.4l0,0l0.1-0.2l0.1-0.2l0,0l0.1-0.2l0.1-0.2l0,0l0.1-0.2l0.1-0.2l0,0h0.1
			c0,0,0.1,0,0.1-0.1v-0.1l0,0l0,0c0,0,0.2,0,0.5-0.1l0.5,0l0,0v0.1c0,0,0.3,0.1,0.6,0.1h0.6l0,0v0.1c0,0,0.2,0.1,0.4,0.1
			c0.2,0,0.4,0,0.4-0.1v-0.1l0,0h0.2c0.1,0,0.6,0,1-0.1c0.4,0,1-0.2,1.5-0.4l0.8-0.3l0,0h0.3c0.2,0,0.3,0.1,0.4,0.1
			c0,0.1,0.1,0.1,0.1,0.1h0.1l0,0l0.1,0.2l0.1,0.2l0,0v0.1c0,0,0,0.1,0.1,0.1h0.1l0,0l0.1,0.2l0.1,0.2l0,0l0.1,0.2l0.1,0.2l0,0
			l0.2,0.3l0.2,0.3l0,0l0.1,0.2l0.1,0.2l0,0v0.1c0,0,0,0.1,0.1,0.1h0.1l0,0l0.1,0.2l0.1,0.2l0,0v0.1c0,0,0,0.1,0.1,0.1H80l0,0
			l0.3,0.4l0.3,0.4l0,0v0.1c0,0,0,0.1,0.1,0.1h0.1l0,0l0.2,0.3l0.2,0.3l0,0l0.2,0.3l0.2,0.3l0,0l0.2,0.3l0.2,0.3l0,0l0.2,0.4
			l0.2,0.4l0,0v0.1c0,0.1,0.1,0.3,0.1,0.4c0.1,0.2,0.2,0.3,0.2,0.3h0.1l0,0l0.1,0.3l0.1,0.3l0,0v0.1c0,0.1,0.2,0.8,0.5,1.6
			c0.3,0.8,0.5,1.6,0.6,1.8l0.1,0.3l0,0l0,0.1c0,0.1,0,0.2,0.1,0.3l0.1,0.2l0,0l-0.1,0.1c-0.1,0-0.2,0.1-0.2,0.1c-0.1,0-0.6,0-1.1,0
			h-1h-0.1h-0.1h-0.1c-0.1,0-0.2,0-0.2,0c0,0-0.2,0-0.3,0h-0.2l0,0h-0.6c-0.4,0-0.7,0-0.7,0h-0.1l0,0h-0.6c-0.4,0-0.7,0-0.7,0
			c0,0-0.2,0-0.4,0h-0.3l0,0h-2.1c-1.2,0-2.2,0-2.2,0c0,0-0.9,0-2,0h-1.9l0,0H69c-0.1,0-0.2,0-0.2,0c0,0-0.2,0-0.3,0h-0.2h-0.1H68
			h-0.1c-0.1,0-0.2,0-0.2,0c0,0-0.2,0-0.3,0h-0.2l0,0h-0.6c-0.4,0-0.7,0-0.7,0h-0.1l0,0h-0.1c-0.1,0-0.2,0-0.2,0c0,0-0.2,0-0.3,0
			h-0.2l0,0h-0.1c0,0-0.2,0-0.4,0c-0.3,0-0.3-0.1-0.2-0.5c0.1-0.2,0.1-0.5,0.1-0.6V203.1"/>
		<path class="st2" d="M102.1,197.6l-0.6-0.4l-0.6-0.4l0,0l-0.2-0.1l-0.2-0.1l0,0l-0.4-0.2l-0.4-0.2l0,0l-0.2-0.1l-0.2-0.1l0,0
			l-0.2-0.1l-0.2-0.1l0,0l-0.4-0.2l-0.4-0.2l0,0l-0.2-0.1l-0.2-0.1l0,0l-0.4-0.2l-0.4-0.2l0,0l-0.2-0.1l-0.2-0.1l0,0l-0.2-0.1
			l-0.2-0.1l0,0l-0.3-0.3l-0.3-0.3l0,0v-1.1c0-0.6,0-1.1,0-1.1c0,0,0-1.1,0-2.3v-2.2l0,0v-1.2c0-0.7,0-1.3,0-1.3c0,0,0-0.8,0-1.6
			v-1.6v-0.1v-0.1c0,0,0-0.1,0.1-0.1h0.1H96h0.2c0.1,0,0.2,0,0.3,0c0,0,2.3,0,5.1,0h5.1l0,0h0.1c0,0,0.1,0,0.1,0c0,0,0.2,0,0.3,0
			h0.2l0,0h0.1c0.1,0,0.2,0,0.2,0c0,0,0.4,0,0.7,0h0.6v0.1v0.1c0,0,0,0.1,0,0.1v0.1v0.1v0.2c0,0.1,0,0.2,0,0.3c0,0,0,0.1,0,0.2v0.1
			l0,0v0.2c0,0.1,0,0.2,0,0.3c0,0,0,0.1,0,0.2v0.1l0,0v0.5v0.5l0,0v0.5v0.5l0,0v2.2c0,1.2,0,2.2,0,2.3c0,0,0,0.8,0,1.7v1.6l0,0v0.3
			c0,0.2-0.2,0.4-0.5,0.7c-0.3,0.2-0.5,0.3-0.5,0.4v0.1l0,0l-0.6,0.4l-0.6,0.4l0,0l-0.2,0.1l-0.2,0.1l0,0l-0.4,0.2l-0.4,0.2l0,0
			l-0.2,0.1l-0.2,0.1l0,0l-0.2,0.1l-0.2,0.1l0,0l-0.4,0.2l-0.4,0.2l0,0l-0.2,0.1l-0.2,0.1l0,0l-0.4,0.2l-0.4,0.2l0,0l-0.2,0.1
			l-0.2,0.1l0,0h-0.3H102.1"/>
		<path class="st2" d="M72.2,188.6L72.2,188.6c0-0.1-0.3-0.2-0.6-0.2c-0.3,0-1-0.3-1.6-0.6l-1-0.5l0,0v-0.1c0,0,0-0.1-0.1-0.1h-0.1
			l0,0l-0.1-0.1c0-0.1-0.1-0.1-0.1-0.1s0,0-0.1,0c0,0-0.1,0-0.1-0.1c0,0-0.2-0.2-0.4-0.4l-0.4-0.4l0,0V186c0,0,0-0.1,0-0.1
			s-0.1-0.2-0.3-0.4l-0.3-0.3l0,0l-0.1-0.1l-0.1-0.1l0,0l-0.2-0.6l-0.2-0.6l0,0l-0.1-0.9l-0.1-0.9l0,0v-0.6c0-0.4,0-0.7,0-0.7
			c0,0,0-0.8,0-1.8V177l0,0v-0.6c0-0.4,0-0.7,0-0.7c0,0,0-2,0-4.3v-4.2l0,0v-0.3v-0.3l0,0h0.1c0,0,0.1-0.3,0.1-0.8s0.1-1,0.1-1.3
			c0.1-0.3,0.2-0.8,0.4-1.1l0.2-0.5l0,0l0.1-0.2l0.1-0.2l0,0h0.1c0,0,0.1,0,0.1-0.1v-0.1l0,0l0.2-0.1l0.2-0.1l0,0l0.4-0.2l0.4-0.2
			l0,0l0.2,0c0.1,0,0.3-0.1,0.5-0.1c0.2-0.1,1.1-0.2,2-0.3c1.3-0.1,2-0.1,3.2,0c0.9,0.1,1.7,0.2,1.9,0.3c0.2,0.1,0.4,0.1,0.5,0.1
			h0.1l0,0l0.2,0.1l0.2,0.1l0,0v0.1c0,0.1,0.1,0.1,0.1,0.1c0.1,0,0.2,0,0.2,0h0.1l0,0l0.2,0.2c0.1,0.1,0.2,0.2,0.2,0.2
			c0,0,0.1,0,0.1,0h0.1l0,0l0.2,0.3c0.1,0.2,0.3,0.6,0.4,1c0.1,0.4,0.2,0.8,0.2,1c0,0.2,0,0.4,0.1,0.4h0.1l0,0v0.3
			c0,0.2-0.1,0.3-0.2,0.3c-0.1,0-0.2,0-0.3,0.1l-0.1,0.1l0,0H79h-0.2l-0.1-0.1l0,0l-0.1,0h-0.1l0-0.1h-0.1c-0.1,0-0.1,0-0.1,0.1
			l0,0.1l0,0l-0.1,0v-0.1h-0.1c-0.1,0-0.2,0-0.2,0c0,0-0.2,0-0.3,0h-0.2v0.1H77v-0.1l-0.1,0c-0.1,0-0.3,0-0.5,0.1l-0.4,0.1l0,0h-0.2
			c-0.1,0-0.3,0-0.3,0c0,0-0.1,0-0.1,0h-0.1l0,0h-0.1c-0.1,0-0.2,0-0.2,0.1l-0.1,0.1l0,0h-0.3c-0.1,0-0.4,0.1-0.6,0.2
			c-0.2,0.1-0.3,0.3-0.3,0.4v0.1l0,0l-0.2,0.2c-0.1,0.1-0.2,0.5-0.2,0.9c0,0.4,0,0.7,0.1,0.7h0.1l0,0l0.2,0.4l0.2,0.4l0,0l0.2,0.1
			l0.2,0.1l0,0l0.1,0.1l0.1,0.1l0,0l0.4,0.1l0.4,0.1l0,0h2.2h2.2l0,0v0.1c0,0.1,0,0.2,0,0.2c0,0,0,0.4,0,0.7v0.6h0.1v0.1h-0.1v0.1
			c0,0,0,0.4,0,0.7v0.6l-0.1,0.1l-0.1,0.1h-1.4c-0.8,0-1.4,0-1.4,0c0,0-0.4,0-0.8,0h-0.7l0,0l-0.4,0c-0.2,0-0.5,0.1-0.5,0.1
			l-0.1,0.1l0,0l-0.4,0.4l-0.4,0.4l0,0l-0.1,0.1l-0.1,0.1l0,0h-0.1c0,0-0.1,0.3-0.1,0.7c0,0.4,0,0.7,0.1,0.7h0.1l0,0l0.1,0.2
			l0.1,0.2l0,0l0.2,0.2l0.2,0.2l0,0l0.1,0.1c0,0.1,0.2,0.2,0.5,0.2c0.2,0,0.4,0.1,0.5,0.1h0.1l0,0h2.2h2.2v0.1v0.7
			c0,0.4,0,0.7,0,0.8c0,0,0,0.4,0,0.7v0.6l-0.1,0.1l-0.1,0.1h-1.4c-0.8,0-1.4,0-1.4,0c0,0-0.4,0-0.8,0h-0.7l0,0l-0.3,0.1
			c-0.2,0.1-0.4,0.1-0.5,0.1c-0.1,0-0.2,0.1-0.2,0.1v0.1l0,0l-0.2,0.1l-0.2,0.1l0,0l-0.2,0.4l-0.2,0.4l0,0h-0.1c0,0-0.1,0.3-0.1,0.7
			c0,0.4,0,0.7,0.1,0.7h0.1l0,0l0.1,0.2l0.1,0.2l0,0l0.2,0.2c0.1,0.1,0.2,0.3,0.2,0.3c0,0,0,0,0.1,0c0,0,0.1,0,0.1,0h0.1l0,0
			l0.2,0.1l0.2,0.1l0,0v0.1c0,0,0,0.1,0.1,0.1c0,0,0.2,0,0.3,0h0.2l0,0H76c0.3,0,0.5,0,0.6,0c0,0,0.5,0,1.1,0h1.1l0,0h0.2
			c0.1,0,0.1,0.1,0.1,0.2c-0.1,0.1-0.1,0.3-0.1,0.3v0.1l0,0l-0.1,0.2l-0.1,0.2l0,0l-0.3,0.4c-0.2,0.2-0.3,0.4-0.4,0.4
			c0,0-0.1,0.1-0.1,0.1l-0.1,0.1l0,0h-0.1c0,0-0.1,0-0.1,0.1v0.1l0,0h-0.1c0,0-0.1,0-0.1,0.1v0.1l0,0l-0.5,0.3
			c-0.3,0.2-0.5,0.4-0.6,0.4l-0.2,0.1l0,0h-0.1c-0.1,0-0.1,0-0.1,0.1l0,0.1l0,0h-0.1c-0.1,0-0.5,0.1-0.9,0.3
			c-0.4,0.1-1.1,0.3-1.4,0.3s-0.8,0-1,0H72.2"/>
		<path class="st2" d="M172.6,157.1l-0.2-0.1l-0.2-0.1l0,0l-0.5-0.4l-0.5-0.4l0,0l-0.2-0.1l-0.2-0.1l0,0v-0.1c0-0.1-0.1-0.2-0.2-0.2
			c-0.1-0.1-0.2-0.1-0.3-0.1h-0.1l0,0l-0.5-0.4l-0.5-0.4l0,0l-0.2-0.1l-0.2-0.1l0,0v-0.1c0-0.1-0.1-0.2-0.2-0.2
			c-0.1-0.1-0.2-0.1-0.3-0.1h-0.1l0,0l-0.2-0.1l-0.2-0.1l0,0l-0.3-0.2l-0.3-0.2l0,0l-0.2-0.1l-0.2-0.1l0,0l-0.3-0.2l-0.3-0.2l0,0
			l-0.2-0.1l-0.2-0.1l0,0l-0.3-0.2l-0.3-0.2l0,0l-0.2-0.1l-0.2-0.1l0,0l-0.3-0.2l-0.3-0.2l0,0l-0.2-0.1l-0.2-0.1l0,0l-0.5-0.4
			l-0.5-0.4l0,0l-0.2-0.1l-0.2-0.1l0,0l-0.3-0.2l-0.3-0.2l0,0l-0.2-0.1l-0.2-0.1l0,0l-0.3-0.2l-0.3-0.2l0,0l-0.2-0.1l-0.2-0.1l0,0
			l-0.3-0.2l-0.3-0.2l0,0l-0.2-0.1l-0.2-0.1l0,0l-0.3-0.2l-0.3-0.2l0,0l-0.2-0.1l-0.2-0.1l0,0l-0.5-0.4l-0.5-0.4l0,0l-0.2-0.1
			l-0.2-0.1l0,0l-0.3-0.2l-0.3-0.2l0,0l-0.2-0.1l-0.2-0.1l0,0v-0.1c0,0,0-0.1-0.1-0.1h-0.1l0,0l-0.2-0.1l-0.2-0.1l0,0l-0.2-0.1
			l-0.2-0.1l0,0l-0.3-0.2l-0.3-0.2l0,0V144c0,0-0.2-0.2-0.4-0.3c-0.2-0.1-0.6-0.2-0.7-0.2h-0.3l0,0h-0.6c-0.4,0-0.7,0-0.7,0
			c0,0-0.4,0-0.9,0h-0.8h-0.1v-0.3c0-0.2,0-0.3,0-0.4c0,0,0-0.4,0-0.9v-0.8l0,0v-0.1c0,0,0-0.2,0-0.3c0-0.1,0.1-0.2,0.4-0.2h0.4l0,0
			h0.2c0.1,0,0.2,0,0.3,0c0,0,0.1,0,0.2,0h0.1l0,0h0.1c0,0,0.1,0,0.1,0c0,0,0.2,0,0.3,0h0.2l0,0h0.5h0.5l0,0h0.1c0,0,0.1,0,0.1,0
			c0,0,0.2,0,0.3,0h0.2l0,0h0.2c0.1,0,0.2,0,0.3,0c0,0,0.1,0,0.2,0h0.1h0.1h0.1c0,0,0.1,0,0.1,0h0.1h0.1h0.2c0.1,0,0.2,0,0.3,0
			c0,0,0.1,0,0.2,0h0.1h0.1h0.1h0.6c0.3,0,0.6,0,0.6,0c0,0,0.5,0,1,0h0.9l0,0h0.5c0.3,0,0.5,0,0.6,0h0.1l0,0h0.2c0.1,0,0.2,0,0.3,0
			c0,0,0.1,0,0.2,0h0.1h0.1h0.1c0,0,0.1,0,0.1,0h0.1h0.1h0.2c0.1,0,0.2,0,0.3,0c0,0,0.1,0,0.2,0h0.1l0,0h0.2c0.1,0,0.2,0,0.3,0
			c0,0,0.5,0,1.1,0h1l0,0h0.2c0.1,0,0.2,0,0.3,0c0,0,0.1,0,0.2,0h0.1l0,0h0.5c0.3,0,0.5,0,0.6,0h0.1l0,0h0.2c0.1,0,0.2,0,0.3,0
			c0,0,0.1,0,0.2,0h0.1l0,0h0.6h0.6l0,0h1.1h1.1l0,0h0.6h0.6l0,0h0.5h0.5h0.1h0.1h0.2c0.1,0,0.2,0,0.3,0c0,0,0.1,0,0.2,0h0.1l0,0
			h0.2c0.1,0,0.2,0,0.3,0c0,0,0.1,0,0.2,0h0.1l0,0h0.2c0.1,0,0.2,0,0.3,0c0,0,0.5,0,1.1,0h1h0.1h0.1c0,0,0.1,0,0.1,0h0.1h0.1h0.8
			c0.4,0,0.8,0,0.9,0c0,0,0.4,0,0.7,0h0.6l0,0h0.5h0.5l0,0h0.1c0,0,0.1,0,0.1,0c0,0,0.2,0,0.3,0h0.2l0,0h2.9c1.6,0,3,0,3,0
			c0,0,0.7,0,1.4,0h1.4h0.1h0.1h0.1c0,0,0.4,0,0.7,0h0.6l0,0h0.2c0.1,0,0.2,0,0.3,0c0,0,0.1,0,0.2,0h0.1l0,0v0.2c0,0.1,0,0.2,0,0.3
			c0,0,0,0.5,0,1.1v1v0.1v0.1c0,0,0,0.1-0.1,0.1h-0.1H195h-0.6c-0.4,0-0.7,0-0.7,0c0,0-0.4,0-0.8,0h-0.7l0,0h-0.3
			c-0.2,0-0.5,0.1-0.7,0.2c-0.2,0.1-0.4,0.2-0.4,0.3v0.1l0,0h-0.1c0,0-0.1,0-0.1,0.1v0.1l0,0l-0.3,0.2l-0.3,0.2l0,0l-0.3,0.2
			l-0.3,0.2l0,0h-0.1c0,0-0.1,0-0.1,0.1v0.1l0,0l-0.3,0.2l-0.3,0.2l0,0l-0.3,0.2l-0.3,0.2l0,0h-0.1c0,0-0.1,0-0.1,0.1v0.1l0,0h-0.1
			c-0.1,0-0.2,0-0.3,0.1c-0.1,0.1-0.2,0.2-0.2,0.2v0.1l0,0l-0.3,0.2l-0.3,0.2l0,0l-0.4,0.3l-0.4,0.3l0,0l-0.3,0.2l-0.3,0.2l0,0h-0.1
			c0,0-0.1,0-0.1,0.1v0.1l0,0h-0.1c-0.1,0-0.2,0-0.3,0.1c-0.1,0.1-0.2,0.2-0.2,0.2v0.1l0,0h-0.1c-0.1,0-0.3,0.2-0.6,0.4
			c-0.3,0.2-0.5,0.4-0.5,0.5l-0.1,0.1l0,0l-0.3,0.2l-0.3,0.2l0,0l-0.3,0.2l-0.3,0.2l0,0h-0.1c0,0-0.1,0-0.1,0.1v0.1l0,0l-0.3,0.2
			l-0.3,0.2l0,0l-0.3,0.2l-0.3,0.2l0,0h-0.1c0,0-0.1,0-0.1,0.1v0.1l0,0l-0.3,0.2l-0.3,0.2l0,0h-0.1c-0.1,0-0.2,0.1-0.4,0.2
			c-0.1,0.1-0.2,0.2-0.2,0.3v0.1l0,0l-0.3,0.2l-0.3,0.2l0,0l-0.3,0.2l-0.3,0.2l0,0h-0.1c0,0-0.1,0-0.1,0.1v0.1l0,0l-0.3,0.2
			l-0.3,0.2l0,0l-0.3,0.2l-0.3,0.2l0,0h-0.1c0,0-0.1,0-0.1,0.1v0.1l0,0l-0.3,0.2l-0.3,0.2l0,0l-0.3,0.2l-0.3,0.2l0,0l-0.4,0.3
			l-0.4,0.3l0,0l-0.3,0.2l-0.3,0.2l0,0l-0.4,0.3l-0.4,0.3l0,0h-0.1c-0.1,0-0.2,0.1-0.3,0.2c-0.2,0.2-0.3,0.2-0.5,0
			c-0.2-0.1-0.3-0.2-0.4-0.2H172.6"/>
		<path class="st2" d="M75.5,156.9h-0.6c-0.4,0-0.7,0-0.7,0c0,0-0.6,0-1.2,0h-1.1l0,0h-0.2c-0.1,0-0.3,0-0.5,0
			c-0.2,0-0.6-0.1-1.1-0.3l-0.8-0.3l0,0l-0.2-0.1l-0.2-0.1l0,0V156c0,0,0-0.1,0-0.1c0,0-0.2-0.2-0.5-0.4l-0.5-0.4l0,0V155
			c0,0,0-0.1-0.1-0.1h-0.1l0,0l-0.1-0.2l-0.1-0.2l0,0l-0.2-0.4l-0.2-0.4l0,0l-0.1-0.1l-0.1-0.1l0,0l-0.1-0.4l-0.1-0.4l0,0l-0.2-0.6
			l-0.2-0.6l0,0l-0.1-0.5l-0.1-0.5l0,0l-0.1-0.6l-0.1-0.6l0,0l-0.1-0.9l-0.1-0.9l0,0v-0.3c0-0.1,0-0.7,0-1.3
			c-0.1-0.8-0.1-1.1-0.4-1.4l-0.3-0.3l0,0v0c0,0-0.1-0.1-0.2-0.2c-0.1-0.1-0.3-0.2-0.4-0.2h-0.2l0,0v-0.1c0,0-0.1-0.1-0.2-0.1
			c-0.2-0.1-0.2-0.3-0.2-1v-0.9h2.5h2.5l0,0h1.1h1.1h0.1h0.1h1.1h1.1l0,0l0.1,0c0.1,0,0.7,0,1.4,0.1l1.3,0.1l0,0v1.7v1.7l0,0v0.5
			c0,0.3,0,0.5,0,0.6c0,0,0,0.4,0,0.7v0.6l0,0v0.5v0.5l0,0v0.6v0.6l0,0v2.2c0,1.2,0,2.2,0,2.3c0,0,0,0.5,0,1.1v1.1l0,0v0.1
			c0,0.1,0,0.1-0.1,0.2l-0.1,0.1h-0.1L75.5,156.9"/>
		<path class="st2" d="M121.5,147.4h-0.4c-0.2,0-0.7,0-1.1-0.1c-0.4,0-1.2-0.2-1.9-0.4c-0.6-0.2-1.2-0.3-1.3-0.3h-0.1l0,0l0-0.1
			c0,0-0.4-0.2-0.8-0.4c-0.4-0.2-0.8-0.3-0.9-0.3H115l0,0l-0.7-0.4l-0.7-0.4l0,0l-0.1-0.1c0,0-0.1-0.1-0.1-0.1h-0.1l0,0l-0.4-0.2
			l-0.4-0.2l0,0l-0.1-0.1c0,0-0.1-0.1-0.1-0.1h-0.1l0,0v-0.1c0,0-0.1-0.1-0.3-0.2c-0.2-0.1-0.3-0.4-0.4-1.1l-0.1-1l0,0l-0.1-1.3
			l-0.1-1.3l0,0l-0.1-1.4l-0.1-1.4l0,0l-0.1-1.3l-0.1-1.3l0,0l-0.1-1.3l-0.1-1.3l0,0v-0.1c0-0.1,0-0.4,0-0.8l0-0.7l0.5-0.1l0.5-0.1
			l0,0l1-0.1l1-0.1l0,0h0.1c0,0,0.1,0,0.1,0.1c0,0,0.2,0.1,0.4,0.1c0.2,0,0.4,0,0.4-0.1v-0.1l0,0h0.5h0.5l0-0.1l0.1-0.1l0.2,0h2.2
			h2.2l0-0.1l0.1-0.1l0.2,0l0.9,0c0.5,0,1,0,1.1,0c0.1,0,0.3,0,0.5,0h0.4l0,0l0.7,0.1c0.4,0,0.7,0.1,0.8,0.1c0.1,0,0.8,0,1.6,0h1.5
			l0.2,0l0.1,0.1l0,0.1l1.4,0.1c0.8,0,1.7,0.1,2,0.1l0.6,0l0,0v0.1c0,0,0.2,0.1,0.5,0.1h0.5l-0.1,1.2c-0.1,0.6-0.1,1.3-0.1,1.4
			l0,0.2l0,0l-0.1,1.3l-0.1,1.3l0,0l-0.3,2.6l-0.3,2.6l0,0l-0.1,1.3l-0.1,1.3l0,0l-0.2,0.6c-0.1,0.3-0.3,0.6-0.4,0.7
			c-0.1,0-0.3,0.1-0.3,0.2l-0.1,0.1l0,0h-0.1c-0.1,0-0.1,0-0.1,0.1l0,0.1l0,0L130,145l-0.4,0.2l0,0h-0.1c-0.1,0-0.1,0-0.1,0.1l0,0.1
			l0,0l-0.8,0.4l-0.8,0.4l0,0h-0.1c-0.1,0-0.4,0.1-0.7,0.2c-0.3,0.1-0.6,0.2-0.6,0.3l0,0.1l0,0h-0.2c-0.1,0-0.7,0.1-1.2,0.3
			c-0.6,0.1-1.4,0.3-1.8,0.4c-0.4,0-0.9,0.1-1.1,0.1h-0.4H121.5L121.5,147.4"/>
		<path class="st2" d="M57.2,143.5v-0.6c0-0.4,0-0.7,0-0.7c0,0,0-0.1,0-0.2v-0.1l0,0v-0.1c0,0,0.4-0.1,1,0s1,0,1.1,0.1l0.1,0l0,0
			v0.2c0,0.1,0,0.2,0,0.3c0,0,0,0.1,0,0.2v0.1l0,0v0.4c0,0.2-0.1,0.4-0.1,0.4c-0.1,0-0.2,0-0.2,0h-0.1l0,0h-0.6c-0.4,0-0.7,0-0.7,0
			c0,0-0.1,0-0.2,0H57.2"/>
		<path class="st2" d="M106.7,139.5L106.7,139.5c0-0.1,0-0.2,0-0.2c0,0-0.1-0.1-0.2-0.2l-0.2-0.1l0,0v-0.1c0,0,0-0.1,0-0.1
			s-0.1-0.1-0.2-0.2l-0.2-0.2l0,0v-0.1c0,0,0-0.1,0-0.1c0,0-0.2-0.3-0.4-0.6l-0.4-0.6l0,0l-0.1-0.1l-0.1-0.1l0,0l-0.4-0.6l-0.4-0.6
			l0,0l-0.2-0.6l-0.2-0.6l0,0l-0.1-0.4l-0.1-0.4l0,0l-0.1-0.2l-0.1-0.2l0,0l-0.2-0.6l-0.2-0.6l0,0l-0.2-0.9l-0.2-0.9l0,0v0
			c0,0,0-0.1,0.1-0.2c0-0.1,0-0.2-0.1-0.3l-0.1-0.1l0,0v-0.1c0-0.1,0-0.1,0-0.2c0,0,0.3,0,0.7,0l0.7,0.1l0,0l1.1,0.3
			c0.6,0.2,1.1,0.3,1.2,0.4c0,0,0.1,0.2,0.1,0.4c0,0.2,0,0.5,0,0.6c0,0.1,0.1,0.3,0.1,0.3h0.1l0,0l0.1,1.4l0.1,1.4l0,0l0.1,1.3
			l0.1,1.3l0,0l0,0.7c0,0.4,0,0.8,0,1c0,0.2,0.1,0.6,0.1,1c0.1,0.4,0.1,0.6,0,0.5C106.9,139.6,106.8,139.5,106.7,139.5L106.7,139.5"
			/>
		<path class="st2" d="M136.2,137.5L136.2,137.5c0.1-0.1,0.2-0.7,0.2-1.3l0.1-1.2l0,0l0.1-1.3l0.1-1.3l0,0l0.1-1.3l0.1-1.3l0,0
			l1.5-0.4l1.5-0.4l0,0h0.1c0.1,0,0.2,0,0.3,0.1c0.1,0,0.2,0,0.2-0.1l0.1-0.1l0,0l0.1,0.1l0.1,0.1l0,0h-0.1c0,0-0.1,0-0.1,0.1
			c0,0,0,0.2,0,0.3v0.2l0,0h-0.1c0,0-0.1,0-0.1,0.1c0,0,0,0.2,0,0.3v0.2l0,0l-0.2,0.9l-0.2,0.9l0,0l-0.1,0.2l-0.1,0.2l0,0l-0.1,0.4
			l-0.1,0.4l0,0l-0.1,0.2l-0.1,0.2l0,0l-0.1,0.4l-0.1,0.4l0,0l-0.1,0.4l-0.1,0.4l0,0l-0.1,0c0,0-0.1,0.1-0.1,0.1c0,0,0,0.1-0.1,0.2
			l-0.1,0.2l0,0l-0.1,0.1l-0.1,0.1l0,0l-0.3,0.5l-0.3,0.5l0,0l-0.1,0.1l-0.1,0.1l0,0l-0.1,0.1l-0.1,0.1l0,0l-0.1,0.2l-0.1,0.2l0,0
			l-0.4,0.4c-0.2,0.2-0.4,0.4-0.4,0.4s0,0.1,0,0.1v0.1l0,0h-0.1c0,0-0.1,0-0.1,0.1v0.1l0,0h-0.1c0,0-0.1,0.1-0.2,0.2
			c-0.1,0.2-0.1,0.2-0.2,0c0-0.1,0-0.6,0-1.1L136.2,137.5"/>
		<path class="st2" d="M98,83.6L98,83.6c0.1-0.1,0.2-0.1,0.3-0.1c0,0,0.1,0,0.1-0.1l0.1-0.1l0,0l0.2-0.1l0.2-0.1l0,0h0
			c0,0,0.3,0,0.5-0.1c0.3,0,0.5-0.1,0.5-0.2l0.1-0.1l0,0l0.4-0.1l0.4-0.1l0,0l0.6-0.2L102,82l0,0l0.2-0.1l0.2-0.1l0,0l0.4-0.1
			l0.4-0.1l0,0l1.1-0.3l1.1-0.3l0,0l0.8-0.2l0.8-0.2l0,0l0.8-0.2l0.8-0.2l0,0l0.7-0.1l0.7-0.1l0,0l0.7-0.1l0.7-0.1l0,0l0.9-0.1
			l0.9-0.1l0,0l1-0.1l1-0.1l0,0l1.6-0.1l1.6-0.1l0,0h2.2c1.2,0,2.2,0,2.3,0c0,0,0.5,0,1.1,0h1.1l0,0l1.6,0.1l1.6,0.1l0,0l0.9,0.1
			l0.9,0.1l0,0l0.3,0.1c0.2,0,1.4,0.3,2.8,0.6c1.4,0.3,2.5,0.5,2.5,0.5h0.1l0,0l1.9,0.5l1.9,0.5l0,0l0.7,0.2l0.7,0.2l0,0l0.8,0.3
			l0.8,0.3l0,0l0.6,0.3c0.3,0.2,0.7,0.3,0.8,0.3h0.2l0,0l0.5,0.2c0.3,0.1,0.6,0.3,0.6,0.3c0,0,0,0.1,0,0.1v0.1h0.1v0.1
			c0,0,0,0.1,0,0.1V84h-0.1v0.2v0.2l0.1,0v0.1l-0.1,0v0.2V85l0.1,0v0.1l0,0.1l0,0l0.1,0.1v0.2v0.2l0,0h-0.1c0,0-0.1,0.1-0.1,0.2
			c0,0.1,0,0.2,0.1,0.2h0.1l0,0l0,0.1h-0.1v0.5v0.5h0.1v0.1h-0.1l0,0.1c0,0.1,0,0.3,0.1,0.5l0.1,0.4h-0.1l0,0.1l0,0.1l0,0l0.1,0.1
			v1.4c0,0.7,0,1.4,0,1.4c0,0,0,1.3,0,2.9v2.8l-0.1,0.1l0,0l0.1,0.1v0.2v0.2l0,0l-0.1,0.2l-0.1,0.2l0.1,0v0.1l-0.1,0v0.2v0.2l0.1,0
			v0.1l0,0.1l0,0l0.1,0.1v0.2c0,0.1,0,0.2,0,0.3c0,0,0,0.1,0,0.2v0.1l0,0v0.1c0,0.1,0,0.1-0.1,0.1s-0.3,0-0.7-0.2
			c-0.3-0.1-0.7-0.2-0.8-0.2h-0.2l0,0l-0.1-0.1c-0.1,0-0.2-0.1-0.2-0.1h-0.1l0,0v-0.1c0,0-0.7-0.3-1.5-0.6c-0.8-0.3-3-0.9-4.7-1.3
			c-1.7-0.4-3.5-0.8-3.9-0.9l-0.7-0.1l0,0l-0.9-0.1l-0.9-0.1l0,0l0-0.1c0,0-0.9-0.2-1.9-0.3c-1-0.1-2.2-0.2-2.5-0.2h-0.7l0,0
			l-1.5-0.1c-0.8,0-1.6-0.1-1.6-0.1l-0.1,0l-0.2,0l-0.1-0.1l0-0.1h-0.1c-0.1,0-0.2,0-0.2,0.1l-0.1,0.1l0,0l-0.1,0
			c-0.1,0-0.9,0-1.9,0.1l-1.7,0.1l0,0h-0.6c-0.3,0-1.4,0.1-2.5,0.2c-1,0.1-1.9,0.3-1.9,0.3l0,0.1l0,0l-0.1,0c-0.1,0-0.3,0-0.5,0.1
			l-0.4,0.1l0,0l-0.1,0c-0.1,0-0.2,0-0.4,0.1l-0.2,0.1l0,0l-0.8,0.1l-0.8,0.1l0,0h-0.2c-0.1,0-1.6,0.3-3.3,0.8
			c-1.7,0.4-4.2,1.1-5.4,1.6c-1.3,0.4-2.4,0.8-2.4,0.8h0l0,0v-0.6c0-0.4,0-0.7,0-0.7c0,0,0-3.5,0-7.6V83.6"/>
	</g>
	<g>
		<path class="st3" d="M179.3,189v0.5c0,0.3,0,0.5,0,0.6v0.1l0,0l-0.1-0.5c0-0.3-0.1-0.5-0.1-0.6l0-0.1"/>
		<path class="st3" d="M165.9,188.3L165.9,188.3c0.2,0,0.7,0,1.2,0.1l1,0.1l0,0h-0.3c-0.2,0-0.3,0-0.4,0c0,0-0.4,0-0.9,0h-0.8"/>
		<path class="st3" d="M168.3,188.5L168.3,188.5c0-0.1,0.5-0.1,1.1-0.1c0.6,0,1.1,0,1.1,0.1v0.1h-0.1h-0.6c-0.4,0-0.7,0-0.7,0
			c0,0-0.2,0-0.4,0H168.3"/>
		<path class="st3" d="M79.9,177.6v0.7c0,0.4,0,0.7,0,0.8c0,0,0,0.4,0,0.7v0.6h-0.1v-0.6c0-0.4,0-0.7,0-0.7c0,0,0-0.4,0-0.8v-0.7"/>
		<path class="st3" d="M79.9,171.9L79.9,171.9c0,0.1,0,0.4,0,0.8v0.6h-0.1v-0.2c0-0.1,0-0.3,0-0.3c0-0.1,0-0.3,0.1-0.5L79.9,171.9"
			/>
		<path class="st3" d="M79.7,170.1L79.7,170.1l0.2,0.1v0.5c0,0.3,0,0.5,0,0.6c0,0,0,0.2,0,0.3v0.2l0,0l-0.1-0.8
			C79.8,170.6,79.7,170.2,79.7,170.1L79.7,170.1"/>
		<path class="st3" d="M71.8,157.1L71.8,157.1c0-0.1,0.8-0.1,1.9-0.1c1,0,1.9,0,1.9,0.1v0.1l0,0h-0.6h-0.6l0,0h-0.6
			c-0.4,0-0.7,0-0.7,0c0,0-0.2,0-0.3,0h-0.2l0,0h-0.1c0,0-0.1,0-0.1,0H72h-0.1H71.8"/>
		<path class="st3" d="M145.2,87.4v0.5v0.5l0,0h-0.1c0,0-0.1-0.2-0.1-0.5C145.1,87.7,145.1,87.4,145.2,87.4L145.2,87.4"/>
		<path class="st3" d="M145.2,86.3v0.5v0.5l0,0h-0.1c0,0-0.1-0.2-0.1-0.5C145.1,86.5,145.1,86.3,145.2,86.3L145.2,86.3"/>
	</g>
	<g>
		<path class="st4" d="M64.2,211.1h0.5h0.5v0.1h-0.5h-0.5"/>
		<path class="st4" d="M65.3,211.1H71c3.1,0,5.7,0,5.7,0c0,0,1.3,0,2.9,0h2.8v0.1h-2.8c-1.5,0-2.8,0-2.9,0c0,0-2.6,0-5.7,0h-5.6"/>
		<path class="st4" d="M82.5,211.1H83h0.5v0.1H83h-0.5"/>
		<path class="st4" d="M75.3,180.6H76c0.4,0,0.7,0,0.8,0c0,0,0.7,0,1.4,0h1.4v0.1h-1.4c-0.8,0-1.4,0-1.4,0c0,0-0.4,0-0.8,0h-0.7"/>
		<path class="st4" d="M75.3,169.9L75.3,169.9c0.2,0,1.2,0,2.3,0.1l2.1,0.1l0,0h-2.2h-2.2"/>
	</g>
	<g>
		<path class="st5" d="M109.3,184.9v2.2c0,1.2,0,2.2,0,2.3c0,0,0,0.8,0,1.7v1.6h-0.1v-1.6c0-0.9,0-1.7,0-1.7c0,0,0-1.1,0-2.3v-2.2"
			/>
		<path class="st5" d="M109.3,182.9v0.5v0.5h-0.1v-0.5v-0.5"/>
	</g>
	<g>
		<path class="st6" d="M123.5,212.3v-0.1V212v-0.2c0-0.1,0-0.3,0-0.3c0,0,0-0.1,0-0.1v-0.1v-0.1V211v-1.5c0-0.8,0-1.5,0-1.6
			c0,0,0-2.6,0-5.7v-5.6l0,0l0.1,3.7c0,2.1,0.1,3.8,0.1,3.9c0,0.1,0,2,0,4.3v4.2h-0.1v-0.1c0,0,0-0.1,0-0.1v-0.1"/>
		<path class="st6" d="M167.3,199.9L167.3,199.9c0.1,0,0.2,0,0.2,0h0.1v-0.1l0.1,0l0.2,0l0.2,0l0,0l0.1,0l0,0.2h-0.1
			c-0.1,0-0.2,0-0.2,0c0,0-0.2,0-0.3,0h-0.2"/>
		<path class="st6" d="M95.6,186.6L95.6,186.6l0.1,0.1v0.1c0,0,0,0.1,0,0.1c0,0,0,1.5,0,3.2v3.1h-0.1v-1.1c0-0.6,0-1.1,0-1.1
			c0,0,0-1.1,0-2.3L95.6,186.6"/>
		<path class="st6" d="M109.3,181.2v0.3v0.3l0,0v0.1c0,0,0,0.1,0,0.1v0.1h-0.1v-0.1c0-0.1,0-0.2,0-0.2c0,0,0-0.2,0-0.3v-0.2"/>
		<path class="st6" d="M123.5,179.5v-5.3c0-3,0-5.4,0-5.4c0,0,0-0.7,0-1.5v-1.4l0,0l0.1,6.2c0,3.4,0.1,6.2,0.1,6.3
			c0,0.1,0,0.4,0,0.8v0.6h-0.1h0"/>
		<path class="st6" d="M87.3,155.5v-0.2c0-0.1,0-0.3,0-0.3c0,0,0-0.1,0-0.1v-0.1l0,0h0.1c0,0,0.1,0.4,0.1,1c0,0.5,0,1-0.1,1h-0.1
			l0,0v-0.6V155.5"/>
		<path class="st6" d="M87.3,154.6L87.3,154.6c0-0.1,0-0.2,0-0.2v-0.1v-0.1v-0.1c0,0,0-0.3,0-0.6v-0.5l0,0h0.1c0,0,0.1,0.3,0.1,0.8
			C87.4,154.3,87.4,154.6,87.3,154.6L87.3,154.6"/>
		<path class="st6" d="M87.3,152.8l0-0.1l0-0.2v-0.1v-0.6c0-0.4,0-0.7,0-0.7c0,0,0-0.1,0-0.2v-0.1l0,0l0.1,0.4
			c0,0.2,0.1,0.4,0.1,0.5s0,0.4,0,0.8v0.6L87.3,152.8L87.3,152.8"/>
	</g>
	<g>
		<path class="st7" d="M123.5,194.9v-0.2c0-0.1,0-0.3,0-0.3c0,0,0-0.1,0-0.1v-0.1l0,0v-0.2c0-0.1,0-0.3,0-0.3c0,0,0-0.1,0-0.1v-0.1
			l0,0v-0.6c0-0.4,0-0.7,0-0.7c0,0,0-1.7,0-3.8v-3.7l0,0h0.1c0,0,0.1,2.4,0.1,5.4c0,3,0,5.4-0.1,5.4h-0.1l0,0v-0.3V194.9"/>
		<path class="st7" d="M95.6,186.5l-0.1-0.1l0-0.2v-0.3v-0.3l0,0l0-0.1l0.1-0.1v-2.2v-2.2h0.1v1.6c0,0.9,0,1.6,0,1.6
			c0,0,0,0.6,0,1.3v1.2h-0.1h0"/>
		<path class="st7" d="M123.6,183.7c0-0.3,0-0.4,0.1-0.2c0,0.1,0,0.3,0,0.5C123.6,184.1,123.5,184,123.6,183.7"/>
		<path class="st7" d="M123.5,180.7v-0.1c0-0.1,0-0.2,0-0.2c0,0,0-0.2,0-0.3v-0.2l0,0v-0.1c0,0,0-0.1,0-0.1v-0.1h0h0l0.1,0.1v0.5
			c0,0.3,0,0.5,0,0.6v0.1h-0.1h-0.1"/>
		<path class="st7" d="M171.5,173.8v0.1v0.1v0.1c0,0,0,0.1,0,0.1v0.1v0.1v0.1l0,0h-0.1c0,0-0.1-0.2-0.1-0.4
			C171.3,173.9,171.4,173.8,171.5,173.8L171.5,173.8"/>
		<path class="st7" d="M171.5,166.9v0.1l0,0.2v0.1l0,0.2v0.1l0,0.2v0.1l0,0.2v0.1c0,0,0,0.1,0,0.1v0.1l0,0.2v0.1l0,0.2l0,0.2l0,0
			l0,0.1l0,0.1v0.1c0,0,0,0.1,0,0.1c0,0,0,0.2,0,0.3v0.2l0,0.1v0.1l0,0.1v0.2c0,0.1,0,0.2,0,0.3c0,0,0,0.1,0,0.2v0.1h0l0,0.1l0,0.2
			v0.1v0.1v0.1c0,0,0,0.1,0,0.1v0.1v0.1l0,0.2v0.1l0,0.2v0.1v0.1v0.3v0.3l0,0h-0.1c0,0-0.1-1.5-0.1-3.3
			C171.3,168.4,171.4,166.9,171.5,166.9L171.5,166.9"/>
		<path class="st7" d="M171.4,165.8L171.4,165.8l0.1,0.1v0.1v0.3v0.3l0,0l-0.1-0.3C171.3,166.1,171.3,165.9,171.4,165.8L171.4,165.8
			"/>
	</g>
	<g>
		<path class="st8" d="M123.5,180.9L123.5,180.9h0.1v0.1c0,0.1,0,0.5-0.1,1l-0.1,0.9l0,0v-0.6c0-0.4,0-0.7,0-0.7c0,0,0-0.2,0-0.3
			V181"/>
		<path class="st8" d="M171.5,176.2v0.8c0,0.4,0,0.8,0,0.9c0,0,0,0.4,0,0.7v0.6l0,0h-0.1c0,0-0.1-0.7-0.1-1.5
			C171.3,176.9,171.4,176.2,171.5,176.2L171.5,176.2"/>
		<path class="st8" d="M171.3,165.6l0.1-0.4l0.1-0.4l0,0v0.5v0.5l0,0l0,0"/>
		<path class="st8" d="M171.5,162.5v0.5v0.5l0,0h-0.1c0,0-0.1-0.2-0.1-0.5C171.3,162.7,171.4,162.5,171.5,162.5L171.5,162.5"/>
		<path class="st8" d="M57.2,143.5h0.1c0.1,0,0.2,0,0.2,0c0,0,0.4,0,0.7,0h0.6v0.1h-0.6c-0.4,0-0.7,0-0.8,0
			C57.5,143.7,57.4,143.6,57.2,143.5L57.2,143.5"/>
		<path class="st8" d="M156.8,136.7L156.8,136.7c0-0.1,0.2-0.1,0.5-0.1c0.3,0,0.5,0,0.5,0.1v0.1l0,0h-0.5H156.8"/>
		<path class="st8" d="M159.6,136.7L159.6,136.7c0-0.1,0.3-0.1,0.8-0.1c0.4,0,0.8,0,0.8,0.1v0.1l0,0H161c-0.1,0-0.3,0-0.3,0
			c0,0-0.3,0-0.6,0H159.6"/>
		<path class="st8" d="M161.3,136.7L161.3,136.7c0-0.1,0.3-0.1,0.8-0.1c0.4,0,0.8,0,0.8,0.1v0.1l0,0h-0.2c-0.1,0-0.3,0-0.3,0
			c0,0-0.3,0-0.6,0H161.3"/>
		<path class="st8" d="M163.1,136.7L163.1,136.7c0-0.1,0.7-0.1,1.6-0.1c0.9,0,1.6,0,1.6,0.1v0.1l0,0h-1.1c-0.6,0-1.1,0-1.1,0
			c0,0-0.3,0-0.6,0H163.1"/>
		<path class="st8" d="M166.5,136.7L166.5,136.7c0-0.1,0.7-0.1,1.6-0.1c0.9,0,1.6,0,1.6,0.1v0.1l0,0h-1.1c-0.6,0-1.1,0-1.1,0
			c0,0-0.3,0-0.6,0H166.5"/>
		<path class="st8" d="M169.9,136.7L169.9,136.7c0-0.1,0.7-0.1,1.6-0.1c0.9,0,1.6,0,1.6,0.1v0.1l0,0h-1.1c-0.6,0-1.1,0-1.1,0
			c0,0-0.3,0-0.6,0H169.9"/>
		<path class="st8" d="M173.3,136.7L173.3,136.7c0-0.1,0.7-0.1,1.6-0.1c0.9,0,1.6,0,1.6,0.1v0.1l0,0h-1.1c-0.6,0-1.1,0-1.1,0
			c0,0-0.3,0-0.6,0H173.3"/>
		<path class="st8" d="M176.8,136.7L176.8,136.7c0-0.1,0.5-0.1,1.1-0.1c0.6,0,1.1,0,1.1,0.1v0.1l0,0h-1.1H176.8"/>
		<path class="st8" d="M179,136.7L179,136.7c0-0.1,0.3-0.1,0.8-0.1c0.4,0,0.8,0,0.8,0.1v0.1l0,0h-0.2c-0.1,0-0.3,0-0.3,0
			c0,0-0.3,0-0.6,0H179"/>
		<path class="st8" d="M182.5,136.7L182.5,136.7c0-0.1,0.3-0.1,0.8-0.1c0.4,0,0.8,0,0.8,0.1v0.1l0,0h-0.2c-0.1,0-0.3,0-0.3,0
			c0,0-0.3,0-0.6,0H182.5"/>
		<path class="st8" d="M184.7,136.7L184.7,136.7c0-0.1,0.2-0.1,0.5-0.1c0.3,0,0.5,0,0.5,0.1v0.1l0,0h-0.5H184.7"/>
		<path class="st8" d="M185.9,136.7L185.9,136.7c0-0.1,0.3-0.1,0.8-0.1c0.4,0,0.8,0,0.8,0.1v0.1l0,0h-0.2c-0.1,0-0.3,0-0.3,0
			c0,0-0.3,0-0.6,0H185.9"/>
		<path class="st8" d="M189.3,136.7L189.3,136.7c0-0.1,0.2-0.1,0.5-0.1c0.3,0,0.5,0,0.5,0.1v0.1l0,0h-0.5H189.3"/>
		<path class="st8" d="M192.7,136.7L192.7,136.7c0-0.1,0.3-0.1,0.8-0.1c0.4,0,0.8,0,0.8,0.1v0.1l0,0h-0.2c-0.1,0-0.3,0-0.3,0
			c0,0-0.3,0-0.6,0H192.7"/>
		<path class="st8" d="M196.2,136.7L196.2,136.7c0-0.1,0.2-0.1,0.5-0.1c0.3,0,0.5,0,0.5,0.1v0.1l0,0h-0.5H196.2"/>
	</g>
	<g>
		<path class="st9" d="M175.3,162.9L175.3,162.9c0.1,0,0.1,3.7,0.1,8.3s0,8.3-0.1,8.3h-0.1l0,0v-0.6c0-0.4,0-0.7,0-0.7
			c0,0,0-3.5,0-7.6V162.9"/>
		<path class="st9" d="M175.3,161.1L175.3,161.1c0.1,0,0.1,0.4,0.1,0.9s0,0.9-0.1,0.9h-0.1l0,0v-0.6c0-0.4,0-0.7,0-0.7
			c0,0,0-0.1,0-0.2V161.1"/>
		<path class="st9" d="M83.5,150.6v0.8c0,0.4,0,0.8,0,0.9c0,0,0,1.1,0,2.3v2.2l0,0h-0.1c0,0-0.1-1.4-0.1-3.1
			C83.3,152,83.3,150.6,83.5,150.6L83.5,150.6"/>
		<path class="st9" d="M55.5,147.5h1.9c1,0,1.9,0,1.9,0c0,0,0.4,0,0.7,0h0.6l0,0v0.1c0,0-1.2,0.1-2.6,0.1
			C56.6,147.6,55.5,147.6,55.5,147.5L55.5,147.5"/>
		<path class="st9" d="M155.4,140.5h0.2c0.1,0,0.2,0,0.3,0c0,0,0.1,0,0.2,0h0.1v0.1h-0.1c-0.1,0-0.2,0-0.2,0c0,0-0.2,0-0.3,0h-0.2"
			/>
		<path class="st9" d="M156.5,140.5h1.1h1.1v0.1h-1.1h-1.1"/>
		<path class="st9" d="M158.8,140.5h0.2c0.1,0,0.2,0,0.3,0c0,0,0.1,0,0.2,0h0.1v0.1h-0.1c-0.1,0-0.2,0-0.2,0c0,0-0.2,0-0.3,0h-0.2"
			/>
		<path class="st9" d="M162.2,140.5h0.2c0.1,0,0.2,0,0.3,0c0,0,0.1,0,0.2,0h0.1v0.1h-0.1c-0.1,0-0.2,0-0.2,0c0,0-0.2,0-0.3,0h-0.2"
			/>
		<path class="st9" d="M165.6,140.5h0.2c0.1,0,0.2,0,0.3,0c0,0,0.1,0,0.2,0h0.1v0.1h-0.1c-0.1,0-0.2,0-0.2,0c0,0-0.2,0-0.3,0h-0.2"
			/>
		<path class="st9" d="M179.3,140.5h0.8c0.4,0,0.8,0,0.9,0c0,0,0.4,0,0.7,0h0.6l0,0l0,0l-0.1,0.1h-0.6c-0.4,0-0.7,0-0.7,0
			c0,0-0.4,0-0.8,0h-0.7"/>
		<path class="st9" d="M184,140.5h2.9c1.6,0,3,0,3,0c0,0,0.7,0,1.4,0h1.4v0.1h-1.4c-0.8,0-1.4,0-1.4,0c0,0-1.4,0-3,0H184"/>
		<path class="st9" d="M193,140.5L193,140.5c0.1,0,0.4,0,0.8,0h0.6v0.1h-0.6c-0.4,0-0.7,0-0.7,0H193"/>
	</g>
	<g>
		<path class="st10" d="M68.6,215.1h0.2c0.1,0,0.2,0,0.3,0c0,0,0.1,0,0.2,0h0.1l0,0v0.1c0,0-0.2,0.1-0.4,0.1
			C68.8,215.3,68.6,215.2,68.6,215.1L68.6,215.1"/>
		<path class="st10" d="M70.9,215.1h0.5h0.5l0,0v0.1c0,0-0.2,0.1-0.5,0.1C71.1,215.3,70.9,215.2,70.9,215.1L70.9,215.1"/>
		<path class="st10" d="M72,215.1h2.2h2.2l0,0v0.1c0,0-1,0.1-2.2,0.1C73,215.3,72,215.2,72,215.1L72,215.1"/>
		<path class="st10" d="M76.6,215.1h0.5c0.3,0,0.5,0,0.6,0c0,0,0.2,0,0.3,0h0.2l0,0v0.1c0,0-0.4,0.1-0.8,0.1
			C76.9,215.3,76.6,215.2,76.6,215.1L76.6,215.1"/>
		<path class="st10" d="M78.9,215.1h0.2c0.1,0,0.2,0,0.3,0c0,0,0.1,0,0.2,0h0.1l0,0v0.1c0,0-0.2,0.1-0.4,0.1
			C79.1,215.3,78.9,215.2,78.9,215.1L78.9,215.1"/>
		<path class="st10" d="M119.7,180.9v0.2c0,0.1,0,0.2,0,0.3c0,0,0,0.4,0,0.7v0.6l0,0h-0.1c0,0-0.1-0.4-0.1-0.9
			C119.5,181.3,119.6,180.9,119.7,180.9L119.7,180.9"/>
		<path class="st10" d="M150.6,140.5h0.2c0.1,0,0.2,0,0.3,0c0,0,0.1,0,0.2,0h0.1v0.1h-0.1c-0.1,0-0.2,0-0.2,0c0,0-0.2,0-0.3,0h-0.2"
			/>
		<path class="st10" d="M152.2,140.5h0.5h0.5v0.1h-0.5h-0.5"/>
		<path class="st10" d="M153.9,140.5h0.2c0.1,0,0.2,0,0.3,0c0,0,0.1,0,0.2,0h0.1v0.1h-0.1c-0.1,0-0.2,0-0.2,0c0,0-0.2,0-0.3,0h-0.2"
			/>
		<path class="st10" d="M160.8,140.5h0.2c0.1,0,0.2,0,0.3,0c0,0,0.1,0,0.2,0h0.1v0.1h-0.1c-0.1,0-0.2,0-0.2,0c0,0-0.2,0-0.3,0h-0.2"
			/>
		<path class="st10" d="M167.6,140.5h0.2c0.1,0,0.2,0,0.3,0c0,0,0.1,0,0.2,0h0.1v0.1h-0.1c-0.1,0-0.2,0-0.2,0c0,0-0.2,0-0.3,0h-0.2"
			/>
		<path class="st10" d="M169.8,140.5h0.5h0.5v0.1h-0.5h-0.5"/>
		<path class="st10" d="M170.9,140.5h0.5h0.5v0.1h-0.5h-0.5"/>
		<path class="st10" d="M173.2,140.5h0.5h0.5v0.1h-0.5h-0.5"/>
		<path class="st10" d="M174.5,140.5h0.2c0.1,0,0.2,0,0.3,0c0,0,0.1,0,0.2,0h0.1v0.1h-0.1c-0.1,0-0.2,0-0.2,0c0,0-0.2,0-0.3,0h-0.2"
			/>
		<path class="st10" d="M176.2,140.5h0.2c0.1,0,0.2,0,0.3,0c0,0,0.5,0,1.1,0h1v0.1h-1c-0.6,0-1,0-1.1,0c0,0-0.2,0-0.3,0h-0.2"/>
		<path class="st10" d="M182.3,140.5h0.5h0.5v0.1h-0.1c-0.1,0-0.2,0-0.2,0c0,0-0.2,0-0.3,0h-0.2L182.3,140.5L182.3,140.5"/>
	</g>
	<g>
		<path class="st11" d="M65.8,215.1h0.1c0.1,0,0.2,0,0.2,0c0,0,0.4,0,0.7,0h0.6l0,0v0.1c0,0-0.4,0.1-0.9,0.1S65.8,215.2,65.8,215.1
			L65.8,215.1"/>
		<path class="st11" d="M83.7,215.1h0.5h0.5l0,0v0.1c0,0-0.2,0.1-0.5,0.1C84,215.3,83.7,215.2,83.7,215.1L83.7,215.1"/>
		<path class="st11" d="M85.3,215.1h0.6h0.6l0,0v0.1c0,0-0.3,0.1-0.6,0.1C85.6,215.3,85.3,215.2,85.3,215.1L85.3,215.1"/>
		<path class="st11" d="M119.7,211.8v0.2c0,0.1,0,0.2,0,0.3c0,0,0,0.1,0,0.2v0.1l0,0h-0.1c0,0-0.1-0.2-0.1-0.4
			C119.5,212,119.6,211.8,119.7,211.8L119.7,211.8"/>
		<path class="st11" d="M119.7,199.9v0.6v0.6l0,0h-0.1c0,0-0.1-0.3-0.1-0.6C119.5,200.1,119.6,199.9,119.7,199.9L119.7,199.9"/>
		<path class="st11" d="M119.7,198.2v0.5c0,0.3,0,0.5,0,0.6c0,0,0,0.2,0,0.3v0.2l0,0h-0.1c0,0-0.1-0.4-0.1-0.8
			C119.5,198.5,119.6,198.2,119.7,198.2L119.7,198.2"/>
		<path class="st11" d="M119.7,196.4v0.6v0.6l0,0h-0.1c0,0-0.1-0.3-0.1-0.6C119.5,196.7,119.6,196.4,119.7,196.4L119.7,196.4"/>
		<path class="st11" d="M166.5,195.9h0.5h0.5v0.1H167h-0.5"/>
		<path class="st11" d="M168.8,195.9h0.5h0.5v0.1h-0.5h-0.5"/>
		<path class="st11" d="M91.7,192.7v0.5c0,0.3,0,0.5,0,0.6c0,0,0,0.2,0,0.3v0.2l0,0h-0.1c0,0-0.1-0.4-0.1-0.8
			C91.6,193.1,91.6,192.7,91.7,192.7L91.7,192.7"/>
		<path class="st11" d="M119.7,191.9v0.5v0.5l0,0h-0.1c0,0-0.1-0.2-0.1-0.5C119.5,192.1,119.6,191.9,119.7,191.9L119.7,191.9"/>
		<path class="st11" d="M91.7,180.2v3.9c0,2.2,0,4,0,4c0,0,0,1.1,0,2.3v2.2l0,0h-0.1c0,0-0.1-2.8-0.1-6.2
			C91.6,183,91.6,180.2,91.7,180.2L91.7,180.2"/>
		<path class="st11" d="M91.7,178.7v0.6v0.6l0,0h-0.1c0,0-0.1-0.3-0.1-0.6C91.6,179,91.6,178.7,91.7,178.7L91.7,178.7"/>
		<path class="st11" d="M119.7,167.1v0.5v0.5l0,0h-0.1c0,0-0.1-0.2-0.1-0.5C119.5,167.3,119.6,167.1,119.7,167.1L119.7,167.1"/>
		<path class="st11" d="M119.7,165.9v0.5v0.5l0,0h-0.1c0,0-0.1-0.2-0.1-0.5C119.5,166.1,119.6,165.9,119.7,165.9L119.7,165.9"/>
	</g>
	<g>
		<path class="st12" d="M113.1,180L113.1,180c0.1,0,0.1,3.2,0.1,7.1c0,3.9,0,7.1-0.1,7.1h-0.1l0,0v-7.1V180"/>
		<path class="st12" d="M113.1,179L113.1,179c0.1,0,0.1,0.2,0.1,0.4c0,0.2,0,0.4-0.1,0.4h-0.1l0,0v-0.1c0-0.1,0-0.2,0-0.2
			c0,0,0-0.2,0-0.3V179"/>
		<path class="st12" d="M149.8,141.2v0.8c0,0.4,0,0.8,0,0.9c0,0,0,0.2,0,0.4v0.3h-0.1v-0.3c0-0.2,0-0.3,0-0.4c0,0,0-0.4,0-0.9v-0.8"
			/>
		<path class="st12" d="M68.3,141.5h0.5c0.3,0,0.5,0,0.6,0h0.1v0.1h-0.1c0,0-0.3,0-0.6,0h-0.5"/>
		<path class="st12" d="M69.6,141.5h0.2c0.1,0,0.2,0,0.3,0c0,0,0.1,0,0.2,0h0.1v0.1h-0.1c-0.1,0-0.2,0-0.2,0c0,0-0.2,0-0.3,0h-0.2"
			/>
		<path class="st12" d="M70.8,141.5h1.1h1.1v0.1h-1.1h-1.1"/>
		<path class="st12" d="M149.6,134.8h1.1h1.1l0,0v0.1c0,0-0.5,0.1-1.1,0.1C150.1,135,149.6,134.9,149.6,134.8L149.6,134.8"/>
		<path class="st12" d="M156.5,134.8h1.1h1.1l0,0v0.1c0,0-0.5,0.1-1.1,0.1C157,135,156.5,134.9,156.5,134.8L156.5,134.8"/>
		<path class="st12" d="M158.8,134.8h0.2c0.1,0,0.2,0,0.3,0c0,0,0.1,0,0.2,0h0.1l0,0v0.1c0,0-0.2,0.1-0.4,0.1
			C159,135,158.8,134.9,158.8,134.8L158.8,134.8"/>
		<path class="st12" d="M159.9,134.8h0.2c0.1,0,0.2,0,0.3,0c0,0,0.1,0,0.2,0h0.1l0,0v0.1c0,0-0.2,0.1-0.4,0.1
			C160.1,135,159.9,134.9,159.9,134.8L159.9,134.8"/>
		<path class="st12" d="M161.1,134.8h0.5h0.5l0,0v0.1c0,0-0.2,0.1-0.5,0.1C161.3,135,161.1,134.9,161.1,134.8L161.1,134.8"/>
		<path class="st12" d="M162.2,134.8h0.2c0.1,0,0.2,0,0.3,0c0,0,0.1,0,0.2,0h0.1l0,0v0.1c0,0-0.2,0.1-0.4,0.1
			C162.4,135,162.2,134.9,162.2,134.8L162.2,134.8"/>
		<path class="st12" d="M163.3,134.8h0.5h0.5l0,0v0.1c0,0-0.2,0.1-0.5,0.1C163.6,135,163.3,134.9,163.3,134.8L163.3,134.8"/>
		<path class="st12" d="M166.8,134.8h0.2c0.1,0,0.2,0,0.3,0c0,0,0.1,0,0.2,0h0.1l0,0v0.1c0,0-0.2,0.1-0.4,0.1
			C167,135,166.8,134.9,166.8,134.8L166.8,134.8"/>
		<path class="st12" d="M179.3,134.8h0.5h0.5l0,0v0.1c0,0-0.2,0.1-0.5,0.1C179.5,135,179.3,134.9,179.3,134.8L179.3,134.8"/>
		<path class="st12" d="M180.5,134.8h0.5h0.5l0,0v0.1c0,0-0.2,0.1-0.5,0.1C180.7,135,180.5,134.9,180.5,134.8L180.5,134.8"/>
		<path class="st12" d="M182.7,134.8h0.5h0.5l0,0v0.1c0,0-0.2,0.1-0.5,0.1C183,135,182.7,134.9,182.7,134.8L182.7,134.8"/>
		<path class="st12" d="M185,134.8h0.2c0.1,0,0.2,0,0.3,0c0,0,0.1,0,0.2,0h0.1l0,0v0.1c0,0-0.2,0.1-0.4,0.1
			C185.2,135,185,134.9,185,134.8L185,134.8"/>
		<path class="st12" d="M186.2,134.8h0.5h0.5l0,0v0.1c0,0-0.2,0.1-0.5,0.1C186.4,135,186.2,134.9,186.2,134.8L186.2,134.8"/>
		<path class="st12" d="M187.3,134.8h0.3c0.2,0,0.3,0,0.4,0c0,0,0.4,0,0.7,0h0.6l0,0v0.1c0,0-0.5,0.1-1,0.1
			C187.8,135,187.3,134.9,187.3,134.8L187.3,134.8"/>
		<path class="st12" d="M189.6,134.8h0.5h0.5l0,0v0.1c0,0-0.2,0.1-0.5,0.1C189.8,135,189.6,134.9,189.6,134.8L189.6,134.8"/>
		<path class="st12" d="M190.7,134.8h0.5h0.5l0,0v0.1c0,0-0.2,0.1-0.5,0.1C190.9,135,190.7,134.9,190.7,134.8L190.7,134.8"/>
		<path class="st12" d="M191.9,134.8h1.1h1.1l0,0v0.1c0,0-0.5,0.1-1.1,0.1C192.3,135,191.9,134.9,191.9,134.8L191.9,134.8"/>
		<path class="st12" d="M194.2,134.8h0.1c0.1,0,0.2,0,0.2,0c0,0,0.4,0,0.7,0h0.6l0,0v0.1c0,0-0.4,0.1-0.9,0.1
			C194.5,135,194.2,134.9,194.2,134.8L194.2,134.8"/>
	</g>
	<g>
		<path class="st13" d="M153.9,134.8h0.2c0.1,0,0.2,0,0.3,0c0,0,0.1,0,0.2,0h0.1l0,0v0.1c0,0-0.2,0.1-0.4,0.1
			C154.1,135,153.9,134.9,153.9,134.8L153.9,134.8"/>
	</g>
	<g>
		<path class="st14" d="M183.1,201.7v-0.1l0.1-0.1v-0.6c0-0.4,0-0.7,0-0.7V200l0,0v-0.3v-0.3l0,0v-0.2c0-0.1,0-0.2,0.1-0.2
			c0,0,0.1,1,0.1,2.3c0,1.3,0,2.3-0.1,2.3h-0.1l0,0v-0.6c0-0.4,0-0.7,0-0.7c0,0,0-0.1,0-0.2v-0.1"/>
		<path class="st14" d="M75.5,184.6H76c0.3,0,0.5,0,0.6,0c0,0,0.5,0,1.1,0h1.1v0.1h-1.1c-0.6,0-1.1,0-1.1,0c0,0-0.3,0-0.6,0h-0.5"/>
		<path class="st14" d="M75.3,165.9L75.3,165.9c0.1,0,0.2,0,0.2,0c0,0,0.2,0,0.3,0H76l0,0h0.1c0,0,0.1,0,0.1,0h0.1v0.1h-0.5h-0.5"/>
		<path class="st14" d="M76.5,165.9h0.2h0.2l0.1-0.1h0.1l0.1,0.1l0.1,0l0,0.1H77h-0.5"/>
		<path class="st14" d="M77.6,165.9h0.2H78v-0.1l0.1,0l0.2,0h0.1h0.1c0,0,0.1,0,0.1,0c0,0,0.2,0,0.3,0h0.2v0.1H79
			c-0.1,0-0.3,0-0.3,0c0,0-0.3,0-0.6,0h-0.5"/>
	</g>
	<g>
		<path class="st15" d="M183.2,196L183.2,196v-0.2v-0.1l0-0.2v-0.1l0-0.2v-0.1c0,0,0-0.1,0-0.1v-0.1l0,0l0-0.1l0.1-0.1v-0.6
			c0-0.4,0-0.7,0-0.7v-0.1l0,0v-0.1c0,0,0-0.1,0-0.1v-0.1l0,0v-0.3c0-0.2,0-0.3,0-0.4c0,0,0-0.4,0-0.9v-0.8l0,0h0.1
			c0,0,0.1,1.2,0.1,2.8c0,1.5,0,2.8-0.1,2.8h-0.1"/>
	</g>
	<g>
		<path class="st16" d="M165.9,203.1h2.2h2.2v0.1h-2.2h-2.2"/>
		<path class="st16" d="M167.2,192.3h1.1h1.1v0.1h-1.1h-1.1"/>
		<path class="st16" d="M62.5,180.7v0.1v0.1v0.1c0,0,0,0.1,0,0.1c0,0,0,0.2,0,0.3v0.2l0,0h-0.1c0,0-0.1-0.2-0.1-0.5
			C62.3,181,62.4,180.7,62.5,180.7L62.5,180.7"/>
		<path class="st16" d="M62.5,173.3L62.5,173.3v0.2l0,0.2l0,0l0,0.1l0,0.1v0.1c0,0,0,0.4,0,0.7v0.6l0,0v0.1c0,0,0,0.1,0,0.1v0.1l0,0
			v0.5v0.5h0l0,0.1l0,0.2l0,0.2v0.1l0,0.2v0.2v0.2l0,0l0,0.1l0,0.1v0.1c0,0,0,0.1,0,0.1c0,0,0,0.2,0,0.3v0.2l0,0v0.2
			c0,0.1,0,0.2,0,0.3c0,0,0,0.1,0,0.2v0.1v0.1v0.1l0,0.2v0.1l0,0.2l-0.1-3.5c0-1.9-0.1-3.5-0.1-3.6l0-0.1"/>
		<path class="st16" d="M57.2,141.8v0.1c0,0.1,0,0.2,0,0.2c0,0,0,0.4,0,0.7v0.6l0,0l-0.1-0.8c0-0.4-0.1-0.8-0.1-0.9l0-0.1"/>
		<path class="st16" d="M195.4,140.7v0.2c0,0.1,0,0.2,0,0.3c0,0,0,0.5,0,1.1v1h-0.1v-1c0-0.6,0-1,0-1.1c0,0,0-0.2,0-0.3v-0.2"/>
		<path class="st16" d="M98.7,104.4L98.7,104.4c0.1,0,0.1,0.5,0.1,1.2c0,0.7,0,1.2-0.1,1.2h-0.1l0,0v-0.6c0-0.4,0-0.7,0-0.7
			c0,0,0-0.3,0-0.6V104.4"/>
	</g>
	<g>
		<path class="st17" d="M161.9,190.6v1.2c0,0.7,0,1.2,0,1.3c0,0,0,2.6,0,5.7v5.6l0,0h-0.1c0,0-0.1-3.1-0.1-6.9
			C161.8,193.7,161.8,190.6,161.9,190.6L161.9,190.6"/>
		<path class="st17" d="M62.5,167.9v1.1c0,0.6,0,1.2,0,1.2c0,0,0,0.4,0,0.7v0.6l0,0l-0.1,0.1c0,0.1-0.1-0.8-0.1-1.9
			C62.3,168.8,62.4,167.9,62.5,167.9L62.5,167.9"/>
		<path class="st17" d="M75.9,153.4v0.5c0,0.3,0,0.5,0,0.6c0,0,0,0.5,0,1.1v1.1h-0.1v-1.1c0-0.6,0-1.1,0-1.1c0,0,0-0.3,0-0.6v-0.5"
			/>
		<path class="st17" d="M75.9,152.2v0.5v0.5h-0.1v-0.5v-0.5"/>
		<path class="st17" d="M75.9,151.1v0.5v0.5h-0.1v-0.5v-0.5"/>
		<path class="st17" d="M75.9,149.9v0.5v0.5h-0.1v-0.5v-0.5"/>
		<path class="st17" d="M75.9,147.6v0.5v0.5h-0.1v-0.5v-0.5"/>
		<path class="st17" d="M75.9,144.2v0.5v0.5h-0.1v-0.5v-0.5"/>
		<path class="st17" d="M75.9,141.8L75.9,141.8c0,0.1,0,0.2,0,0.2v0.1v0.1v0.1v0.1c0,0.1,0,0.2,0,0.2c0,0,0,0.4,0,0.7v0.6h-0.1v-0.3
			c0-0.2,0-0.3,0-0.4c0,0,0-0.4,0-0.9v-0.8"/>
		<path class="st17" d="M149.1,82.3L149.1,82.3c0.1,0,0.1,4.7,0.1,10.3c0,5.7,0,10.3-0.1,10.3h-0.1l0,0v-1.5c0-0.8,0-1.5,0-1.6
			c0,0,0-4,0-8.8V82.3"/>
	</g>
	<g>
		<path class="st18" d="M64.9,204.4h0.2c0.1,0,0.2,0,0.3,0c0,0,0.1,0,0.2,0h0.1v0.1h-0.1c-0.1,0-0.2,0-0.2,0c0,0-0.2,0-0.3,0h-0.2"
			/>
		<path class="st18" d="M67.2,204.4h0.2c0.1,0,0.2,0,0.3,0c0,0,0.1,0,0.2,0H68v0.1h-0.1c-0.1,0-0.2,0-0.2,0c0,0-0.2,0-0.3,0h-0.2"/>
		<path class="st18" d="M68.3,204.4h0.2c0.1,0,0.2,0,0.3,0c0,0,0.1,0,0.2,0h0.1v0.1H69c-0.1,0-0.2,0-0.2,0c0,0-0.2,0-0.3,0h-0.2"/>
		<path class="st18" d="M77.5,204.4H78h0.5v0.1H78h-0.5"/>
		<path class="st18" d="M78.6,204.4h0.2c0.1,0,0.2,0,0.3,0c0,0,0.1,0,0.2,0h0.1v0.1h-0.1c-0.1,0-0.2,0-0.2,0c0,0-0.2,0-0.3,0h-0.2"
			/>
		<path class="st18" d="M80.9,204.4h0.2c0.1,0,0.2,0,0.3,0c0,0,0.1,0,0.2,0h0.1v0.1h-0.1c-0.1,0-0.2,0-0.2,0c0,0-0.2,0-0.3,0h-0.2"
			/>
		<path class="st18" d="M82,204.4h0.5c0.3,0,0.5,0,0.6,0c0,0,0.4,0,0.7,0h0.6v0.1h-0.6c-0.4,0-0.7,0-0.7,0c0,0-0.3,0-0.6,0H82"/>
		<path class="st18" d="M75.3,177.3h2.2h2.2v0.1h-2.2h-2.2"/>
		<path class="st18" d="M98,83.6v7.6c0,4.2,0,7.6,0,7.6c0,0,0,0.4,0,0.7v0.6h-0.1v-0.6c0-0.4,0-0.7,0-0.7c0,0,0-3.5,0-7.6v-7.6"/>
	</g>
	<g>
		<path class="st19" d="M96,180.5h0.5c0.3,0,0.5,0,0.6,0c0,0,0.2,0,0.3,0h0.2h0.1h0.1H98h2.2c1.2,0,2.2,0,2.3,0c0,0,0.4,0,0.7,0h0.6
			v0.1h-1.6c-0.9,0-1.7,0-1.7,0c0,0-1.1,0-2.3,0H96"/>
		<path class="st19" d="M104,180.5h0.5c0.3,0,0.5,0,0.6,0c0,0,0.2,0,0.3,0h0.2v0.1h-0.2c-0.1,0-0.3,0-0.3,0c0,0-0.3,0-0.6,0H104"/>
		<path class="st19" d="M105.7,180.5h0.5h0.5v0.1h-0.5h-0.5"/>
		<path class="st19" d="M107.4,180.5L107.4,180.5c0.1,0,0.4,0,0.8,0h0.6h0.1h0.1l0,0l-0.1,0.1c-0.1,0-0.2,0.1-0.2,0.1
			c-0.1,0-0.4,0-0.7,0h-0.6"/>
		<path class="st19" d="M97.3,176.8L97.3,176.8c0-0.1,0.2-0.1,0.5-0.1c0.3,0,0.5,0,0.5,0.1v0.1l0,0h-0.5H97.3"/>
		<path class="st19" d="M100.7,176.8L100.7,176.8c0-0.1,2.3-0.1,5.1-0.1c2.8,0,5.1,0,5.1,0.1v0.1l0,0h-0.3c-0.2,0-0.3,0-0.4,0
			c0,0-0.4,0-0.9,0h-0.8l0,0h-0.5h-0.5l0,0l-0.1,0l-0.2,0h-0.1H107h-0.6c-0.4,0-0.7,0-0.7,0c0,0-1.2,0-2.5,0H100.7"/>
	</g>
	<g>
		<path class="st20" d="M93.7,176.8L93.7,176.8c0-0.1,0.7-0.1,1.6-0.1c0.9,0,1.6,0,1.6,0.1v0.1l0,0h-0.9c-0.5,0-1,0-1,0
			c0,0-0.3,0-0.6,0H93.7"/>
		<path class="st20" d="M149.9,143.5h0.8c0.4,0,0.8,0,0.9,0c0,0,0.4,0,0.7,0h0.6v0.1h-0.6c-0.4,0-0.7,0-0.7,0c0,0-0.4,0-0.9,0h-0.8"
			/>
		<path class="st20" d="M192.2,143.5h0.7c0.4,0,0.7,0,0.8,0c0,0,0.4,0,0.7,0h0.6v0.1h-0.6c-0.4,0-0.7,0-0.7,0c0,0-0.4,0-0.8,0h-0.7"
			/>
		<path class="st20" d="M148.2,105.1L148.2,105.1c0.1,0,0.1,0.2,0.1,0.5c0,0.3,0,0.5-0.1,0.5h-0.1l0,0v-0.5V105.1"/>
	</g>
	<g>
		<path class="st21" d="M148.1,147.4h0.2c0.1,0,0.2,0,0.3,0c0,0,0.1,0,0.2,0h0.1l0,0v0.1c0,0-0.2,0.1-0.4,0.1
			C148.3,147.5,148.1,147.5,148.1,147.4L148.1,147.4"/>
		<path class="st21" d="M149.1,147.4h0.6c0.3,0,0.6,0,0.6,0c0,0,0.5,0,1,0h0.9l0,0v0.1c0,0-0.7,0.1-1.6,0.1
			C149.8,147.5,149.1,147.5,149.1,147.4L149.1,147.4"/>
		<path class="st21" d="M192.9,147.4h0.8c0.4,0,0.8,0,0.9,0c0,0,0.6,0,1.2,0h1.1l0,0v0.1c0,0-0.9,0.1-2,0.1S192.9,147.5,192.9,147.4
			L192.9,147.4"/>
		<path class="st21" d="M144.5,104.4v0.5c0,0.3,0,0.5,0,0.6c0,0,0,0.4,0,0.7v0.6l0,0h-0.1c0,0-0.1-0.6-0.1-1.2
			C144.4,105,144.4,104.4,144.5,104.4L144.5,104.4"/>
	</g>
	<g>
		<path class="st22" d="M59.5,141.8v0.2c0,0.1,0,0.2,0,0.3c0,0,0,0.1,0,0.2v0.1h-0.1v-0.1c0-0.1,0-0.2,0-0.2c0,0,0-0.2,0-0.3v-0.2"
			/>
		<path class="st22" d="M148.1,125.3L148.1,125.3L148.1,125.3l-0.1,0.1c0,0,0,0.1-0.1,0.1h-0.1l0,0v0.1c0,0,0,0.1-0.1,0.1h-0.1l0,0
			v0.1c0,0,0,0.1-0.1,0.1h-0.1l0,0v0.1c0,0,0,0.1-0.1,0.1h-0.1l0,0l0,0.1l-0.1,0.1V126c0,0,0-0.1,0-0.1c0,0,0.2-0.2,0.4-0.4
			L148.1,125.3"/>
	</g>
	<g>
		<path class="st23" d="M63.6,208.3h4c2.2,0,4,0,4.1,0c0,0,0.7,0,1.6,0h1.5v0.1h-1.5c-0.8,0-1.5,0-1.6,0c0,0-1.9,0-4.1,0h-4"/>
		<path class="st23" d="M74.9,208.3h0.8c0.4,0,0.8,0,0.9,0c0,0,1.8,0,4,0h3.9v0.1h-3.9c-2.2,0-4,0-4,0c0,0-0.4,0-0.9,0h-0.8"/>
		<path class="st23" d="M75.3,173.5H76c0.4,0,0.7,0,0.8,0c0,0,0.7,0,1.4,0h1.4v0.1h-1.4c-0.8,0-1.4,0-1.4,0c0,0-0.4,0-0.8,0h-0.7"/>
		<path class="st23" d="M79.6,154.8L79.6,154.8c0.1,0,0.1,0.8,0.1,1.8c0,1,0,1.8-0.1,1.8h-0.1l0,0v-0.6c0-0.4,0-0.7,0-0.7
			c0,0,0-0.6,0-1.1V154.8"/>
		<path class="st23" d="M79.6,153.1L79.6,153.1c0.1,0,0.1,0.3,0.1,0.8c0,0.4,0,0.8-0.1,0.8h-0.1l0,0v-0.2c0-0.1,0-0.3,0-0.3
			c0,0,0-0.3,0-0.6V153.1"/>
		<path class="st23" d="M79.6,151.4L79.6,151.4c0.1,0,0.1,0.3,0.1,0.8c0,0.4,0,0.8-0.1,0.8h-0.1l0,0v-0.2c0-0.1,0-0.3,0-0.3
			c0,0,0-0.3,0-0.6V151.4"/>
		<path class="st23" d="M79.6,147.9L79.6,147.9c0.1,0,0.1,0.7,0.1,1.6c0,0.9,0,1.6-0.1,1.6h-0.1l0,0v-1.1c0-0.6,0-1.1,0-1.1
			c0,0,0-0.3,0-0.6V147.9"/>
		<path class="st23" d="M79.6,143.7L79.6,143.7c0.1,0,0.1,0.9,0.1,2.1c0,1.1,0,2.1-0.1,2.1h-0.1l0,0v-0.6c0-0.4,0-0.7,0-0.7
			c0,0,0-0.7,0-1.4V143.7"/>
		<path class="st23" d="M94.2,82.2v8.2c0,4.5,0,8.2,0,8.3c0,0,0,1,0,2.2v2.1l0,0h-0.1c0,0-0.1-4.7-0.1-10.4
			C94,86.8,94,82.2,94.2,82.2L94.2,82.2"/>
	</g>
	<g>
		<path class="st24" d="M165.8,202v0.5c0,0.3,0,0.5,0,0.6v0.1v0.1l-0.1-0.5c0-0.3-0.1-0.6-0.1-0.6l0-0.1"/>
		<path class="st24" d="M165.8,194.9v0.5v0.5h-0.1v-0.5v-0.5"/>
		<path class="st24" d="M165.8,192.4v0.6v0.6h-0.1v-0.6C165.6,192.7,165.7,192.4,165.8,192.4L165.8,192.4"/>
		<path class="st24" d="M123.4,180.9L123.4,180.9l0.1,0.1v0.2c0,0.1,0,0.2,0,0.3c0,0,0,0.4,0,0.7v0.6v0.1l-0.1,0.1l-0.1,0.1v-0.3
			c0-0.2,0-0.3,0-0.4c0,0,0-0.4,0-0.9L123.4,180.9"/>
		<path class="st24" d="M145.2,98.6v-0.1l0-0.2v-0.1l0-0.2v-0.1v-0.1v-0.6c0-0.4,0-0.7,0-0.7c0,0,0-1.8,0-4v-3.9l0,0v-0.1
			c0-0.1,0-0.2,0-0.2c0,0,0-0.2,0-0.3v-0.2l-0.1-0.1v-0.1l0.1-0.1V87c0-0.1,0-0.2,0-0.2c0,0,0-0.2,0-0.3v-0.2h-0.1l0-0.1l0-0.2v-0.1
			v-0.1v-0.2c0-0.1,0-0.3,0-0.3c0,0,0-0.1,0-0.1V85v-0.1v-0.1l0-0.2v-0.1l0-0.2v-0.1V84V84c0,0,0-0.1,0-0.1v-0.1h0.1v5.6
			c0,3.1,0,5.7,0,5.7c0,0,0,1.1,0,2.4v2.4h-0.1v-0.1c0,0,0-0.3,0-0.6v-0.5"/>
	</g>
	<g>
		<path class="st25" d="M123.5,184.6v3.7c0,2,0,3.7,0,3.8c0,0,0,0.4,0,0.7v0.6l0,0l-0.1-4.4l-0.1-4.4"/>
		<path class="st25" d="M165.9,188.5h1.1h1.1l0.1-0.1h0.1l0.1,0.1h0.2c0.1,0,0.2,0,0.3,0c0,0,0.4,0,0.7,0h0.6v0.1h-1.5
			c-0.8,0-1.6,0-1.6,0c-0.1,0-0.4,0-0.8-0.1l-0.7-0.1"/>
		<path class="st25" d="M95.6,180.7v0.1v1.6c0,0.9,0,1.6,0,1.6c0,0,0,0.4,0,0.7v0.6l0,0h-0.1c0,0-0.1-1.1-0.1-2.4
			c0-1.3,0-2.4,0.1-2.4h0.1"/>
		<path class="st25" d="M123.4,180.9l0-0.1c0-0.1,0-0.3,0.1-0.5l0.1-0.4l0,0v0.2c0,0.1,0,0.2,0,0.3c0,0,0,0.1,0,0.2v0.1v0.1H123.4"
			/>
		<path class="st25" d="M79.9,180.5v-0.6c0-0.4,0-0.7,0-0.7c0,0,0-0.4,0-0.8v-0.7H80v0.8c0,0.4,0,0.8,0,0.9c0,0,0,0.4,0,0.7v0.6
			L79.9,180.5"/>
		<path class="st25" d="M66.3,168.3v2.9c0,1.6,0,3,0,3c0,0,0,0.7,0,1.4v1.4l0,0l-0.1-4.3c0-2.3-0.1-4.3-0.1-4.4l0-0.1"/>
		<path class="st25" d="M79.8,171.9v-0.1l0.1-0.1V171c0-0.4,0-0.7,0-0.7v-0.1H80v0.6c0,0.3,0,0.6,0,0.6c0,0,0,0.5,0,1v0.9h-0.1v-0.6
			V172"/>
		<path class="st25" d="M66.3,167.2v0.5v0.5h-0.1l0-0.1c0-0.1,0-0.3,0.1-0.5L66.3,167.2"/>
	</g>
	<g>
		<path class="st26" d="M62.5,181.7v-0.2c0-0.1,0-0.3,0-0.3c0,0,0-0.1,0-0.1V181l0,0h0.1c0,0,0.1-0.1,0.1-0.1c0-0.1,0-0.1-0.1-0.1
			h-0.1l0,0v-0.1c0-0.1,0-0.1,0.1-0.2c0,0,0.1-0.1,0.1-0.2v-0.1l-0.1,0v-0.1l0.1,0l-0.1-0.2l-0.1-0.2l0,0v-0.1c0-0.1,0-0.2,0-0.2
			c0,0,0-0.2,0-0.3v-0.2l0,0h0.1c0,0,0.1-0.2,0.1-0.4c0-0.2,0-0.4-0.1-0.4h-0.1h0l0-0.1l0.1,0v-0.3v-0.3l-0.1,0v-0.1l0.1,0l-0.1-0.1
			l-0.1-0.1l0,0l0-0.1h0.1v-0.1c0-0.1,0-0.3-0.1-0.5l-0.1-0.4l0,0v-0.1c0,0,0-0.1,0-0.1v-0.1l0,0h0.1c0,0,0.1-0.4,0.1-0.8
			c0-0.4,0-0.8-0.1-0.8h-0.1h0l0-0.1l0.1,0v-0.1c0,0,0-0.1,0-0.1v-0.1l-0.1,0l0,0l0.1-0.1l-0.1-0.6c0-0.3,0-0.6,0-0.7
			c0.1,0,0.1-0.1,0-0.2l-0.1-0.1l0,0V171c0-0.4,0-0.7,0-0.7c0,0,0-0.6,0-1.2v-1.1l0,0v-0.7c0-0.4,0-1.1,0.1-1.7s0.1-1.2,0.2-1.3
			c0-0.2,0.1-0.6,0.1-0.8c0-0.2,0.1-0.6,0.2-0.7c0.1-0.2,0.3-0.7,0.6-1.2c0.2-0.5,0.7-1.2,0.9-1.4c0.3-0.3,0.7-0.7,1-0.9l0.5-0.4
			l-0.7-0.7c-0.4-0.4-0.9-1-1.1-1.4c-0.2-0.4-0.7-1.2-1-1.9c-0.3-0.7-0.8-1.9-1-2.8c-0.2-0.9-0.5-2.2-0.6-2.9
			c-0.1-0.8-0.2-1.4-0.2-1.5c0-0.1-0.2-0.1-0.4-0.1h-0.4l0,0H60c-0.4,0-0.7,0-0.7,0c0,0-0.9,0-1.9,0h-1.9l0,0h-0.1c0,0-0.2,0-0.2,0
			c-0.1,0-0.4-0.1-0.8-0.3c-0.3-0.2-0.7-0.5-0.8-0.7c-0.1-0.2-0.2-0.5-0.2-0.5c0.1-0.1,0-0.2-0.1-0.4c-0.1-0.2-0.2-1.1-0.1-3.3
			c0-1.6,0.1-3.1,0.1-3.2c0-0.2,0.2-0.4,0.3-0.6c0.1-0.2,0.4-0.4,0.6-0.6c0.4-0.2,0.8-0.3,3.2-0.3c1.5,0,2.8,0,2.8,0h0l0,0v0.1
			c0,0,0.4,0.1,0.9,0.1c0.5,0,0.9,0,0.9-0.1v-0.1l0,0h0.2c0.1,0,3.6,0,7.7,0c4.2,0,7.8,0,8.1,0.1c0.3,0.1,0.7,0.3,1,0.5
			c0.2,0.2,0.5,0.6,0.5,0.9c0.1,0.4,0.2,0.5,0.8,0.6c0.4,0.1,1.3,0.4,1.9,0.8c0.8,0.4,1.5,0.9,2,1.4c0.5,0.5,1,1.2,1.5,2.1
			c0.4,0.8,0.8,1.8,1,2.8c0.2,0.9,0.4,1.9,0.4,2.5c0,0.6,0,1.1,0.1,1.1l0.1,0.1l0,0.2l-0.1,0.1l0,0.1l0,0l0.1,0.1v0.1
			c0,0,0,0.4,0,0.7v0.6l0,0h-0.1c0,0-0.1,0.1-0.1,0.1c0,0.1,0,0.1,0.1,0.1h0.1l0,0l0,0.1h-0.1v0.5c0,0.3,0,0.5,0,0.6
			c0,0,0,0.2,0,0.3v0.2h0.1l0,0.1h-0.1l0,0.1c0,0.1,0,0.3,0.1,0.5l0.1,0.4l0,0v0.5v0.5l-0.1,0.1l0,0l0.1,0.1l0,0.1l0,0.2h-0.1
			c0,0-0.1,0.1-0.1,0.2c0,0.1-0.1,0.4-0.3,0.6c-0.1,0.2-0.4,0.5-0.7,0.6c-0.2,0.1-0.7,0.2-1,0.2c-0.4,0-0.6-0.1-1.1-0.6
			c-0.3-0.3-0.6-0.7-0.6-0.8c0-0.2,0-0.3-0.1-0.4l-0.1-0.1l0,0v-2.2c0-1.2,0-2.3,0-2.3c0,0,0-0.4,0-0.9v-0.8l0,0v-0.1
			c0,0,0-0.4,0-0.8s-0.1-1.3-0.3-2c-0.2-0.7-0.5-1.6-0.7-1.9c-0.2-0.4-0.5-0.8-0.6-1c-0.1-0.2-0.5-0.4-0.7-0.6
			c-0.3-0.2-0.7-0.4-0.8-0.5c-0.2-0.1-0.4-0.2-0.5-0.2c-0.1,0-0.2,0-0.2,0.1v0.1l0,0v1.1c0,0.6,0,1.1,0,1.1c0,0,0,2.9,0,6.3v6.2l0,0
			v0c0,0,0.3,0.2,0.6,0.4c0.3,0.2,0.9,0.7,1.3,1.1c0.4,0.4,0.9,1.1,1.2,1.7c0.3,0.5,0.5,1.1,0.5,1.3s0.1,0.5,0.2,0.7
			c0.1,0.3,0.2,0.5,0.3,0.5c0.1,0,0.2-0.1,0.3-0.3c0-0.2,1.1-1.3,2.3-2.5c1.2-1.2,2.8-2.7,3.6-3.3c0.8-0.6,1.9-1.5,2.5-1.9
			c0.6-0.4,1.5-1,2.2-1.4c0.6-0.4,1.7-0.9,2.3-1.2c0.6-0.3,1.8-0.9,2.7-1.2l1.6-0.7v-1.4c0-1.1,0.1-1.4,0.3-1.7
			c0.1-0.2,0.5-0.5,0.7-0.6c0.3-0.1,0.7-0.2,0.9-0.2c0.2,0,0.5,0.1,0.7,0.2s0.4,0.3,0.6,0.5c0.2,0.2,0.4,0.6,0.5,0.9
			c0.1,0.3,0.2,1.2,0.2,1.8l0.1,1.2l0,0h-0.1c0,0-0.1,0.2-0.1,0.4c0,0.2,0,0.4,0.1,0.4h0.1l0,0v0.4c0,0.2,0.1,1.2,0.1,2.2
			c0.1,1,0.1,2.1,0.1,2.4c0,0.5,0,0.6,0.3,0.5c0.2,0,1.3-0.6,2.5-1.2c1.2-0.6,2.5-1.2,2.9-1.3c0.4-0.1,0.9-0.3,1.2-0.2
			c0.2,0,0.5,0.1,0.5,0.2c0,0.1,0.1,0.1,0.1,0c0.1,0,0.3,0.1,0.6,0.4c0.4,0.4,0.5,0.6,0.5,1.2c0,0.4-0.1,0.7-0.2,0.7
			c-0.1,0-0.1,0-0.1,0.1c0,0.1-0.1,0.3-0.3,0.5c-0.2,0.2-0.6,0.5-0.8,0.6c-0.3,0.1-1.5,0.7-2.8,1.3c-1.3,0.6-2.3,1.1-2.4,1.1
			c0,0-0.8,0.3-1.6,0.7c-1,0.5-1.7,0.7-2.1,0.7c-0.3,0-0.7-0.1-0.9-0.3c-0.2-0.2-0.5-0.5-0.6-0.7c-0.1-0.2-0.3-0.8-0.3-1.3
			c0-0.5-0.1-0.9-0.1-1v0l0,0h0.1c0,0,0.1-0.2,0.1-0.4c0-0.2,0-0.4-0.1-0.4h-0.1l0,0l-0.1-1.5c-0.1-0.8-0.1-1.6-0.2-1.9l-0.1-0.4
			l-2.5,1.3c-1.4,0.7-3.1,1.7-3.8,2.2c-0.8,0.5-1.9,1.4-2.6,1.9c-0.7,0.6-1.9,1.7-2.7,2.4c-0.8,0.8-1.8,1.8-2.1,2.2
			c-0.4,0.4-1.1,1.3-1.5,1.9c-0.4,0.6-1.1,1.5-1.4,2l-0.6,0.9l-0.1,6.7c-0.1,6.6-0.1,6.7-0.4,7.9c-0.2,0.6-0.6,1.6-0.9,2.1
			c-0.3,0.5-0.8,1.3-1.2,1.7l-0.6,0.8l0.3,0.4c0.1,0.2,0.7,1,1.2,1.7c0.5,0.7,1.3,1.8,1.8,2.4c0.5,0.6,1.1,1.4,1.3,1.7
			c0.2,0.3,0.6,0.9,0.7,1.2c0.2,0.3,0.4,0.7,0.4,0.9c0.1,0.2,0.3,0.6,0.5,1.1c0.2,0.5,0.4,0.9,0.4,0.9c0,0.1,0.2,0.7,0.4,1.5
			c0.2,0.7,0.6,2.1,0.7,2.9c0.2,0.9,0.3,1.9,0.4,2.2c0,0.3,0.1,0.7,0.1,0.8c0,0.1,0.1,1.6,0.1,3.3c0.1,2.8,0.1,3.1-0.2,3.6
			c-0.1,0.3-0.4,0.6-0.6,0.7c-0.2,0.1-0.6,0.3-0.9,0.3c-0.3,0-0.6,0.1-0.6,0.1h-0.1l0,0h-0.6h-0.6h-0.1h-0.1c0,0-0.1,0-0.1,0h-0.1
			h-0.1h-0.5h-0.5l0,0h-1.1c-0.6,0-1.2,0-1.2,0c0,0-0.4,0-0.9,0h-0.8l0,0h-0.1c-0.1,0-0.2,0-0.2,0c0,0-0.2,0-0.3,0h-0.2l0,0h-0.2
			c-0.1,0-0.3,0-0.3,0c0,0-0.1,0-0.1,0h-0.1l0,0h-2.5c-1.4,0-2.5,0-2.6,0c0,0-0.6,0-1.1,0h-1.1l0,0h-0.6c-0.4,0-0.7,0-0.7,0h-0.1
			l0,0h-0.1c-0.1,0-0.2,0-0.2,0c0,0-0.2,0-0.3,0h-0.2l0,0h-0.1c0,0-0.3,0-0.6,0h-0.5l0,0h-0.6c-0.4,0-0.7,0-0.7,0c0,0-0.1,0-0.2,0
			h-0.1l0,0h-0.1c0,0-1.1,0-2.3,0c-1.2,0-2.4-0.1-2.6-0.1c-0.2-0.1-0.6-0.3-0.8-0.6l-0.5-0.4v-2.8c0-1.5,0-3.3,0.1-4
			c0.1-0.7,0.1-1.3,0.2-1.3c0,0,0.1-0.4,0.1-0.8c0.1-0.4,0.1-0.7,0.1-0.8c0,0,0.1-0.3,0.1-0.6c0-0.3,0.1-0.6,0.1-0.8
			s0.2-0.7,0.3-1.3c0.2-0.6,0.5-1.6,0.7-2.1c0.2-0.6,0.7-1.7,1.1-2.4c0.4-0.8,1-1.8,1.4-2.3c0.4-0.5,1.2-1.6,1.7-2.4
			c0.6-0.8,1.1-1.5,1.1-1.5c0.1,0,0.1-0.1,0.1-0.2c0-0.1-0.5-0.7-1.2-1.4c-0.7-0.7-1.4-1.6-1.7-2c-0.3-0.5-0.5-0.9-0.5-0.9
			c0,0-0.1-0.3-0.3-0.5c-0.1-0.3-0.2-0.5-0.2-0.5c0,0,0-0.3-0.1-0.7c-0.1-0.4-0.2-0.8-0.3-1c0-0.2-0.1-0.7-0.1-1.2L62.5,181.7
			 M63.6,208.3h8.2c4.5,0,8.2,0,8.3,0c0,0,1,0,2.2,0h2.1l0,0l0.1,0c0.1,0,0.2,0,0.3,0.1l0.2,0.1l0,0l0.1,1l0.1,1l0,0h0.1
			c0,0,0.1,0.1,0.1,0.2c0,0.1,0,0.3,0,0.5c-0.1,0.3-0.1,0.3-0.5,0.3c-0.2,0-0.5-0.1-0.5-0.1h0l0,0v0.1c0,0-4.6,0.1-10.1,0.1
			c-5.6,0-10.1,0-10.1-0.1v-0.1l0,0l-0.1,0c-0.1,0-0.3,0-0.4,0.1l-0.3,0.1l0.1-1.5c0-0.8,0.1-1.5,0.1-1.6
			C63.4,208.3,63.5,208.3,63.6,208.3L63.6,208.3 M64.3,203.1l0-0.2c0-0.1,0.1-0.5,0.3-0.9l0.3-0.7l0,0v-0.1c0-0.1,0.1-0.4,0.2-0.7
			c0.1-0.4,0.5-1.1,0.8-1.6l0.6-1l0,0v-0.1c0,0,0-0.1,0.1-0.1h0.1l0,0l0.1-0.2l0.1-0.2l0,0v-0.1c0,0,0-0.1,0.1-0.1H67l0,0v-0.1
			c0,0,0-0.1,0-0.1s0.1-0.1,0.2-0.2l0.2-0.2l0,0l0.1-0.2l0.1-0.2l0,0v-0.1c0,0,0-0.1,0.1-0.1h0.1l0,0l0.1-0.2l0.1-0.2l0,0v-0.1
			c0,0,0-0.1,0.1-0.1h0.1l0,0l0.1-0.2l0.1-0.2l0,0v-0.1c0,0,0-0.1,0.1-0.1h0.1l0,0v-0.1c0,0,0-0.1,0-0.1c0,0,0.1-0.2,0.3-0.4
			l0.3-0.3l0,0l0.1-0.2l0.1-0.2l0,0l0.1-0.2l0.1-0.2l0,0l0.1-0.2l0.1-0.2l0,0v-0.1c0,0,0-0.1,0.1-0.1h0.1l0,0v-0.1c0,0,0-0.1,0-0.1
			c0,0,0.2-0.1,0.5-0.1c0.3,0,0.5,0,0.5,0.1v0.1l0,0l0.1,0c0.1,0,0.3,0,0.6,0.1l0.5,0.1l0,0h0.2c0.1,0,0.2,0,0.3,0c0,0,0.1,0,0.2,0
			h0.1l0,0v-0.1c0,0,0.2-0.1,0.5-0.1c0.3,0,1-0.1,1.6-0.3s1.1-0.3,1.2-0.3h0.1l0,0v-0.1c0,0,0.1-0.1,0.3-0.1c0.2,0,0.4,0.1,0.4,0.1
			c0,0.1,0.1,0.2,0.1,0.2v0.1l0,0l0.1,0.2l0.1,0.2l0,0h0.1c0,0,0.1,0,0.1,0.1v0.1l0,0l0.1,0.2l0.1,0.2l0,0l0.1,0.2l0.1,0.2l0,0
			l0.2,0.2c0.1,0.1,0.2,0.2,0.2,0.2s0,0.1,0,0.1v0.1l0,0l0.1,0.2l0.1,0.2l0,0h0.1c0,0,0.1,0,0.1,0.1v0.1l0,0l0.1,0.2l0.1,0.2l0,0H80
			c0,0,0.1,0,0.1,0.1v0.1l0,0l0.2,0.2c0.1,0.1,0.3,0.2,0.3,0.2c0,0,0,0,0,0.1c0,0,0,0.1,0,0.1v0.1l0,0h0.1c0,0,0.1,0,0.1,0.1v0.1
			l0,0l0.2,0.2c0.1,0.1,0.2,0.2,0.2,0.2s0,0.1,0,0.1v0.1l0,0l0.2,0.2c0.1,0.1,0.2,0.2,0.2,0.2c0,0,0,0.1,0,0.1v0.1l0,0l0.2,0.2
			c0.1,0.1,0.2,0.2,0.2,0.2c0,0,0,0.1,0,0.1v0.1l0,0l0.2,0.4l0.2,0.4l0,0l0.2,0.4l0.2,0.4l0,0l0.1,0c0,0,0.1,0.1,0.1,0.1
			c0,0,0,0.1,0.1,0.2l0.1,0.2l0,0l0.3,0.8c0.2,0.5,0.4,1.2,0.6,1.7s0.2,0.9,0.2,1v0.2l0,0h0.1c0,0,0.1,0,0.1,0.1c0,0,0,0.2,0,0.3
			v0.2l0,0h0.1c0,0,0.1,0.1,0.1,0.1c0,0.1,0,0.1-0.1,0.1h-0.1l0,0h-0.6c-0.4,0-0.7,0-0.7,0c0,0-0.3,0-0.6,0H82h-0.1h-0.1h-0.1
			c-0.1,0-0.2,0-0.2,0c0,0-0.2,0-0.3,0h-0.2l0,0h-0.6c-0.4,0-0.7,0-0.7,0h-0.1l0,0h-0.6c-0.4,0-0.7,0-0.7,0c0,0-0.2,0-0.4,0h-0.3
			l0,0h-2.1c-1.2,0-2.2,0-2.2,0c0,0-0.9,0-2,0h-1.9l0,0H69c-0.1,0-0.2,0-0.2,0c0,0-0.2,0-0.3,0h-0.2h-0.1H68h-0.1
			c-0.1,0-0.2,0-0.2,0c0,0-0.2,0-0.3,0h-0.2l0,0h-0.6c-0.4,0-0.7,0-0.7,0h-0.1l0,0h-0.1c-0.1,0-0.2,0-0.2,0c0,0-0.2,0-0.3,0h-0.2
			l0,0h-0.1c0,0-0.3,0-0.5,0c-0.3,0-0.4-0.1-0.4-0.2c0-0.1,0.1-0.4,0.2-0.7C64.2,203.4,64.2,203.1,64.3,203.1L64.3,203.1
			 M72.2,188.6H72c-0.1,0-0.3,0-0.4,0c-0.1,0-0.7-0.2-1.2-0.4c-0.5-0.2-1.1-0.5-1.2-0.6l-0.2-0.3l0,0H69c0,0-0.1,0-0.1-0.1v-0.1l0,0
			l-0.6-0.6l-0.6-0.6l0,0l-0.3-0.4l-0.3-0.4l0,0l-0.1-0.1c0,0-0.1-0.1-0.1-0.1v-0.1l0,0H67c0,0-0.2-0.2-0.3-0.5
			c-0.1-0.3-0.2-0.5-0.1-0.6l0.1-0.1l0,0l-0.1-0.1c-0.1,0-0.1-0.5-0.1-0.9l0-0.8l0,0v-1.1c0-0.6,0-1.1,0-1.1c0,0,0-0.3,0-0.6v-0.5
			l-0.1-0.1l0,0l0.1-0.1v-0.6c0-0.4,0-0.7,0-0.7V177l0,0h-0.1c0,0-0.1-2.2-0.1-4.9c0-2.7,0-4.9,0.1-4.9h0.1l0,0v-0.3v-0.3l0,0v-0.2
			c0-0.1,0-0.5,0-0.8c0-0.3,0.1-0.9,0.2-1.4c0.1-0.4,0.3-0.9,0.4-1l0.2-0.3l0,0l0.1-0.2l0.1-0.2l0,0v-0.1c0,0,0-0.1,0.1-0.1h0.1l0,0
			l0.2-0.1l0.2-0.1l0,0v0c0,0,0.1-0.1,0.2-0.2c0.1-0.1,0.3-0.2,0.4-0.2h0.3l0,0l0.2-0.2c0.1-0.1,0.8-0.2,1.4-0.4s1.8-0.2,2.5-0.2
			c0.7,0,1.8,0.1,2.4,0.1c0.6,0.1,1.2,0.2,1.5,0.3c0.3,0.1,0.5,0.2,0.5,0.2v0.1l0,0h0.1c0.1,0,0.2,0,0.2,0.1l0.1,0.1l0,0l0.2,0.1
			l0.2,0.1l0,0l0.3,0.2l0.3,0.2l0,0l0.2,0.2c0.1,0.1,0.3,0.4,0.4,0.7c0.1,0.3,0.2,0.7,0.3,1c0,0.3,0.1,0.6,0.1,0.7v0.2l0,0h0.1
			c0,0,0.1,0.2,0.1,0.4c0,0.3-0.1,0.4-0.3,0.4c-0.2,0-0.3,0-0.4,0h-0.1l0,0h-1.6c-0.9,0-1.7,0-1.7,0c0,0-0.2,0-0.3,0h-0.2h-0.1h-0.1
			c0,0-0.1,0-0.1,0h-0.1l0,0l-0.4,0.2c-0.2,0.1-0.5,0.3-0.6,0.4l-0.2,0.1l0,0l-0.2,0.6c-0.1,0.3-0.2,0.8-0.1,0.9l0,0.3l0,0l0.2,0.4
			l0.2,0.4l0,0l0.2,0.1l0.2,0.1l0,0h0.1c0.1,0,0.1,0,0.1,0.1l0.1,0.1l0,0l0.1,0c0.1,0,0.2,0,0.4,0.1l0.3,0.1l0,0h2.2h2.2l0,0v-0.1
			c0-0.1,0.1,0,0.1,0c0.1,0.1,0.1,0.2,0.1,0.2v0.1l0,0v0.6c0,0.3,0,0.6,0,0.6c0,0,0,0.5,0,1v0.9l0,0v0.1c0,0.1-0.1,0.1-0.1,0.1
			c-0.1,0-0.2,0-0.2,0h-0.1l0,0h-1.4c-0.8,0-1.4,0-1.4,0c0,0-0.4,0-0.8,0h-0.7l0,0l-0.1,0c-0.1,0-0.2,0-0.2,0.1c-0.1,0-0.3,0-0.4,0
			l-0.2,0l0,0l-0.2,0.3c-0.1,0.2-0.3,0.3-0.3,0.3c0,0-0.1,0-0.1,0.1l-0.1,0.1l0,0v0.1c0,0.1,0,0.1-0.1,0.1l-0.1,0.1l0,0v0.1
			c0,0,0,0.4,0,0.7v0.6l0,0l0.1,0.2l0.1,0.2l0,0l0.2,0.2l0.2,0.2l0,0l0.6,0.1l0.6,0.1l0,0h2.2h2.2h0.1H80c0,0,0.1,0,0.1,0.1v0.1v0.1
			v0.8c0,0.4,0,0.8,0,0.9c0,0,0,0.4,0,0.7v0.6l0,0l-0.1,0.1c0,0.1-0.1,0.1-0.2,0.1c0,0-0.1-0.1-0.1-0.1h0l0,0h-0.1c0,0-0.3,0-0.6,0
			h-0.5l-0.1,0.1l0,0l-0.1-0.1h-0.6c-0.4,0-0.7,0-0.7,0c0,0-0.4,0-0.9,0h-0.8l0,0l-0.5,0.1l-0.5,0.1l0,0l-0.2,0.1l-0.2,0.1l0,0
			l-0.2,0.4l-0.2,0.4l0,0l0,0.6c0,0.3,0,0.6,0,0.7c0,0,0,0.1,0,0.1v0.1l0,0l0.1,0.2l0.1,0.2l0,0l0.4,0.3l0.4,0.3l0,0h0.1
			c0.1,0,0.2,0,0.2,0.1l0.1,0.1l0,0l0.1-0.1c0,0,0.1,0,0.2,0c0.1,0,0.1,0.1,0.2,0.1h0.1l0,0H76c0.3,0,0.5,0,0.6,0c0,0,0.5,0,1.1,0
			h1.1l0,0l0.2,0c0.1,0,0.3,0,0.4,0.1c0.1,0.1,0.1,0.1-0.1,0.4c-0.1,0.2-0.3,0.3-0.3,0.3h0l0,0l-0.1,0.2l-0.1,0.2l0,0l-0.1,0.3
			c0,0.1-0.2,0.4-0.3,0.5c-0.1,0.1-0.3,0.2-0.4,0.2h-0.1l0,0v0.1c0,0,0,0.1-0.1,0.1h-0.1l0,0v0.1c0,0,0,0.1-0.1,0.1h-0.1l0,0
			l-0.4,0.4c-0.2,0.2-0.5,0.4-0.5,0.4c0,0-0.1,0-0.1,0c0,0-0.1,0-0.1,0h-0.1l0,0L76,188l-0.1,0.1l0,0l-0.5,0.3
			c-0.4,0.2-0.9,0.3-1.9,0.4C72.8,188.7,72.2,188.7,72.2,188.6L72.2,188.6 M69.2,156.4L69.2,156.4c-0.1,0-0.2,0-0.3,0
			c-0.1,0-0.1-0.1-0.1-0.1v-0.1l0,0l-0.5-0.5l-0.5-0.5l0,0h-0.1c0,0-0.1,0-0.1-0.1v-0.1l0,0l-0.1-0.2l-0.1-0.2l0,0l-0.2-0.4
			l-0.2-0.4l0,0l-0.1-0.1c0,0-0.1-0.1-0.1-0.1v-0.1l0,0l-0.1-0.4l-0.1-0.4l0,0h-0.1c0,0-0.1-0.1-0.1-0.1c0-0.1-0.1-0.3-0.1-0.6
			l-0.1-0.5l0,0l-0.1-0.1c-0.1,0-0.1-0.3-0.1-0.5l0-0.4l0,0l-0.1-0.6l-0.1-0.6l0,0l-0.1-0.9l-0.1-0.9l0,0h-0.1c0,0-0.1-0.5-0.1-1.2
			c0-0.7-0.2-1.4-0.3-1.6l-0.2-0.5l0,0l-0.4-0.2l-0.4-0.2l0,0h-0.1c-0.1,0-0.2,0-0.3,0c-0.1,0-0.1-0.5-0.1-1.1v-1.1h2.6h2.6l0,0h1.1
			h1.1h0.1h0.1h1.1h1.1l0,0h1.6c0.9,0,1.6,0,1.6,0.1c0,0,0,0.1,0,0.1v0.1h-0.1v0.1c0,0,0,0.1,0,0.1v0.1H76v0.1c0,0,0,0.1,0,0.1v0.1
			h-0.1v0.7c0,0.4,0,0.7,0,0.8c0,0,0,0.4,0,0.7v0.6l0,0v0.5c0,0.3,0,0.5,0,0.6c0,0,0,0.4,0,0.7v0.6l0,0v0.5v0.5l0,0v0.6v0.6l0,0v2.2
			c0,1.2,0,2.2,0,2.3c0,0,0,0.5,0,1.1v1.1l0,0v0.3c0,0.2-0.1,0.3-0.1,0.3c-0.1,0-0.1,0-0.1-0.1v-0.1h-0.1l-0.1-0.1l-0.1,0.1h-0.1
			c0,0-0.3,0-0.6,0h-0.5l0,0v0.1c0,0-0.4,0.1-0.9,0.1c-0.5,0-0.9,0-0.9-0.1v-0.1l0,0h-0.1c0,0-0.1,0-0.1,0H72v0.1l-0.1-0.1l-0.1-0.1
			l0,0l-0.1,0c-0.1,0-0.2,0-0.4,0c-0.2,0-0.6-0.1-1-0.2c-0.4-0.1-0.8-0.3-0.9-0.4L69.2,156.4 M57.1,143.5v-0.6c0-0.4,0-0.7,0-0.7
			c0,0,0-0.1,0-0.2v-0.1l0,0H57c0,0-0.1-0.1-0.1-0.1c0-0.1,0.5-0.1,1.3-0.1c0.7,0,1.3,0,1.3,0.1c0,0,0,0.1,0,0.1v0.1l0,0v0.2
			c0,0.1,0,0.2,0,0.3c0,0,0,0.1,0,0.2v0.1l0,0v0.5c0,0.4-0.1,0.6-0.3,0.6c-0.2,0-0.3,0-0.3,0v-0.1l0,0h-0.6c-0.4,0-0.7,0-0.7,0
			c0,0-0.1,0-0.2,0h-0.1v0.1h-0.1c0,0-0.1,0-0.1-0.1v-0.1"/>
		<path class="st26" d="M161.9,204.4v-5.6c0-3.1,0-5.7,0-5.7c0,0,0-0.6,0-1.3v-1.2l0,0l0-0.1c0-0.1,0-0.8,0.1-1.7
			c0-0.9,0.2-2.1,0.3-2.7c0.1-0.6,0.4-1.5,0.7-2c0.3-0.7,0.7-1.2,1.3-1.8c0.6-0.6,1.2-1,1.8-1.3c0.5-0.2,1.1-0.5,1.2-0.5
			c0.2-0.1,0.5-0.2,0.8-0.3c0.3-0.1,0.8-0.2,1.1-0.2c0.3,0,1-0.1,1.5-0.1c0.8-0.1,0.9-0.1,0.9-0.3c0-0.2,0-0.3-0.1-0.3h-0.1l0,0
			v-0.6c0-0.4,0-0.7,0-0.7c0,0,0-0.4,0-0.9v-0.8l0,0V176c0-0.1,0-0.3,0-0.3c0,0,0-0.3,0-0.6v-0.5l0,0l0.1-0.1c0,0,0.1-0.1,0.1-0.1
			v-0.1h-0.1v-0.1c0,0,0-0.1,0-0.1V174h0.1l-0.1-0.1l-0.1-0.1l0,0v-0.1v-0.1v-0.1c0,0,0-0.1,0-0.1v-0.1l0.1-0.1l0,0l0-0.1v-0.1
			l0.1,0v-0.2v-0.2l-0.1,0v-0.1l0.1,0v-0.1c0,0,0-0.1,0-0.1V172h-0.1V172c0,0,0-0.1,0-0.1v-0.1h0.1l-0.1-0.2l-0.1-0.2l0,0l0-0.1h0.1
			v-0.5v-0.5h-0.1V170h0.1v-0.1c0-0.1,0-0.3-0.1-0.5l-0.1-0.4h0l0-0.1l0.1,0v-0.1c0,0,0-0.1,0-0.1v-0.1l-0.1,0v-0.1l0.1,0v-0.3v-0.3
			l-0.1,0v-0.1l0.1,0v-0.2v-0.2l-0.1,0v-0.1l0.1,0l-0.1-0.1l-0.1-0.1l0,0v-0.1c0,0,0-0.1,0-0.1v-0.1l0,0h0.1c0,0,0.1,0,0.1-0.1v-0.1
			l-0.1,0v-0.1l0-0.1l0,0l0-0.1v-0.1l0.1,0l-0.1-0.1l-0.1-0.1l0,0v-0.5v-0.5l0,0v-0.6v-0.6l0,0V163v-0.5l0,0v-0.1c0,0,0-0.4,0-0.8
			V161l-2.1-1.5c-1.2-0.8-4.1-2.9-6.6-4.7c-2.5-1.8-4.5-3.3-4.6-3.3c0,0-0.1-0.1-0.2-0.2c-0.1,0-1.4-0.9-3-2l-2.8-2l0,0h-0.6
			c-0.4,0-0.7,0-0.7,0c0,0-0.7,0-1.4,0h-1.4l0,0H148c-0.1,0-0.3,0-0.6-0.1c-0.3,0-0.6-0.2-0.8-0.4c-0.2-0.2-0.4-0.4-0.5-0.6
			c-0.1-0.2-0.2-1.6-0.2-3.9c0-3.1,0-3.7,0.2-4.4c0.2-0.5,0.4-0.8,0.7-1c0.5-0.3,0.8-0.3,5.2-0.3l4.8,0l0,0h0.5h0.5l0,0h0.2
			c0.1,0,0.2,0,0.3,0c0,0,0.4,0,0.7,0h0.6l0,0h4.5c2.5,0,4.5,0,4.6,0c0,0,2.7,0,6,0h5.9l0,0h0.2c0.1,0,0.2,0,0.3,0c0,0,0.4,0,0.7,0
			h0.6l0,0h0.5c0.3,0,0.5,0,0.6,0c0,0,0.2,0,0.3,0h0.2l0,0h0.1c0,0,0.1,0,0.1,0c0,0,0.2,0,0.3,0h0.2l0,0h1.4h1.4l0,0h0.2
			c0.1,0,0.2,0,0.3,0c0,0,0.4,0,0.7,0h0.6l0,0h0.5h0.5l0,0h0.5c0.3,0,0.5,0,0.6,0c0,0,0.4,0,0.7,0h0.6l0,0h0.5c0.3,0,0.5,0,0.6,0
			c0,0,0.2,0,0.3,0h0.2l0,0h0.2c0.1,0,0.2,0,0.3,0c0,0,0.4,0,0.7,0h0.6l0,0h0.5h0.5l0,0h0c0,0,0.3,0.1,0.6,0.1
			c0.3,0.1,0.7,0.3,0.8,0.4c0.2,0.1,0.4,0.5,0.5,0.8c0.1,0.4,0.2,1.8,0.2,4.1c0,1.9,0,3.6-0.1,3.8c0,0.2-0.1,0.4-0.2,0.6
			c-0.1,0.2-0.4,0.4-0.6,0.6c-0.2,0.2-0.6,0.3-0.8,0.3s-0.4,0-0.5,0h-0.1l0,0h-1.1c-0.6,0-1.2,0-1.2,0c0,0-0.4,0-0.9,0h-0.8l0,0
			l-4.1,3.1c-2.3,1.7-4.2,3.2-4.3,3.3c-0.1,0.1-0.7,0.5-1.2,1c-0.6,0.5-1.1,0.8-1.2,0.8c-0.1,0-0.2,0.1-0.3,0.2
			c-0.1,0.1-0.7,0.6-1.3,1.1c-0.7,0.5-1.4,1.1-1.6,1.2c-0.2,0.2-0.5,0.4-0.6,0.4c-0.1,0-0.2,0.1-0.2,0.2c0,0.1-0.3,0.3-0.6,0.5
			c-0.3,0.2-0.8,0.5-1,0.7c-0.2,0.2-0.5,0.5-0.8,0.7l-0.4,0.4l0,0v8.5c0,4.7,0,8.5,0,8.6c0,0,0,0.4,0,0.7v0.6l0,0v0.1
			c0,0.1,0.1,0.2,0.2,0.2c0.1,0.1,0.4,0.1,0.7,0.2c0.2,0,0.5,0.1,0.6,0.1c0.1,0,0.2,0.1,0.2,0.1c0,0,0.1,0,0.1,0.1
			c0.1,0,0.3,0.1,0.5,0.2c0.2,0.1,0.5,0.2,0.5,0.2c0.1,0,0.5,0.2,1,0.4c0.4,0.3,1.2,0.8,1.6,1.3c0.4,0.4,1,1.2,1.2,1.6
			c0.2,0.4,0.4,0.9,0.4,1c0,0.1,0.1,0.3,0.1,0.3c0.1,0.1,0.1,0.4,0.2,0.7c0.1,0.3,0.2,1,0.2,1.5c0.1,0.5,0.1,0.9,0.1,1l0,0l0,0h-0.1
			c0,0-0.1,1-0.1,2.2c0,1.2,0,2.2,0.1,2.2h0.1l0,0v0.1c0,0,0,0.1,0,0.1v0.1l0,0h-0.1c0,0-0.1,0.3-0.1,0.8c0,0.4,0,0.8,0.1,0.8h0.1
			h-0.1l0,0.1l-0.1,0v0.2v0.2l0.1,0v0.1l-0.1,0v0.2v0.2l0.1,0l0,0.1l-0.1,0v0.1c0,0.1,0,0.1,0.1,0.2c0,0,0.1,0.1,0.1,0.2v0.1l0,0
			h-0.1c0,0-0.1,0.2-0.1,0.5c0,0.3,0,0.5,0.1,0.5h0.1l0,0l-0.1,0.7c0,0.4-0.1,0.8-0.1,0.9l0,0.3l0.1,0v0.1l0,0.1l0,0l0.1,0.1v0.1
			c0,0,0,0.1,0,0.1v0.1l0,0l-0.1,0c0,0-0.1,0.1-0.1,0.1c0,0.1,0,0.4,0,0.7v0.6h0.1v0.1H183l0,0.1c0,0.1,0,0.6,0.1,1.1l0.1,1l0,0
			l-0.1,1c0,0.5-0.1,1.1-0.1,1.4c0,0.2-0.2,0.8-0.4,1.4c-0.2,0.5-0.5,1.3-0.8,1.8c-0.2,0.4-0.7,1.2-1.1,1.6
			c-0.4,0.5-1.1,1.1-1.5,1.5c-0.5,0.4-1.2,0.9-1.7,1.2c-0.5,0.3-1.1,0.5-1.3,0.6c-0.2,0-0.7,0.2-1,0.3c-0.5,0.2-1.1,0.2-2.6,0.2
			c-1.6,0-2.1,0-2.9-0.3c-0.6-0.2-1.3-0.5-1.6-0.6c-0.3-0.2-0.8-0.4-1-0.5c-0.3-0.1-0.8-0.5-1.2-0.9c-0.4-0.3-1.1-1-1.5-1.5
			c-0.4-0.5-0.9-1.3-1.2-1.8c-0.3-0.5-0.6-1.2-0.6-1.4c-0.1-0.3-0.1-0.5-0.1-0.6c0,0-0.1-0.1-0.1-0.2c0-0.1-0.1-0.4-0.2-0.7
			c0-0.3-0.1-0.8-0.2-1.1C161.9,204.9,161.9,204.6,161.9,204.4L161.9,204.4 M172.2,211.1h-0.3c-0.1,0-0.5,0-0.8-0.1
			c-0.3,0-0.7-0.2-0.9-0.3l-0.3-0.2l0,0l-0.1-0.1l-0.1-0.1l0,0l-0.1-0.1l-0.1-0.1l0,0h-0.1c0,0-0.1,0-0.1,0.1c0,0-0.2,0-0.2-0.1
			l-0.2-0.2l0,0h-0.1c0,0-0.1,0-0.1-0.1v-0.1l0,0h-0.1c-0.1,0-0.1,0-0.2-0.1c0,0-0.1-0.1-0.1-0.1c0,0-0.2-0.2-0.3-0.4l-0.3-0.4l0,0
			h-0.1c0,0-0.1,0-0.1-0.1v-0.1l0,0h-0.1c0,0-0.1,0-0.1-0.1v-0.1l0,0l-0.2-0.4l-0.2-0.4l0,0h-0.1c0,0-0.2-0.2-0.3-0.4
			c-0.1-0.2-0.2-0.4-0.2-0.4c0,0,0.1-0.1,0.2-0.1h0.1l0,0h1.1c0.6,0,1.1,0,1.1,0c0,0,0.4,0,0.7,0h0.6l0,0v-0.1c0,0,0-0.1,0.1-0.1
			c0.1,0,0.2-0.1,0.3-0.1c0.1,0,0.3,0,0.3,0.1l0.1,0.1l0,0l0-0.1c0,0,0.1-0.1,0.1-0.1h0.1l0,0l0.1-0.1c0-0.1,0.1-0.1,0.1-0.1
			s0.2-0.2,0.4-0.4l0.3-0.4l0,0v-0.3c0-0.2,0-0.4,0-0.6c0-0.2-0.1-0.4-0.1-0.4c-0.1-0.1-0.1-0.2-0.1-0.3V204l0,0h-0.1
			c0,0-0.1,0-0.1-0.1c0,0,0-0.1-0.1-0.1l-0.1-0.1l0,0h-0.1c-0.1,0-0.2-0.1-0.2-0.1c0-0.1-0.3-0.2-0.5-0.2l-0.4-0.1l0,0h-2.2h-2.2
			h-0.1l-0.1-0.5c0-0.3-0.1-0.6-0.1-0.6l0-0.1l0,0v-0.1c0,0,0-0.6,0-1.1v-1.1l0.5,0c0.3,0,0.5,0.1,0.5,0.1l0,0l0,0v-0.1
			c0,0,0.2-0.1,0.5-0.1c0.3,0,0.5,0,0.5,0.1v0.1v-0.1l0.1,0l0-0.1h0.1c0.1,0,0.1,0,0.1,0.1l0.1,0.1l0,0l0.1,0l0-0.1l0.1,0
			c0.1,0,0.4,0,0.9,0.1l0.8,0.1l0,0l0.1-0.1c0.1,0,0.2,0,0.3,0c0.1,0,0.2,0.1,0.2,0.1l0,0l0,0l0.4-0.1l0.4-0.1l0,0l0.2-0.1l0.2-0.1
			l0,0l0.1-0.2l0.1-0.2l0,0l0.1-0.1l0.1-0.1l0,0v-0.4c0-0.2,0-0.6-0.1-0.8L172,197l0,0l-0.1-0.2l-0.1-0.2l0,0h-0.1c0,0-0.1,0-0.1,0
			s-0.1-0.1-0.2-0.2l-0.2-0.2l0,0H171c-0.1,0-0.3,0-0.3,0c0,0-0.1,0-0.1-0.1V196l0,0h-0.1c-0.1,0-0.2,0-0.2,0c0,0-0.2,0-0.3,0h-0.2
			l0,0h-0.5h-0.5l0,0h-0.6h-0.6l0,0H167h-0.5l0,0l-0.4-0.1l-0.4-0.1l0,0v-0.5v-0.5l0,0v-0.1c0,0,0-0.3,0-0.6v-0.5l0,0v-0.6
			c0-0.4,0-0.6,0.1-0.6h0.1l0,0l0.6-0.1c0.3,0,0.7-0.1,0.7-0.1l0.1,0l0,0h1.1h1.1l0,0l0.6,0c0.3,0,0.6,0,0.7,0c0,0,0.1,0,0.1,0h0.1
			l0,0v-0.1c0,0,0.1-0.1,0.1-0.1c0.1,0,0.3-0.1,0.6-0.3l0.4-0.3l0,0l0.1-0.3c0-0.1,0.1-0.6,0.1-0.9l0.1-0.7l0,0h-0.1
			c0,0-0.1,0-0.2,0c0,0,0-0.1,0-0.1l0.1-0.1l0,0l-0.1-0.2l-0.1-0.2l0,0l-0.2-0.1l-0.2-0.1l0,0l-0.1-0.1l-0.1-0.1l0,0h-0.2
			c-0.1,0-0.3,0-0.3,0c0,0-0.1,0-0.1,0h-0.1l0,0h-0.6c-0.4,0-0.7,0-0.7,0c0,0-0.8,0-1.6,0h-1.6h-0.1v-0.1c0,0,0-0.1,0.1-0.1h0.1l0,0
			v-0.1c0-0.1,0-0.2,0-0.3s0-0.2,0.1-0.2l0.1-0.1l0,0v-0.1c0-0.1,0-0.3,0-0.5c0-0.2,0.1-0.6,0.2-0.9c0.1-0.3,0.3-0.6,0.4-0.7
			l0.2-0.1l0,0l0.3-0.3l0.3-0.3l0,0v-0.1c0,0,0.1-0.1,0.2-0.2c0.1-0.1,0.4-0.3,0.7-0.4c0.3-0.1,0.7-0.3,0.9-0.3
			c0.2-0.1,0.4-0.1,0.5-0.1l0.1,0.1l0,0v-0.1c0,0,0.4-0.1,0.8-0.2c0.4-0.1,1.7-0.1,2.9,0c1.6,0.1,2.3,0.1,3,0.4
			c0.5,0.2,1.1,0.4,1.2,0.5c0.2,0.1,0.3,0.3,0.3,0.3v0.1l0,0h0.1c0.1,0,0.3,0.2,0.5,0.5c0.2,0.3,0.4,0.9,0.6,1.4
			c0.1,0.5,0.2,1.1,0.2,1.4c0,0.3,0,0.7,0,0.7v0.1l0,0v0.5c0,0.3,0,0.5,0,0.6v0.1l0,0v0.6c0,0.3,0,0.7,0,0.7c0,0,0,3,0,6.5v6.4l0,0
			v0.6c0,0.3-0.1,1-0.3,1.4c-0.1,0.4-0.3,0.9-0.4,1.1c-0.1,0.2-0.2,0.3-0.2,0.3h-0.1l0,0v0.1c0,0.1,0,0.1-0.1,0.1l-0.1,0.1l0,0
			l-0.3,0.4l-0.3,0.4l0,0v0.1c0,0,0,0.1-0.1,0.1h-0.1l0,0l-0.1,0.1l-0.1,0.1l0,0v0.1c0,0,0,0.1-0.1,0.1H177l0,0l-0.2,0.2
			c-0.1,0.1-0.2,0.3-0.2,0.3c0,0,0,0-0.1,0c0,0-0.1,0-0.1,0h-0.1l0,0l-0.7,0.4c-0.4,0.2-0.8,0.4-0.9,0.4c-0.1,0-0.2,0-0.2,0h-0.1
			l0,0l-0.2,0.1c-0.1,0.1-0.4,0.1-0.6,0.1c-0.3,0-0.6,0-0.7,0h-0.2l0,0v0.1c0,0-0.1,0.1-0.3,0.1
			C172.3,211.3,172.2,211.2,172.2,211.1L172.2,211.1 M172.6,157.1L172.6,157.1c-0.1,0-0.2,0-0.3,0c-0.1,0-0.1-0.1-0.1-0.1v-0.1l0,0
			h-0.1c0,0-0.1,0-0.1,0c0,0-0.2-0.2-0.4-0.4l-0.4-0.3l0,0l-0.2-0.1l-0.2-0.1l0,0h-0.1c0,0-0.1,0-0.1,0s-0.1-0.1-0.2-0.2l-0.2-0.2
			l0,0l-0.2-0.1c-0.1,0-0.2-0.1-0.2-0.1c0,0-0.2-0.1-0.3-0.2c-0.2-0.1-0.3-0.2-0.3-0.3v-0.1l0,0l-0.2-0.1l-0.2-0.1l0,0h-0.1
			c0,0-0.1,0-0.1,0s-0.1-0.1-0.2-0.2l-0.2-0.2l0,0l-0.2-0.1l-0.2-0.1l0,0h-0.1c0,0-0.1,0-0.2,0c-0.1,0-0.1-0.1-0.2-0.2l-0.1-0.2l0,0
			l-0.2-0.1l-0.2-0.1l0,0h-0.1c0,0-0.1,0-0.1,0s-0.1-0.1-0.2-0.2l-0.2-0.2l0,0l-0.2-0.1l-0.2-0.1l0,0h-0.1c0,0-0.1,0-0.1,0
			s-0.1-0.1-0.2-0.2l-0.2-0.2l0,0l-0.2-0.1l-0.2-0.1l0,0h-0.1c0,0-0.1,0-0.1,0s-0.1-0.1-0.2-0.2l-0.2-0.2l0,0l-0.2-0.1l-0.2-0.1l0,0
			h-0.1c0,0-0.1,0-0.1,0c0,0-0.2-0.2-0.4-0.4l-0.4-0.3l0,0l-0.2-0.1l-0.2-0.1l0,0h-0.1c0,0-0.1,0-0.1,0c0,0-0.1-0.1-0.2-0.2
			l-0.2-0.2l0,0l-0.2-0.1l-0.2-0.1l0,0h-0.1c0,0-0.1,0-0.1,0c0,0-0.1-0.1-0.2-0.2l-0.2-0.2l0,0l-0.2-0.1l-0.2-0.1l0,0h-0.1
			c0,0-0.1,0-0.1,0c0,0-0.1-0.1-0.2-0.2l-0.2-0.2l0,0l-0.2-0.1l-0.2-0.1l0,0h-0.1c0,0-0.1,0-0.1,0c0,0-0.1-0.1-0.2-0.2l-0.2-0.2l0,0
			l-0.2-0.1l-0.2-0.1l0,0h-0.1c0,0-0.1,0-0.1,0c0,0-0.2-0.2-0.4-0.4l-0.4-0.3l0,0l-0.2-0.1l-0.2-0.1l0,0h-0.1c0,0-0.1,0-0.1,0
			c0,0-0.1-0.1-0.2-0.2l-0.1-0.2l0,0l-0.2-0.1l-0.2-0.1l0,0h-0.1c0,0-0.1,0-0.1-0.1v-0.1l0,0l-0.2-0.1l-0.2-0.1l0,0l-0.2-0.1
			l-0.2-0.1l0,0h-0.1c0,0-0.1,0-0.1,0s-0.1-0.1-0.2-0.2l-0.2-0.2l0,0l-0.1,0c-0.1,0-0.3-0.1-0.5-0.2c-0.2-0.1-0.5-0.2-0.6-0.2h-0.2
			l0,0h-0.6c-0.4,0-0.7,0-0.7,0c0,0-0.4,0-0.9,0h-0.8l0,0h-0.1c0,0-0.1,0-0.1,0.1c0,0.1-0.1,0-0.1-0.1v-0.2l0,0v-0.3
			c0-0.2,0-0.3,0-0.4c0,0,0-0.4,0-0.9v-0.8l0,0l0-0.1c0-0.1,0-0.2,0-0.4c0-0.2,0.1-0.3,0.5-0.3l0.5,0l0,0h0.2c0.1,0,0.2,0,0.3,0
			c0,0,0.1,0,0.2,0h0.1l0,0h0.1c0,0,0.1,0,0.1,0c0,0,0.2,0,0.3,0h0.2l0,0h0.5h0.5l0,0h0.1c0,0,0.1,0,0.1,0c0,0,0.2,0,0.3,0h0.2l0,0
			h0.2c0.1,0,0.2,0,0.3,0c0,0,0.1,0,0.2,0h0.1h0.1h0.1c0,0,0.1,0,0.1,0h0.1h0.1h0.2c0.1,0,0.2,0,0.3,0c0,0,0.1,0,0.2,0h0.1h0.1h0.1
			h0.6c0.3,0,0.6,0,0.6,0c0,0,0.5,0,1,0h0.9l0,0h0.5c0.3,0,0.5,0,0.6,0h0.1l0,0h0.2c0.1,0,0.2,0,0.3,0c0,0,0.1,0,0.2,0h0.1h0.1h0.1
			c0,0,0.1,0,0.1,0h0.1h0.1h0.2c0.1,0,0.2,0,0.3,0c0,0,0.1,0,0.2,0h0.1l0,0h0.2c0.1,0,0.2,0,0.3,0c0,0,0.5,0,1.1,0h1l0,0h0.2
			c0.1,0,0.2,0,0.3,0c0,0,0.1,0,0.2,0h0.1l0,0h0.5c0.3,0,0.5,0,0.6,0h0.1l0,0h0.2c0.1,0,0.2,0,0.3,0c0,0,0.1,0,0.2,0h0.1l0,0h0.6
			h0.6l0,0h1.1h1.1l0,0h0.6h0.6l0,0h0.5h0.5h0.1h0.1h0.2c0.1,0,0.2,0,0.3,0c0,0,0.1,0,0.2,0h0.1l0,0h0.2c0.1,0,0.2,0,0.3,0
			c0,0,0.1,0,0.2,0h0.1l0,0h0.2c0.1,0,0.2,0,0.3,0c0,0,0.5,0,1.1,0h1h0.1h0.1c0,0,0.1,0,0.1,0h0.1h0.1h0.8c0.4,0,0.8,0,0.9,0
			c0,0,0.4,0,0.7,0h0.6l0,0h0.5h0.5l0,0h0.1c0,0,0.1,0,0.1,0c0,0,0.2,0,0.3,0h0.2l0,0h1.4h1.4l0.1-0.1l0,0l0.1,0.1h0.5h0.5l0.1-0.1
			l0,0l0.1,0.1h0.2h0.2l0.1-0.1l0,0l0.1,0.1h1.4c0.7,0,1.4,0,1.4,0c0,0,0.4,0,0.7,0h0.6h0.1h0.1h0.3h0.3l0.1-0.1l0,0l0.1,0.1h0.1
			c0,0,0.1,0,0.1,0c0,0,0.2,0,0.3,0h0.2l0,0h0.5c0.3,0,0.5,0,0.6-0.1c0.1-0.1,0.1,0,0.1,0.1c0,0.1,0,0.2-0.1,0.2h-0.1l0,0v0.2
			c0,0.1,0,0.2,0,0.3c0,0,0,0.5,0,1.1v1l0,0l0.1,0.1c0,0.1,0,0.2-0.1,0.2c-0.1,0-0.2,0.1-0.3,0.1H195l0,0h-0.6c-0.4,0-0.7,0-0.7,0
			c0,0-0.4,0-0.8,0h-0.7l0,0h-0.3c-0.1,0-0.4,0.1-0.6,0.2c-0.2,0.1-0.4,0.2-0.5,0.2l-0.1,0l0,0v0.1c0,0,0,0.1-0.1,0.1h-0.1l0,0
			l-0.2,0.2c-0.1,0.1-0.2,0.2-0.2,0.2c0,0-0.1,0-0.1,0H190l0,0l-0.2,0.2c-0.1,0.1-0.2,0.2-0.2,0.2c0,0-0.1,0-0.1,0h-0.1l0,0v0.1
			c0,0,0,0.1-0.1,0.1h-0.1l0,0l-0.2,0.2c-0.1,0.1-0.2,0.2-0.2,0.2c0,0-0.1,0-0.1,0h-0.1l0,0l-0.2,0.2c-0.1,0.1-0.2,0.2-0.2,0.2
			c0,0-0.1,0-0.1,0h-0.1l0,0v0.1c0,0,0,0.1-0.1,0.1H188l0,0l-0.2,0.2c-0.1,0.1-0.2,0.2-0.2,0.2c0,0-0.1,0-0.1,0h-0.1l0,0l-0.2,0.2
			c-0.1,0.1-0.2,0.2-0.2,0.2s-0.1,0-0.1,0h-0.1l0,0l-0.2,0.2c-0.1,0.1-0.2,0.3-0.2,0.3c0,0,0,0-0.1,0c0,0-0.1,0-0.1,0h-0.1l0,0
			l-0.2,0.2c-0.1,0.1-0.2,0.2-0.2,0.2s-0.1,0-0.1,0h-0.1l0,0v0.1c0,0,0,0.1-0.1,0.1h-0.1l0,0l-0.2,0.2c-0.1,0.1-0.2,0.2-0.2,0.2
			c0,0-0.1,0-0.1,0h-0.1l0,0l-0.4,0.4c-0.2,0.2-0.4,0.4-0.4,0.4c0,0,0,0.1,0,0.1c0,0-0.1,0-0.2,0.1l-0.2,0.1l0,0l-0.2,0.2
			c-0.1,0.1-0.2,0.2-0.2,0.2s-0.1,0-0.1,0H183l0,0l-0.2,0.2c-0.1,0.1-0.2,0.2-0.2,0.2c0,0-0.1,0-0.1,0h-0.1l0,0v0.1
			c0,0,0,0.1-0.1,0.1h-0.1l0,0l-0.2,0.2c-0.1,0.1-0.2,0.2-0.2,0.2s-0.1,0-0.1,0h-0.1l0,0l-0.2,0.2c-0.1,0.1-0.2,0.2-0.2,0.2
			c0,0-0.1,0-0.1,0h-0.1l0,0v0.1c0,0,0,0.1-0.1,0.1H181l0,0l-0.2,0.2c-0.1,0.1-0.2,0.2-0.2,0.2c0,0-0.1,0-0.1,0h-0.1l0,0l-0.2,0.2
			c-0.1,0.1-0.2,0.2-0.3,0.2c0,0-0.1,0-0.2,0.1l-0.1,0.1l0,0l-0.2,0.2c-0.1,0.1-0.2,0.2-0.2,0.2c0,0-0.1,0-0.1,0h-0.1l0,0l-0.2,0.2
			c-0.1,0.1-0.2,0.2-0.2,0.2c0,0-0.1,0-0.1,0h-0.1l0,0v0.1c0,0,0,0.1-0.1,0.1h-0.1l0,0l-0.2,0.2c-0.1,0.1-0.2,0.2-0.2,0.2
			c0,0-0.1,0-0.1,0h-0.1l0,0l-0.2,0.2c-0.1,0.1-0.2,0.2-0.2,0.2c0,0-0.1,0-0.1,0h-0.1l0,0v0.1c0,0,0,0.1-0.1,0.1h-0.1l0,0l-0.2,0.2
			c-0.1,0.1-0.2,0.2-0.2,0.2c0,0-0.1,0-0.1,0h-0.1l0,0l-0.2,0.2c-0.1,0.1-0.2,0.2-0.2,0.2s-0.1,0-0.1,0H176l0,0l-0.2,0.2
			c-0.1,0.1-0.2,0.3-0.2,0.3c0,0,0,0-0.1,0c0,0-0.1,0-0.1,0h-0.1l0,0l-0.2,0.2c-0.1,0.1-0.2,0.2-0.2,0.2s-0.1,0-0.1,0h-0.1l0,0
			l-0.2,0.2c-0.1,0.1-0.2,0.3-0.2,0.3c0,0,0,0-0.1,0c0,0-0.1,0-0.1,0H174l0,0v0.1c0,0-0.2,0.2-0.4,0.3l-0.4,0.3l-0.3-0.3
			C172.8,157.3,172.6,157.1,172.6,157.1L172.6,157.1"/>
		<path class="st26" d="M119.7,212.7v-0.1c0-0.1,0-0.2,0-0.2c0,0,0-0.2,0-0.3v-0.2l0,0v-5.1c0-2.8,0-5.1,0-5.1c0,0,0-0.2,0-0.3v-0.2
			l0,0v-0.6c0-0.4,0-0.7,0-0.7c0,0,0-0.4,0-0.9v-0.8V198v-0.1v-0.1v-0.6v-0.6l0,0v-0.6c0-0.4,0-0.7,0-0.7c0,0,0-0.6,0-1.1v-1.1l0,0
			v-0.5v-0.5l0,0v-0.6c0-0.4,0-0.7,0-0.7c0,0,0-1.8,0-3.9v-3.9l0,0v-0.6c0-0.4,0-0.7,0-0.7c0,0,0-0.2,0-0.3v-0.2l0,0v-0.6
			c0-0.4,0-0.7,0-0.7c0,0,0-2.6,0-5.8V168l0,0V167v-1.1l0,0l0-0.1c0-0.1,0-0.5,0.1-0.9c0-0.4,0.2-1,0.3-1.2c0.1-0.2,0.4-0.5,0.7-0.6
			c0.2-0.1,0.6-0.2,0.9-0.2c0.3,0,0.7,0.1,0.9,0.2c0.2,0.1,0.5,0.4,0.6,0.6c0.1,0.2,0.3,0.5,0.3,0.7l0.1,0.3l0,0h-0.1
			c0,0-0.1,0.2-0.1,0.5c0,0.3,0,0.5,0.1,0.5h0.1l0,0v0.1c0,0,0,0.1,0,0.1v0.1l-0.1,0.1l0,0l0.1,0.1v0.8c0,0.4,0,0.8,0,0.9
			c0,0,0,1.1,0,2.3v2.2l-0.1,0.1l0,0l0.1,0.1v2c0,1.1,0,2,0,2.1c0,0,0,0.7,0,1.6v1.5l0,0v0.1c0,0,0,0.1,0,0.1v0.1l0,0l-0.1,0.4
			c0,0.2-0.1,0.4-0.1,0.5l0,0.1l0,0v0.8c0,0.4,0,0.8,0,0.9c0,0,0,0.2,0,0.4v0.3l0,0v0.1c0,0,0,0.4,0,0.7v0.6l0,0l0.1,4.4l0.1,4.4
			h-0.1l0,0.1l0,0.1l0,0l0.1,0.1v0.2v0.2l0,0l-0.1,0.1c0,0.1-0.1,0.2-0.1,0.2c0,0.1,0,0.2,0,0.3v0.1l0.1,0v0.1l0,0.1l0,0l0,0.1
			l0,0.1l-0.1,0v0.1c0,0,0,0.1,0.1,0.1h0.1l0,0v0.5c0,0.3,0,0.5,0,0.6v0.1l0,0v6.3c0,3.5,0,6.3,0,6.3c0,0,0,0.4,0,0.7v0.6l-0.1,0.1
			l0,0l0.1,0.1v0.1c0,0,0,0.1,0,0.1v0.1h-0.1v0.1c0,0,0,0.1,0,0.1v0.1h0.1v0.1c0,0,0,0.1,0,0.1c0,0,0,0.2,0,0.3v0.2l0,0l-0.1,0.2
			l-0.1,0.2h0.1v0.1c0,0,0,0.1,0,0.1v0.1v0.1h-0.1c0,0-0.1,0.2-0.1,0.4c0,0.2-0.2,0.6-0.4,0.8c-0.2,0.2-0.6,0.4-0.9,0.5
			c-0.4,0.1-0.6,0.1-1.1-0.1c-0.3-0.1-0.7-0.4-0.8-0.6c-0.1-0.2-0.3-0.5-0.3-0.7C119.7,212.9,119.7,212.7,119.7,212.7L119.7,212.7"
			/>
		<path class="st26" d="M91.7,194.3v-0.6c0-0.4,0-0.7,0-0.7c0,0,0-3.3,0-7.1v-7.1l0,0v0c0,0,0-0.1,0.1-0.3c0-0.1,0.1-0.4,0.2-0.6
			c0.1-0.2,0.4-0.5,0.7-0.7c0.3-0.2,0.6-0.3,0.8-0.3h0.3l0,0h0.6c0.3,0,0.6,0,0.6,0c0,0,0.5,0,1,0h0.9H97h0.1h0.1h0.5h0.5l0,0h0.5
			c0.3,0,0.5,0,0.6,0c0,0,0.4,0,0.7,0h0.6l0,0h1.7h1.7l0.1,0.1l0,0l0.1-0.1h0.2h0.2l0.1,0.1l0,0l0.1-0.1h0.5h0.5l0.1,0.1l0,0
			l0.1-0.1h0.2h0.2l0.1,0.1l0,0l0.1-0.1h0.2h0.2l0,0v0.1c0,0,0.1,0.1,0.2,0.1c0.1,0,0.2,0,0.2-0.1v-0.1l0,0l0.1,0l0,0.1h0.1
			c0.1,0,0.3,0,0.5-0.1l0.4-0.1v0l0.1,0l0.1,0l0,0l0.1-0.1h0.2h0.2l0.1,0.1l0,0l0.1-0.1h0.2h0.2l0.1,0.1l0,0l0.1-0.1h0.2
			c0.1,0,0.2,0,0.3,0c0,0,0.1,0,0.2,0h0.1l0,0l0.6,0.1c0.3,0,0.7,0.2,0.9,0.3c0.2,0.1,0.4,0.5,0.6,0.8c0.1,0.3,0.2,0.6,0.2,0.8
			c0,0.1,0,0.2,0,0.3v0.1l0,0v0.4c0,0.2,0,0.4,0,0.4c0,0,0,3.3,0,7.2v7.1l0,0v0.2c0,0.1,0,0.3-0.1,0.4c-0.1,0.1-0.1,0.3-0.1,0.5
			s-0.3,0.5-0.5,0.7c-0.3,0.2-2.4,1.6-4.7,3.1c-2.4,1.5-4.5,2.8-4.8,2.9c-0.4,0.1-0.6,0.1-1.1-0.1c-0.4-0.2-2.5-1.4-4.7-2.9
			c-2.2-1.4-4.3-2.7-4.5-2.9c-0.2-0.2-0.5-0.6-0.6-0.9C91.8,194.8,91.7,194.5,91.7,194.3L91.7,194.3 M102.1,197.6L102.1,197.6
			c-0.1,0-0.2,0-0.2,0c0,0-0.3-0.2-0.5-0.4l-0.5-0.4l0,0l-0.2-0.1l-0.2-0.1l0,0l-0.4-0.2l-0.4-0.2l0,0l-0.2-0.1l-0.2-0.1l0,0
			l-0.2-0.1l-0.2-0.1l0,0l-0.4-0.2l-0.4-0.2l0,0l-0.2-0.1l-0.2-0.1l0,0l-0.4-0.2l-0.4-0.2l0,0l-0.2-0.1l-0.2-0.1l0,0h-0.1
			c0,0-0.1,0-0.2,0c-0.1,0-0.1-0.1-0.1-0.1v-0.1l0,0l-0.1,0c-0.1,0-0.3-0.1-0.5-0.2c-0.2-0.1-0.3-0.2-0.3-0.2h0.1v-0.1v-0.1
			c0,0,0-0.1,0-0.1V193l-0.1-0.1l0,0l0.1-0.1v-0.2v-0.2l-0.1-0.1l0,0l0.1-0.1v-1.1v-1.1l-0.1-0.1l0,0l0.1-0.1v-1.7v-1.7l0,0v-0.1
			c0,0,0-0.1,0-0.1v-0.1h-0.1v-0.1c0-0.1,0-0.2,0-0.3c0-0.1,0-0.2,0.1-0.2l0.1-0.1l0,0l0-0.1h-0.1v-1.9c0-1.1,0-2,0-2s0-0.3,0.1-0.5
			l0.1-0.4l0,0v-0.1c0,0,0-0.1,0.1-0.1c0.1,0,0.2,0,0.2,0l0.1,0.1l0,0h0.5c0.3,0,0.5,0,0.6,0h0.1l0.1-0.1l0,0l0.1,0.1h0.1
			c0,0,0.1,0,0.1,0h0.1v-0.1h0.1c0.1,0,0.2,0,0.2,0.1l0.1,0.1l0,0h0.2c0.1,0,0.2,0,0.3,0c0,0,0.1,0,0.2,0h0.1l0.1-0.1l0,0l0.1,0.1
			h0.3c0.2,0,0.3,0,0.4,0c0,0,0.4,0,0.7,0h0.6l0.1-0.1l0,0l0.1,0.1h2.8h2.8l0,0h0.1c0,0,0.1,0,0.1,0c0,0,0.2,0,0.3,0h0.2l0,0h0.1
			c0,0,0.4,0,0.7,0h0.6l0,0v-0.1c0,0,0.1-0.1,0.1-0.1c0.1,0,0.1,0,0.1,0.1v0.1l0,0l0.1-0.1c0.1,0,0.1,0.1,0.1,0.3
			c0,0.2-0.1,0.4-0.1,0.4v0l0,0v0.3v0.3l0,0h0.1c0,0,0.1,2.6,0.1,5.8c0,3.2,0,5.8-0.1,5.8h-0.1l0,0v0.1c0,0.1-0.2,0.2-0.4,0.4
			c-0.2,0.1-0.4,0.3-0.5,0.3c0,0-0.1,0.1-0.2,0.1h-0.1l0,0l-0.5,0.4c-0.2,0.2-0.5,0.4-0.5,0.4c0,0-0.1,0-0.1,0H107l0,0l-0.2,0.1
			l-0.2,0.1l0,0l-0.4,0.2l-0.4,0.2l0,0l-0.2,0.1l-0.2,0.1l0,0l-0.2,0.1l-0.2,0.1l0,0l-0.4,0.2l-0.4,0.2l0,0l-0.2,0.1l-0.2,0.1l0,0
			l-0.4,0.2l-0.4,0.2l0,0l-0.2,0.1l-0.2,0.1l0,0v0.1c0,0-0.1,0.1-0.2,0.2c-0.1,0.1-0.2,0-0.3-0.1L102.1,197.6"/>
		<path class="st26" d="M138.1,151.4L138.1,151.4c0.1,0,0.1-0.3,0.1-0.7c0-0.4,0-0.7-0.1-0.7h-0.1l0,0l0.1-0.5c0-0.3,0.2-0.7,0.4-1
			c0.2-0.3,0.5-0.5,0.7-0.6c0.2-0.1,0.5-0.1,0.7-0.1c0.2,0,0.6,0.1,0.9,0.2c0.3,0.2,0.6,0.4,0.8,0.8c0.2,0.4,0.2,0.8,0.2,1.6
			c0,0.6,0,1,0.1,1c0.1,0,0.4,0.1,0.8,0.3c0.4,0.2,0.7,0.3,0.8,0.3c0,0,0.6,0.2,1.3,0.5c0.7,0.3,2.1,1,3.3,1.6
			c1.1,0.6,2.1,1.2,2.2,1.3c0.1,0.1,0.9,0.6,1.8,1.3c0.9,0.7,2.4,1.9,3.4,2.7c1,0.8,2.4,2.3,3.2,3.2c0.8,0.9,2,2.4,2.7,3.3
			c0.7,0.9,1.7,2.5,2.3,3.6c0.6,1.1,1.5,3,2,4.2c0.5,1.2,0.9,2.4,0.9,2.6c0,0.2-0.1,0.6-0.1,0.8c-0.1,0.2-0.3,0.5-0.5,0.7
			s-0.6,0.4-0.9,0.5c-0.4,0.1-0.7,0-1.1-0.3c-0.3-0.2-0.7-0.6-0.9-0.9c-0.2-0.3-0.5-1.2-0.9-2c-0.3-0.8-1-2.2-1.5-3.2
			c-0.5-0.9-1.5-2.5-2.1-3.4c-0.6-0.9-1.8-2.4-2.5-3.2c-0.8-0.9-2-2.1-2.7-2.7c-0.7-0.6-1.9-1.6-2.7-2.2c-0.8-0.6-1.8-1.3-2.2-1.6
			c-0.4-0.3-0.8-0.5-0.8-0.5c0,0-0.5-0.3-1.1-0.6c-0.5-0.3-1.4-0.8-1.8-1c-0.5-0.2-1.3-0.6-2-0.9l-1.2-0.5l-0.1,0.5
			c-0.1,0.2-0.1,1.5-0.2,2.8c0,1.3-0.1,2.5-0.2,2.8c-0.1,0.2-0.1,0.6-0.1,0.7c0,0.2-0.2,0.5-0.4,0.8c-0.2,0.3-0.5,0.5-0.7,0.5
			c-0.2,0-0.4,0.1-0.4,0.1c0,0.1-0.1,0.1-0.2,0.1c-0.1,0-0.3-0.1-0.5-0.1c-0.2,0-1.1-0.4-2.1-0.9c-0.9-0.4-2.1-1-2.5-1.2
			s-0.9-0.4-0.9-0.4c-0.1,0-0.8-0.4-1.7-0.8c-0.9-0.4-1.8-0.9-1.9-1.1c-0.2-0.2-0.4-0.5-0.5-0.8c-0.1-0.3-0.1-0.6,0-0.9
			c0.1-0.3,0.2-0.6,0.3-0.7c0.1-0.1,0.3-0.3,0.5-0.5c0.2-0.1,0.6-0.2,0.8-0.2c0.2,0,0.8,0.1,1.2,0.3c0.4,0.2,1.2,0.5,1.7,0.8
			c0.5,0.3,1.6,0.8,2.3,1.1c0.8,0.4,1.4,0.6,1.5,0.6c0,0,0.1-1.7,0.3-3.6L138.1,151.4"/>
		<path class="st26" d="M114.3,125.7L114.3,125.7c0,0.1,0.3,0.1,0.8,0.1c0.4,0,0.8,0,0.8-0.1v-0.1l0,0l3.1-0.1c1.7-0.1,4.2,0,5.5,0
			c1.4,0.1,3.3,0.1,4.4,0.2c1.1,0,2,0.1,2.1,0.1c0.1,0,0.9,0.1,1.9,0.2c0.9,0,1.8,0.1,1.9,0.2c0.1,0.1,0.3,0.1,0.3,0.1
			c0,0,1.7-0.4,3.7-0.9c2-0.4,3.8-0.8,3.9-0.8c0.1,0,0.7-0.3,1.2-0.6c0.5-0.3,1-0.7,1.2-0.8c0.1-0.1,0.4-0.4,0.7-0.8
			s0.6-0.9,0.8-1.3c0.2-0.4,0.4-0.8,0.4-0.9c0-0.1,0-0.3,0.1-0.3c0.1,0,0.2-0.4,0.2-0.8c0.1-0.4,0.1-1.2,0.1-1.7
			c0-0.6,0-1.4-0.1-1.9l-0.2-0.8l-0.9,0.6c-0.5,0.4-1.1,0.7-1.3,0.8c-0.3,0.1-0.6,0.2-0.7,0.2c-0.2,0-0.5-0.1-0.7-0.2
			c-0.3-0.1-0.6-0.4-0.7-0.6c-0.2-0.2-0.3-0.6-0.3-1c0-0.4,0.1-0.7,0.4-1.1c0.2-0.3,0.7-0.8,1.2-1.2c0.5-0.4,1.1-0.8,1.5-0.9
			c0.4-0.2,1.1-0.3,1.5-0.4c0.7-0.1,1,0,1.6,0.2c0.4,0.2,0.9,0.5,1.2,0.8c0.3,0.3,0.5,0.6,0.5,0.7c0,0.1,0.1,0.2,0.1,0.2
			c0.1,0,0.1,0.1,0.1,0.1c-0.1,0.1,0,0.1,0.1,0.1c0.1,0,0.1,0,0.1,0.1c0,0.1,0,0.2,0,0.2c0,0.1,0,0.2,0.1,0.2c0,0.1,0.1,0.3,0.1,0.5
			c0.1,0.2,0.1,0.6,0.2,0.9c0.1,0.3,0.1,1.1,0.1,1.9c0,0.7-0.1,1.9-0.2,2.6c-0.1,0.7-0.4,1.7-0.6,2.4s-0.8,1.7-1.2,2.3l-0.7,1.1l0,0
			l-0.4,0.4c-0.2,0.2-0.4,0.4-0.4,0.4c0,0,0,0,0,0.1v0.1l0,0h0c0,0-0.5,0.3-1,0.7c-0.5,0.4-1,0.7-1.1,0.7c-0.1,0-0.2,0.3-0.3,0.6
			c-0.1,0.3-0.1,0.7-0.1,0.8c0,0.1-0.1,0.5-0.1,0.9c0,0.4-0.2,1.3-0.4,2.1c-0.2,0.7-0.6,2-0.8,2.7c-0.3,0.8-0.8,1.9-1.1,2.5
			c-0.3,0.6-0.5,1.1-0.5,1.1c0,0,0,0.1-0.1,0.1c-0.1,0-0.2,0.1-0.2,0.1c0,0.1-0.3,0.6-0.6,1.1c-0.3,0.5-0.7,1.1-0.8,1.3
			c-0.1,0.2-0.3,0.4-0.4,0.5c-0.1,0.1-0.3,0.5-0.6,0.8s-1.2,1.3-2.1,2.2c-0.9,0.9-2.2,2-2.9,2.5c-0.8,0.5-2.1,1.3-3.1,1.8
			s-2,1-2.3,1.1c-0.3,0.1-1.2,0.4-2,0.7c-0.8,0.2-2,0.5-2.8,0.6c-0.8,0.1-1.9,0.2-2.5,0.2c-0.6,0-1.7-0.1-2.4-0.2
			c-0.7-0.1-1.4-0.2-1.6-0.3c-0.2,0-0.7-0.2-1.2-0.3c-0.5-0.1-1.1-0.3-1.3-0.4c-0.2-0.1-0.5-0.2-0.5-0.2c-0.1,0-0.5-0.2-0.9-0.4
			c-0.4-0.2-0.9-0.4-1.1-0.5s-0.3-0.1-0.3-0.2c0-0.1-0.2-0.2-0.5-0.3c-0.3-0.1-1.1-0.6-1.8-1c-0.7-0.5-1.7-1.2-2.3-1.6
			c-0.5-0.4-1.5-1.4-2.2-2.1c-0.7-0.7-1.6-1.7-2-2.2c-0.4-0.5-1-1.4-1.4-2.1c-0.4-0.7-0.9-1.5-1.1-2c-0.2-0.4-0.6-1.4-0.9-2.1
			c-0.3-0.7-0.5-1.4-0.6-1.5c0-0.1-0.1-0.2-0.1-0.3c0-0.1-0.1-0.3-0.2-0.5c0-0.2-0.2-0.8-0.4-1.4c-0.2-0.6-0.4-1.8-0.5-2.6l-0.2-1.5
			l-0.9-0.6c-0.5-0.3-1.4-1.1-2-1.7c-0.9-0.9-1.2-1.5-1.8-2.6c-0.5-1-0.8-1.9-1-2.8c-0.2-0.8-0.3-1.9-0.3-2.7c0-0.7,0.1-1.8,0.2-2.5
			c0.1-0.7,0.3-1.4,0.5-1.7c0.1-0.3,0.4-0.7,0.6-1c0.2-0.3,0.7-0.6,1.2-0.8c0.6-0.3,0.9-0.4,1.6-0.3c0.6,0,1.1,0.2,1.8,0.5
			c0.5,0.3,1.3,0.8,1.8,1.3c0.6,0.5,0.9,1,1,1.3c0.1,0.3,0.1,0.7,0,0.9c-0.1,0.3-0.3,0.6-0.5,0.9c-0.2,0.2-0.4,0.4-0.5,0.3
			c-0.1,0-0.2,0-0.2,0.1c-0.1,0.1-0.3,0.2-0.6,0.2c-0.4,0-0.7-0.2-1.4-0.7c-0.5-0.4-1-0.7-1.1-0.8c-0.1-0.1-0.2-0.1-0.3,0
			c-0.1,0-0.1,0.5-0.2,1.1c-0.1,0.5-0.1,1.5,0,2.2c0.1,0.7,0.1,1.3,0.2,1.5c0,0.2,0.1,0.4,0.2,0.6c0.1,0.2,0.3,0.7,0.5,1.1
			c0.2,0.4,0.9,1.2,1.4,1.8c0.6,0.6,1.3,1.1,1.7,1.2c0.3,0.1,2,0.5,3.7,0.9c1.7,0.4,3.3,0.7,3.5,0.7c0.2,0,0.5,0.1,0.7,0.2
			c0.1,0.1,0.3,0.1,0.3,0c0,0,1.4-0.2,3-0.3C112.9,125.8,114.2,125.7,114.3,125.7L114.3,125.7 M116.8,146.7h-0.1
			c-0.1,0-0.5-0.1-0.9-0.3c-0.4-0.1-0.8-0.3-0.8-0.4l-0.1-0.1l0,0l-0.7-0.4l-0.7-0.4l0,0l-0.1-0.1l-0.1-0.1l0,0l-0.4-0.2l-0.4-0.2
			l0,0l-0.1-0.1l-0.1-0.1l0,0h-0.1c0,0-0.2-0.1-0.3-0.1c-0.1-0.1-0.3-0.3-0.3-0.6c-0.1-0.3-0.1-0.7-0.1-1.1v-0.6l0,0l-0.1-0.1
			c0,0-0.1-0.6-0.1-1.3l-0.1-1.2l0,0l-0.1-1.4l-0.1-1.4l0,0l-0.1-1.3l-0.1-1.3l0,0l-0.1-1.3l-0.1-1.3l0,0h-0.1c0,0-0.1-0.2-0.1-0.4
			c0-0.2,0-0.6-0.1-0.9l-0.1-0.5h0.7h0.7l0,0l0.2-0.1c0.1,0,0.3-0.1,0.4-0.1l0.1,0l0,0v-0.1c0,0,0.2-0.1,0.5-0.1
			c0.3,0,0.5,0,0.5,0.1v0.1h0.1h0.1l0,0l0.8-0.1c0.5,0,0.9-0.1,0.9-0.1l0.1,0l0.2,0l0.1-0.1l0-0.1l0.3-0.1c0.2,0,0.4,0,0.4,0
			c0.1,0,0.4,0.1,0.7,0.1h0.6l0,0v-0.1c0,0,0.5-0.1,1.2-0.1c0.7,0,1.2,0,1.2,0.1v0.1l0.2,0l0.1-0.1l0-0.1l0.1,0c0.1,0,0.7,0,1.5,0.1
			l1.4,0.1l0,0h0.1h0.1v-0.1c0,0,0.6-0.1,1.3-0.1c0.7,0,1.3,0,1.3,0.1v0.1l0,0l0.5,0c0.3,0,0.5,0,0.6,0c0.1,0,0.3,0,0.5,0h0.4l0,0.1
			l0.1,0.1l0.2,0h0.7c0.4,0,1.2,0,1.9,0.1c0.7,0,1.2,0.1,1.2,0.1l0.1,0.1l0,0h0.6c0.6,0,0.6,0,0.6,0.2c0,0.1-0.1,0.8-0.2,1.4
			c-0.1,0.6-0.1,1.2-0.2,1.2h0l0,0l-0.1,1.2c0,0.7-0.1,1.3-0.1,1.3l-0.1,0.1l0,0l-0.1,1c0,0.6-0.1,1.7-0.2,2.5
			c-0.1,0.8-0.2,1.5-0.2,1.6l-0.1,0.1l0,0l-0.1,1.2c0,0.7-0.1,1.3-0.1,1.3l-0.1,0.1l0,0v0.6c0,0.6,0,0.6-0.5,0.8
			c-0.3,0.1-0.5,0.2-0.5,0.2h0l0,0l-0.1,0.1l-0.1,0.1l0,0L130,145l-0.4,0.2l0,0l-0.1,0.1l-0.1,0.1l0,0l-0.3,0.3
			c-0.2,0.1-0.5,0.3-0.7,0.4c-0.2,0.1-0.4,0.1-0.5,0.1h-0.1l0,0l-0.7,0.3l-0.7,0.3l0,0l-1.5,0.4c-0.8,0.2-1.7,0.4-2,0.4
			c-0.3,0-0.7,0-0.8,0h-0.3l-0.2,0h-0.1l-0.2,0h-0.3c-0.2,0-0.7,0-1.1-0.1c-0.4,0-1.3-0.2-1.9-0.4
			C117.5,146.9,116.9,146.8,116.8,146.7L116.8,146.7 M106.7,139.5l-0.2-0.3l-0.2-0.3l0,0l-0.2-0.3l-0.2-0.3l0,0h-0.1
			c0,0-0.2-0.2-0.3-0.3c-0.1-0.2-0.3-0.5-0.4-0.7l-0.1-0.4l0,0l-0.1-0.1c0,0-0.1-0.1-0.1-0.1v-0.1l0,0l-0.4-0.6l-0.4-0.6l0,0h-0.1
			c0,0-0.1-0.1-0.1-0.1c0-0.1-0.1-0.3-0.1-0.6l-0.1-0.5l0,0l-0.1-0.4l-0.1-0.4l0,0l-0.1-0.1c0-0.1-0.1-0.2-0.1-0.2v-0.1l0,0h-0.1
			c0,0-0.1-0.2-0.2-0.5c-0.1-0.2-0.1-0.5-0.1-0.6v-0.2l0,0l-0.1-0.1c0-0.1-0.1-0.4-0.2-0.7c-0.1-0.3-0.1-0.7-0.1-0.8V130l0,0
			l-0.1-0.2c0-0.1-0.1-0.2-0.1-0.3l0-0.1l0,0h-0.1c0,0-0.1-0.1-0.1-0.2c-0.1-0.1-0.1-0.3,0-0.3c0-0.1,0.3,0,0.6,0.1
			c0.3,0.1,0.6,0.2,0.8,0.2c0.1,0,0.3,0,0.3,0.1v0.1l0,0l0.1-0.1c0,0,0.5,0,1,0.2c0.5,0.1,1,0.3,1.2,0.3c0.3,0.1,0.3,0.2,0.3,0.8
			c0,0.4,0,0.7,0,0.7v0.1l0,0l0.1,1.4l0.1,1.4l0,0l0.1,1.3l0.1,1.3l0,0l0.1,1c0.1,0.5,0.2,1.1,0.2,1.4l0.1,0.4l0,0l0.1,0.4l0.1,0.4
			l0,0v0.1c0,0-0.1,0.1-0.1,0.1c-0.1,0-0.2-0.2-0.4-0.4L106.7,139.5 M136.2,137.5l0-0.4c0-0.2,0-0.8,0.1-1.2s0.1-0.9,0.1-0.9l0.1,0
			l0,0l0.1-1.3l0.1-1.3l0,0l0.1-1.3l0.1-1.3l0,0v-0.1c0-0.1,0-0.1,0.1-0.2c0,0,0.1,0,0.1,0c0,0,0.5,0,1.2-0.2
			c0.6-0.2,1.3-0.3,1.4-0.3h0.3l0,0l0.2-0.1c0.1,0,0.3-0.1,0.4-0.1l0.1,0l0,0v-0.1c0,0,0.1-0.1,0.1-0.1c0.1,0,0.1,0.1,0.1,0.2
			c0,0.1,0,0.2-0.1,0.2h-0.1l0,0l-0.1,0.3l-0.1,0.3l0,0l-0.1,0.3l-0.1,0.3l0,0l0.1,0.1c0,0.1,0,0.4-0.1,0.7
			c-0.1,0.4-0.2,0.7-0.2,0.7c0,0,0,0.1,0,0.2c0,0.1-0.1,0.1-0.1,0.1h-0.1l0,0v0.1c0,0.1,0,0.2-0.1,0.2l-0.1,0.1l0,0v0.3
			c0,0.1,0,0.3-0.1,0.4c-0.1,0.1-0.1,0.1-0.1,0.1h0l0,0v0.1c0,0.1,0,0.2-0.1,0.2l-0.1,0.1l0,0l-0.1,0.4l-0.1,0.4l0,0l-0.1,0.4
			l-0.1,0.4l0,0l-0.1,0.3l-0.1,0.3l0,0v0.1c0,0.1,0,0.1-0.1,0.1l-0.1,0.1l0,0l-0.3,0.5l-0.3,0.5l0,0v0.1c0,0.1,0,0.1-0.1,0.1
			l-0.1,0.1l0,0v0.1c0,0.1,0,0.1-0.1,0.1l-0.1,0.1l0,0l-0.1,0.2l-0.1,0.2l0,0v0.1c0,0.1-0.1,0.3-0.3,0.5c-0.2,0.2-0.3,0.4-0.4,0.4
			h-0.1l0,0v0.1c0,0,0,0.1-0.1,0.1h-0.1l0,0v0.1c0,0-0.1,0.3-0.2,0.5c-0.1,0.2-0.3,0.4-0.4,0.4c-0.1,0-0.2-0.2-0.1-1
			c0.1-0.5,0.1-1.1,0.1-1.4S136.1,137.5,136.2,137.5L136.2,137.5"/>
		<path class="st26" d="M195.9,134.8h-1.1c-0.6,0-1.1,0-1.1,0c0,0-0.3,0-0.6,0h-0.5l-0.1-0.1l0,0l-0.1,0.1h-0.6c-0.4,0-0.7,0-0.7,0
			c0,0-0.4,0-0.8,0h-0.7h-0.1h-0.1h-0.9c-0.5,0-1,0-1,0c0,0-0.3,0-0.6,0h-0.6H186h-0.1h-0.1c-0.1,0-0.2,0-0.2,0c0,0-0.2,0-0.3,0H185
			l0,0h-0.6h-0.6l0,0h-0.5h-0.5l0,0h-0.6h-0.6l0,0h-1.1h-1.1l0,0h-5.4c-3,0-5.5,0-5.5,0c0,0-0.2,0-0.4,0h-0.4l0,0h-0.1
			c-0.1,0-0.2,0-0.2,0c0,0-0.2,0-0.3,0h-0.2l0,0h-0.6c-0.4,0-0.7,0-0.7,0c0,0-0.3,0-0.6,0h-0.5l0,0h-0.5h-0.5h-0.1h-0.1h-0.6
			c-0.4,0-0.7,0-0.7,0c0,0-0.2,0-0.4,0h-0.3h-0.1h-0.1h-0.1c-0.1,0-0.2,0-0.2,0c0,0-0.2,0-0.3,0h-0.2h-0.1h-0.1h-0.9c-0.5,0-1,0-1,0
			c0,0-0.3,0-0.6,0h-0.6l0,0h-0.6c-0.4,0-0.7,0-0.7,0c0,0-0.1,0-0.2,0h-0.1l0,0h-0.1c-0.1,0-0.2,0-0.2,0c0,0-0.2,0-0.3,0h-0.2l0,0
			h-1.1h-1.1l0,0h-0.6c-0.4,0-0.7,0-0.7,0h-0.1l-0.1-0.1l0,0l-0.1,0.1h-0.3h-0.3l0,0l-0.7-0.1c-0.4,0-0.8-0.2-1.1-0.3
			c-0.2-0.1-0.5-0.5-0.6-0.9c-0.2-0.5-0.2-0.7-0.1-1.2c0.1-0.3,0.3-0.6,0.4-0.8c0.1-0.1,0.5-0.3,0.9-0.5c0.6-0.2,3.2-0.2,24.1-0.2
			c16.8,0,23.5,0,23.6,0.1c0.1,0.1,0.2,0.1,0.4,0.1c0.1,0,0.4,0.1,0.7,0.3c0.3,0.2,0.4,0.4,0.3,0.4c-0.1,0,0,0.1,0.1,0.1
			c0.1,0.1,0.2,0.4,0.2,0.8c0,0.4-0.1,0.8-0.2,1c-0.1,0.2-0.4,0.5-0.6,0.6c-0.2,0.1-0.5,0.2-0.8,0.3L195.9,134.8"/>
		<path class="st26" d="M94.2,103v-2.1c0-1.2,0-2.2,0-2.2c0,0,0-3.8,0-8.3v-8.2l0,0l0-0.1c0-0.1,0-0.3,0.1-0.5
			c0-0.2,0.3-0.5,0.5-0.7c0.2-0.2,0.8-0.5,1.4-0.7c0.5-0.2,1.9-0.7,3-1.2c1.1-0.4,2.5-0.9,3.1-1.1c0.5-0.2,1.7-0.5,2.6-0.7
			c0.9-0.2,1.7-0.5,1.9-0.5c0.2,0,1-0.2,1.9-0.4c0.9-0.2,2.7-0.5,4-0.7c1.3-0.2,2.9-0.4,3.7-0.5l1.3-0.1l0,0V75c0,0,0.3,0.1,0.7,0.1
			c0.4,0,0.7,0,0.7-0.1v-0.1l0,0l0.7-0.1c0.4,0,1.8,0,3,0c1.3,0,2.6,0.1,3.1,0.2c0.4,0,1.5,0.1,2.3,0.2c0.8,0.1,2,0.2,2.6,0.4
			s1.2,0.2,1.4,0.2c0.1,0,1.1,0.2,2.2,0.4c1.1,0.2,2.3,0.5,2.8,0.6c0.4,0.1,0.9,0.2,1,0.3c0.1,0,0.7,0.2,1.3,0.3
			c0.6,0.2,1.8,0.5,2.6,0.8c0.8,0.3,1.7,0.6,2,0.7c0.2,0.1,1.3,0.5,2.3,0.9c1.2,0.4,2,0.8,2.2,1.1c0.2,0.2,0.4,0.6,0.5,0.8
			c0.1,0.3,0.1,0.5,0.1,0.5v0.1l0,0v8.8c0,4.8,0,8.8,0,8.8c0,0,0,0.7,0,1.6v1.5l0,0v0.2c0,0.1-0.1,0.4-0.2,0.7
			c-0.1,0.3-0.3,0.6-0.4,0.7c-0.1,0.1-0.2,0.3-0.2,0.4v0.2l0,0v0.5v0.5l0,0v0.5c0,0.3-0.1,0.7-0.2,1c-0.1,0.2-0.4,0.6-0.5,0.7
			c-0.2,0.2-0.5,0.3-1.1,0.3c-0.7,0-0.9-0.1-1.3-0.4c-0.2-0.2-0.5-0.6-0.5-0.8c0-0.2-0.1-0.4-0.1-0.5l0-0.1l0,0v-0.6
			c0-0.4,0-0.7,0-0.7c0,0,0-0.3,0-0.6v-0.5l0,0v-0.1c0,0,0-0.1,0-0.2c0-0.1-0.4-0.2-0.8-0.4c-0.5-0.1-1.7-0.5-2.7-0.9
			c-1-0.3-2.5-0.8-3.3-1c-0.8-0.2-1.5-0.4-1.6-0.4c-0.1,0-0.3-0.1-0.3-0.1c0,0-0.1,0-0.2-0.1c-0.1,0-0.4-0.1-0.8-0.2
			c-0.3-0.1-1.5-0.3-2.6-0.5c-1.1-0.2-2.1-0.4-2.3-0.4c-0.2,0-1-0.1-1.8-0.2c-0.8-0.1-2-0.2-2.6-0.3c-0.7-0.1-2.7-0.1-4.6-0.1
			c-1.9,0-3.9,0.1-4.6,0.2c-0.7,0.1-1.8,0.2-2.4,0.3c-0.6,0.1-1.3,0.2-1.5,0.2c-0.2,0-0.9,0.2-1.6,0.3c-0.7,0.1-2.6,0.6-4.2,1
			c-1.7,0.4-3.4,0.9-3.9,1.1s-1.6,0.5-2.4,0.8c-0.9,0.3-1.6,0.6-1.6,0.7l0,0.2l0,0v0.5c0,0.3,0,0.5,0,0.6c0,0,0,0.4,0,0.7v0.6l0,0
			v0.1c0,0-0.1,0.3-0.2,0.6c-0.1,0.3-0.4,0.7-0.7,0.9c-0.3,0.2-0.7,0.3-1.1,0.3c-0.5,0-0.7-0.1-1.1-0.5c-0.3-0.3-0.5-0.6-0.6-0.8
			c-0.1-0.2-0.1-0.9-0.1-1.6c0-1-0.1-1.3-0.3-1.5c-0.2-0.2-0.3-0.6-0.4-0.8L94.2,103 M97.9,100.1v-0.6c0-0.4,0-0.7,0-0.7
			c0,0,0-3.5,0-7.6v-7.6l0,0l0.3-0.1l0.3-0.1l0,0l0.1-0.1c0.1,0,0.2-0.1,0.2-0.1h0.1l0,0v-0.1c0,0,0.2-0.1,0.4-0.2
			c0.2-0.1,0.5-0.1,0.6-0.1h0.1l0,0l0-0.1c0,0,0.2-0.1,0.3-0.2c0.2-0.1,0.3-0.1,0.4-0.1l0.1,0.1l0,0v-0.1c0,0,0.2-0.1,0.4-0.2
			c0.2-0.1,0.5-0.1,0.6-0.1h0.2l0,0l0.1-0.1c0.1,0,0.2-0.1,0.2-0.1h0.1l0,0l0.4-0.1l0.4-0.1l0,0l0-0.1c0,0,0.4-0.2,0.9-0.3
			c0.5-0.1,0.9-0.2,1-0.2h0.2l0,0l0.2-0.1c0.1,0,0.4-0.2,0.7-0.3c0.3-0.1,0.6-0.2,0.6-0.1l0.1,0.1l0,0v-0.1c0,0,0.3-0.1,0.6-0.2
			c0.3-0.1,0.7-0.2,0.8-0.2h0.2l0,0l0.7-0.1l0.7-0.1l0,0l0.1-0.1c0.1-0.1,0.4-0.1,0.7-0.1l0.6,0l0,0l0.9-0.1l0.9-0.1l0,0l1-0.1
			l1-0.1l0,0V79c0,0,0-0.1,0.1-0.1h0.1h0.1v-0.1c0,0,0.2-0.1,0.5-0.1c0.3,0,0.5,0,0.5,0.1v0.1l0,0l0.1-0.1c0.1,0,0.4-0.1,0.9-0.1
			c0.4,0,0.8,0,0.8,0h0.1l0,0l1.2-0.1c0.6,0,1.2-0.1,1.3-0.1l0.1,0l0,0v-0.1c0,0,0.4-0.1,0.9-0.1c0.5,0,0.9,0,0.9,0.1v0.1l0,0l0.1,0
			c0.1,0,0.6,0,1.1,0c0.6,0,1,0.1,1,0.1l0,0.1l0,0l1.6,0.1l1.6,0.1l0,0l0.9,0.1l0.9,0.1l0,0l0.1-0.1c0,0,0.5,0,1,0.1
			c0.5,0.1,1.2,0.2,1.4,0.3c0.2,0,0.7,0.1,1.1,0.2c0.4,0.1,1,0.2,1.4,0.3c0.4,0.1,0.7,0.2,0.7,0.2v0.1l0,0h0.1
			c0.1,0,0.9,0.2,1.8,0.4c0.9,0.2,1.7,0.5,1.7,0.5l0.1,0.1l0,0h0.2c0.1,0,0.4,0.1,0.7,0.1c0.3,0.1,0.5,0.2,0.5,0.2v0.1l0,0h0.1
			c0.1,0,0.4,0.1,0.8,0.2c0.4,0.1,0.7,0.3,0.7,0.3v0.1l0,0h0.1c0.1,0,0.4,0.1,0.8,0.2c0.4,0.1,0.7,0.3,0.7,0.3V83l0,0l0.3,0.1
			c0.2,0,0.5,0.1,0.7,0.2c0.2,0.1,0.4,0.2,0.4,0.2c0,0,0,0.1,0,0.2v0.1l0,0v5.6c0,3.1,0,5.7,0,5.7c0,0,0,1.1,0,2.4v2.4l0,0v0.1
			c0,0.1,0,0.2-0.1,0.3c0,0.1-0.2,0.1-0.7-0.1c-0.3-0.1-0.7-0.3-0.9-0.3l-0.2-0.1l0,0l-0.2-0.1l-0.2-0.1l0,0H143
			c-0.1,0-0.7-0.2-1.4-0.4c-0.7-0.2-2.8-0.8-4.7-1.3c-1.9-0.5-3.7-0.9-4-1l-0.6-0.1l0,0H132c-0.1,0-0.5,0-0.8-0.1
			c-0.3-0.1-0.6-0.1-0.6-0.1l0-0.1l0,0l-1-0.1c-0.5,0-1.7-0.2-2.6-0.3l-1.6-0.2l0,0h-1.7H122l0-0.1l-0.1-0.1l-0.2,0h-0.1
			c0,0-0.1,0-0.1,0h-0.1l0,0l-0.1,0.1c-0.1,0-0.2,0.1-0.2,0.1c-0.1,0-0.8,0-1.7,0h-1.6l0,0l-0.1,0.1c0,0-0.6,0.1-1.2,0.1
			c-0.7,0-1.5,0.1-2,0.2c-0.4,0.1-1,0.1-1.2,0.1h-0.5l0,0l-0.2,0.1c-0.1,0.1-0.2,0.1-0.3,0.1c0,0-0.2-0.1-0.3-0.1h-0.2l0,0l-0.1,0.1
			c-0.1,0-0.2,0.1-0.2,0.1c-0.1,0-0.2,0-0.2,0H111l0,0l-0.8,0.1l-0.8,0.1l0,0l-3.2,0.8c-1.7,0.5-4.1,1.1-5.2,1.5
			c-1.1,0.4-2.3,0.8-2.5,0.9s-0.5,0.2-0.5,0.1C97.9,100.4,97.9,100.3,97.9,100.1L97.9,100.1"/>
	</g>
	<g>
		<path class="st27" d="M64.2,211.3h2.4c1.3,0,2.5,0,2.5,0c0,0,0.4,0,0.7,0h0.6v0.1h-3.1c-1.7,0-3.2,0-3.2,0c0,0-0.1,0-0.1-0.1v-0.1
			"/>
		<path class="st27" d="M70.6,211.3h5.7c3.1,0,5.7,0,5.8,0c0,0,0.4,0,0.7,0h0.6l0,0h0.2c0.1,0,0.2,0,0.3,0c0,0,0.1,0,0.2,0h0.1l0,0
			l-1.1,0.1c-0.6,0-1.2,0.1-1.2,0.1c-0.1,0-2.6,0-5.7,0h-5.6"/>
		<path class="st27" d="M183.2,201.7v0.2c0,0.1,0,0.2,0,0.3c0,0,0,0.4,0,0.7v0.6v0.1v0.1v0.1h-0.1c0,0-0.1-0.5-0.1-1.1
			C183,202.2,183.1,201.7,183.2,201.7L183.2,201.7"/>
		<path class="st27" d="M183.2,200v0.5c0,0.3,0,0.5,0,0.6c0,0,0,0.2,0,0.3v0.2l0,0h-0.1c0,0-0.1-0.4-0.1-0.8
			C183,200.3,183.1,200,183.2,200L183.2,200"/>
		<path class="st27" d="M167.6,199.9L167.6,199.9c-0.1,0-0.2,0-0.2,0h-0.1h-0.1h-0.3h-0.3l0,0v-0.1c0,0,0.2-0.1,0.5-0.1
			C167.4,199.7,167.6,199.7,167.6,199.9L167.6,199.9"/>
		<path class="st27" d="M168.2,199.9L168.2,199.9c0-0.1,0.4-0.1,0.9-0.1s0.9,0,0.9,0.1v0.1l0,0h-0.6c-0.4,0-0.7,0-0.7,0
			c0,0-0.1,0-0.2,0H168.2"/>
		<path class="st27" d="M183.2,196.6v0.5v0.5l0,0h-0.1c0,0-0.1-0.2-0.1-0.5C183,196.8,183.1,196.6,183.2,196.6L183.2,196.6"/>
		<path class="st27" d="M183.2,193.2v0.5c0,0.3,0,0.5,0,0.6c0,0,0,0.2,0,0.3v0.2l0,0h-0.1c0,0-0.1-0.4-0.1-0.8
			C183,193.5,183.1,193.2,183.2,193.2L183.2,193.2"/>
		<path class="st27" d="M109.3,193.2L109.3,193.2c0-0.1,0-0.2,0-0.2v-0.1v-0.1v-1.6c0-0.9,0-1.7,0-1.7c0,0,0-1.1,0-2.3v-2.2l0,0
			v-0.5v-0.5l0,0v-0.5v-0.5l0,0v-0.2c0-0.1,0-0.3,0-0.3c0,0,0-0.1,0-0.1v-0.1V182V182c0,0,0-0.1,0-0.1v-0.1l0,0h0.1
			c0,0,0.1,2.6,0.1,5.8c0,3.2,0,5.8-0.1,5.8h-0.1"/>
		<path class="st27" d="M183.2,188.5v1.1v1.1l0,0v0.8c0,0.4,0,0.8,0,0.9c0,0,0,0.2,0,0.4v0.3l0,0h-0.1c0,0-0.1-1-0.1-2.2
			C183,189.4,183.1,188.5,183.2,188.5L183.2,188.5"/>
		<path class="st27" d="M62.5,178.7v-0.1c0-0.1,0-0.2,0-0.2c0,0,0-0.2,0-0.3v-0.2l0,0h0.1c0,0,0.1,0.2,0.1,0.4
			C62.6,178.5,62.6,178.7,62.5,178.7L62.5,178.7"/>
		<path class="st27" d="M107.6,176.8h0.5h0.5l0,0v0.1c0,0-0.2,0.1-0.5,0.1C107.8,176.9,107.6,176.9,107.6,176.8L107.6,176.8"/>
		<path class="st27" d="M62.5,176.6v-0.5v-0.5l0,0h0.1c0,0,0.1,0.2,0.1,0.5C62.6,176.4,62.6,176.6,62.5,176.6L62.5,176.6"/>
		<path class="st27" d="M62.5,175.3v-0.2c0-0.1,0-0.3,0-0.3c0,0,0-0.3,0-0.6v-0.5l0,0h0.1c0,0,0.1,0.3,0.1,0.8
			C62.6,175,62.6,175.3,62.5,175.3L62.5,175.3"/>
		<path class="st27" d="M171.5,171.2v-0.5v-0.5l0,0h0.1c0,0,0.1,0.2,0.1,0.5C171.6,171,171.6,171.2,171.5,171.2L171.5,171.2"/>
		<path class="st27" d="M171.5,170v-0.5V169l0,0h0.1c0,0,0.1,0.2,0.1,0.5C171.6,169.8,171.6,170,171.5,170L171.5,170"/>
		<path class="st27" d="M123.5,164.8v0.5v0.5l0,0h-0.1c0,0-0.1-0.2-0.1-0.5C123.4,165,123.4,164.8,123.5,164.8L123.5,164.8"/>
		<path class="st27" d="M101.6,160.1v-0.1c0-0.1,0-0.2,0-0.2c0,0,0-0.2,0-0.3v-0.2l0,0h0.1c0,0,0.1,0.2,0.1,0.4
			C101.7,159.9,101.7,160.1,101.6,160.1L101.6,160.1"/>
		<path class="st27" d="M72.3,157.1h0.2c0.1,0,0.2,0,0.3,0c0,0,0.4,0,0.7,0h0.6l0,0v0.1c0,0-0.4,0.1-0.9,0.1
			C72.7,157.2,72.3,157.2,72.3,157.1L72.3,157.1"/>
		<path class="st27" d="M87.3,154.5v0.5v0.5l0,0h-0.1c0,0-0.1-0.2-0.1-0.5C87.2,154.7,87.2,154.5,87.3,154.5L87.3,154.5"/>
		<path class="st27" d="M87.3,152.8v0.5c0,0.3,0,0.5,0,0.6c0,0,0,0.2,0,0.3v0.2l0,0h-0.1c0,0-0.1-0.4-0.1-0.8
			C87.2,153.1,87.2,152.8,87.3,152.8L87.3,152.8"/>
		<path class="st27" d="M105,152.2v0.2c0,0.1,0,0.2,0,0.3c0,0,0,0.1,0,0.2v0.1l0,0h-0.1c0,0-0.1-0.2-0.1-0.4
			C104.9,152.4,104.9,152.2,105,152.2L105,152.2"/>
		<path class="st27" d="M138.1,151.4v-0.6c0-0.4,0-0.7,0-0.7v-0.1l0,0h0.1c0,0,0.1,0.3,0.1,0.7C138.2,151,138.2,151.4,138.1,151.4
			L138.1,151.4"/>
		<path class="st27" d="M107.3,139.2l0.1,0.4l0.1,0.4l0,0l-0.1-0.3C107.3,139.6,107.3,139.4,107.3,139.2L107.3,139.2"/>
		<path class="st27" d="M60.3,137.7h0.1c0.1,0,0.2,0,0.2,0c0,0,0.4,0,0.7,0h0.6l0,0v0.1c0,0-0.4,0.1-0.9,0.1
			C60.7,137.8,60.3,137.8,60.3,137.7L60.3,137.7"/>
		<path class="st27" d="M113,129.7h-0.5H112l0,0v-0.1c0,0,0.2-0.1,0.5-0.1C112.8,129.5,113,129.6,113,129.7L113,129.7"/>
		<path class="st27" d="M119.8,129.4h-0.6c-0.4,0-0.7,0-0.7,0c0,0-0.3,0-0.6,0h-0.5l0,0v-0.1c0,0,0.5-0.1,1.2-0.1
			C119.3,129.2,119.8,129.3,119.8,129.4L119.8,129.4"/>
		<path class="st27" d="M126,129.4h-1c-0.6,0-1,0-1.1,0c0,0-0.2,0-0.3,0h-0.2l0,0v-0.1c0,0,0.6-0.1,1.3-0.1
			C125.4,129.2,126,129.3,126,129.4L126,129.4"/>
		<path class="st27" d="M114.3,125.7h0.5c0.3,0,0.5,0,0.6,0c0,0,0.2,0,0.3,0h0.2l0,0v0.1c0,0-0.4,0.1-0.8,0.1
			C114.6,125.8,114.3,125.8,114.3,125.7L114.3,125.7"/>
		<path class="st27" d="M116.4,78.9h-0.5h-0.5l0,0v-0.1c0,0,0.2-0.1,0.5-0.1C116.2,78.7,116.4,78.8,116.4,78.9L116.4,78.9"/>
		<path class="st27" d="M122.7,78.6H122c-0.4,0-0.7,0-0.7,0c0,0-0.2,0-0.3,0h-0.2l0,0v-0.1c0,0,0.4-0.1,0.9-0.1
			C122.3,78.5,122.7,78.5,122.7,78.6L122.7,78.6"/>
		<path class="st27" d="M117.5,74.9L117.5,74.9c0.1,0,0.4,0,0.8,0h0.6l0,0V75c0,0-0.3,0.1-0.7,0.1C117.9,75,117.5,75,117.5,74.9
			L117.5,74.9"/>
	</g>
</g>
</svg>
